<?xml version="1.0" encoding="UTF-8" standalone="no"?>
<!DOCTYPE svg PUBLIC "-//W3C//DTD SVG 1.1//EN"
 "http://www.w3.org/Graphics/SVG/1.1/DTD/svg11.dtd">
<!-- Generated by graphviz version 2.43.0 (0)
 -->
<!-- Title: writeback Pages: 1 -->
<svg width="2396pt" height="783pt"
 viewBox="0.00 0.00 2396.14 782.50" xmlns="http://www.w3.org/2000/svg" xmlns:xlink="http://www.w3.org/1999/xlink">
<g id="graph0" class="graph" transform="scale(1 1) rotate(0) translate(4 778.5)">
<title>writeback</title>
<polygon fill="white" stroke="transparent" points="-4,4 -4,-778.5 2392.14,-778.5 2392.14,4 -4,4"/>
<text text-anchor="middle" x="1194.07" y="-7.8" font-family="Times,serif" font-size="14.00">writeback</text>
<!-- n13 -->
<g id="node1" class="node">
<title>n13</title>
<polygon fill="none" stroke="black" points="118.25,-364.54 118.25,-379.46 98.84,-390 71.4,-390 51.99,-379.46 51.99,-364.54 71.4,-354 98.84,-354 118.25,-364.54"/>
<text text-anchor="middle" x="85.12" y="-368.3" font-family="Times,serif" font-size="14.00">CLK</text>
</g>
<!-- n14 -->
<g id="node2" class="node">
<title>n14</title>
<polygon fill="none" stroke="black" points="1017.25,-170.54 1017.25,-185.46 969.39,-196 901.69,-196 853.83,-185.46 853.83,-170.54 901.69,-160 969.39,-160 1017.25,-170.54"/>
<text text-anchor="middle" x="935.54" y="-174.3" font-family="Times,serif" font-size="14.00">MEM_WB_alu</text>
</g>
<!-- x13 -->
<g id="node33" class="node">
<title>x13</title>
<path fill="none" stroke="#7570b3" d="M1114.48,-110.5C1114.48,-110.5 1192.48,-110.5 1192.48,-110.5 1198.48,-110.5 1204.48,-116.5 1204.48,-122.5 1204.48,-122.5 1204.48,-167.5 1204.48,-167.5 1204.48,-173.5 1198.48,-179.5 1192.48,-179.5 1192.48,-179.5 1114.48,-179.5 1114.48,-179.5 1108.48,-179.5 1102.48,-173.5 1102.48,-167.5 1102.48,-167.5 1102.48,-122.5 1102.48,-122.5 1102.48,-116.5 1108.48,-110.5 1114.48,-110.5"/>
<text text-anchor="middle" x="1153.48" y="-164.3" font-family="Times,serif" font-size="14.00" fill="#7570b3">31:0 &#45; 95:64</text>
<polyline fill="none" stroke="#7570b3" points="1102.48,-156.5 1204.48,-156.5 "/>
<text text-anchor="middle" x="1153.48" y="-141.3" font-family="Times,serif" font-size="14.00" fill="#7570b3">31:0 &#45; 63:32</text>
<polyline fill="none" stroke="#7570b3" points="1102.48,-133.5 1204.48,-133.5 "/>
<text text-anchor="middle" x="1153.48" y="-118.3" font-family="Times,serif" font-size="14.00" fill="#7570b3">31:0 &#45; 31:0</text>
</g>
<!-- n14&#45;&gt;x13 -->
<g id="edge17" class="edge">
<title>n14:e&#45;&gt;x13:w</title>
<path fill="none" stroke="#1b9e77" stroke-width="3" d="M1018.54,-178C1052.44,-178 1062.91,-169.86 1092.24,-168.27"/>
<polygon fill="#1b9e77" stroke="#1b9e77" stroke-width="3" points="1092.57,-171.76 1102.48,-168 1092.39,-164.76 1092.57,-171.76"/>
<text text-anchor="middle" x="1062.98" y="-179.8" font-family="Times,serif" font-size="14.00" fill="#1b9e77">&lt;32&gt;</text>
</g>
<!-- n15 -->
<g id="node3" class="node">
<title>n15</title>
<polygon fill="none" stroke="black" points="1023.41,-50.54 1023.41,-65.46 971.94,-76 899.14,-76 847.67,-65.46 847.67,-50.54 899.14,-40 971.94,-40 1023.41,-50.54"/>
<text text-anchor="middle" x="935.54" y="-54.3" font-family="Times,serif" font-size="14.00">MEM_WB_data</text>
</g>
<!-- n15&#45;&gt;x13 -->
<g id="edge18" class="edge">
<title>n15:e&#45;&gt;x13:w</title>
<path fill="none" stroke="#7570b3" stroke-width="3" d="M1023.48,-58C1032.88,-58 1073.5,-102.31 1093.39,-117.19"/>
<polygon fill="#7570b3" stroke="#7570b3" stroke-width="3" points="1092,-120.41 1102.48,-122 1095.28,-114.23 1092,-120.41"/>
<text text-anchor="middle" x="1062.98" y="-113.8" font-family="Times,serif" font-size="14.00" fill="#7570b3">&lt;32&gt;</text>
</g>
<!-- n16 -->
<g id="node4" class="node">
<title>n16</title>
<polygon fill="none" stroke="black" points="170.37,-418.54 170.37,-433.46 120.43,-444 49.81,-444 -0.12,-433.46 -0.12,-418.54 49.81,-408 120.43,-408 170.37,-418.54"/>
<text text-anchor="middle" x="85.12" y="-422.3" font-family="Times,serif" font-size="14.00">MEM_WB_inst</text>
</g>
<!-- x4 -->
<g id="node21" class="node">
<title>x4</title>
<path fill="none" stroke="#1b9e77" d="M274.54,-78C274.54,-78 325.54,-78 325.54,-78 331.54,-78 337.54,-84 337.54,-90 337.54,-90 337.54,-102 337.54,-102 337.54,-108 331.54,-114 325.54,-114 325.54,-114 274.54,-114 274.54,-114 268.54,-114 262.54,-108 262.54,-102 262.54,-102 262.54,-90 262.54,-90 262.54,-84 268.54,-78 274.54,-78"/>
<text text-anchor="middle" x="300.04" y="-92.3" font-family="Times,serif" font-size="14.00" fill="#1b9e77">6:0 &#45; 6:0</text>
</g>
<!-- n16&#45;&gt;x4 -->
<g id="edge23" class="edge">
<title>n16:e&#45;&gt;x4:w</title>
<path fill="none" stroke="#666666" stroke-width="3" d="M170.25,-426C195.21,-426 180.06,-225.59 188.25,-202 205.81,-151.38 204.19,-102.51 251.01,-96.6"/>
<polygon fill="#666666" stroke="#666666" stroke-width="3" points="251.27,-100.09 261.04,-96 250.85,-93.1 251.27,-100.09"/>
<text text-anchor="middle" x="205.25" y="-205.8" font-family="Times,serif" font-size="14.00" fill="#666666">&lt;7&gt;</text>
</g>
<!-- x6 -->
<g id="node24" class="node">
<title>x6</title>
<path fill="none" stroke="#7570b3" d="M274.54,-188C274.54,-188 325.54,-188 325.54,-188 331.54,-188 337.54,-194 337.54,-200 337.54,-200 337.54,-212 337.54,-212 337.54,-218 331.54,-224 325.54,-224 325.54,-224 274.54,-224 274.54,-224 268.54,-224 262.54,-218 262.54,-212 262.54,-212 262.54,-200 262.54,-200 262.54,-194 268.54,-188 274.54,-188"/>
<text text-anchor="middle" x="300.04" y="-202.3" font-family="Times,serif" font-size="14.00" fill="#7570b3">6:0 &#45; 6:0</text>
</g>
<!-- n16&#45;&gt;x6 -->
<g id="edge24" class="edge">
<title>n16:e&#45;&gt;x6:w</title>
<path fill="none" stroke="#666666" stroke-width="3" d="M170.25,-426C188.68,-426 182.3,-362.45 188.25,-345 209.55,-282.47 193.24,-213.68 250.73,-206.6"/>
<polygon fill="#666666" stroke="#666666" stroke-width="3" points="251.26,-210.07 261.04,-206 250.85,-203.08 251.26,-210.07"/>
<text text-anchor="middle" x="205.25" y="-348.8" font-family="Times,serif" font-size="14.00" fill="#666666">&lt;7&gt;</text>
</g>
<!-- x8 -->
<g id="node27" class="node">
<title>x8</title>
<path fill="none" stroke="#e7298a" d="M274.54,-628C274.54,-628 325.54,-628 325.54,-628 331.54,-628 337.54,-634 337.54,-640 337.54,-640 337.54,-652 337.54,-652 337.54,-658 331.54,-664 325.54,-664 325.54,-664 274.54,-664 274.54,-664 268.54,-664 262.54,-658 262.54,-652 262.54,-652 262.54,-640 262.54,-640 262.54,-634 268.54,-628 274.54,-628"/>
<text text-anchor="middle" x="300.04" y="-642.3" font-family="Times,serif" font-size="14.00" fill="#e7298a">6:0 &#45; 6:0</text>
</g>
<!-- n16&#45;&gt;x8 -->
<g id="edge25" class="edge">
<title>n16:e&#45;&gt;x8:w</title>
<path fill="none" stroke="#666666" stroke-width="3" d="M170.25,-426C188.47,-426 182.38,-488.75 188.25,-506 209.69,-569.02 192.82,-638.54 251.04,-645.44"/>
<polygon fill="#666666" stroke="#666666" stroke-width="3" points="250.86,-648.94 261.04,-646 251.25,-641.95 250.86,-648.94"/>
<text text-anchor="middle" x="205.25" y="-633.8" font-family="Times,serif" font-size="14.00" fill="#666666">&lt;7&gt;</text>
</g>
<!-- x10 -->
<g id="node30" class="node">
<title>x10</title>
<path fill="none" stroke="#e7298a" d="M274.54,-738C274.54,-738 325.54,-738 325.54,-738 331.54,-738 337.54,-744 337.54,-750 337.54,-750 337.54,-762 337.54,-762 337.54,-768 331.54,-774 325.54,-774 325.54,-774 274.54,-774 274.54,-774 268.54,-774 262.54,-768 262.54,-762 262.54,-762 262.54,-750 262.54,-750 262.54,-744 268.54,-738 274.54,-738"/>
<text text-anchor="middle" x="300.04" y="-752.3" font-family="Times,serif" font-size="14.00" fill="#e7298a">6:0 &#45; 6:0</text>
</g>
<!-- n16&#45;&gt;x10 -->
<g id="edge19" class="edge">
<title>n16:e&#45;&gt;x10:w</title>
<path fill="none" stroke="#666666" stroke-width="3" d="M170.25,-426C195.1,-426 180.16,-625.49 188.25,-649 205.79,-699.99 203.87,-749.42 250.95,-755.4"/>
<polygon fill="#666666" stroke="#666666" stroke-width="3" points="250.85,-758.9 261.04,-756 251.27,-751.91 250.85,-758.9"/>
<text text-anchor="middle" x="205.25" y="-744.8" font-family="Times,serif" font-size="14.00" fill="#666666">&lt;7&gt;</text>
</g>
<!-- x15 -->
<g id="node37" class="node">
<title>x15</title>
<path fill="none" stroke="#1b9e77" d="M274.54,-408C274.54,-408 325.54,-408 325.54,-408 331.54,-408 337.54,-414 337.54,-420 337.54,-420 337.54,-432 337.54,-432 337.54,-438 331.54,-444 325.54,-444 325.54,-444 274.54,-444 274.54,-444 268.54,-444 262.54,-438 262.54,-432 262.54,-432 262.54,-420 262.54,-420 262.54,-414 268.54,-408 274.54,-408"/>
<text text-anchor="middle" x="300.04" y="-422.3" font-family="Times,serif" font-size="14.00" fill="#1b9e77">6:0 &#45; 6:0</text>
</g>
<!-- n16&#45;&gt;x15 -->
<g id="edge20" class="edge">
<title>n16:e&#45;&gt;x15:w</title>
<path fill="none" stroke="#666666" stroke-width="3" d="M170.25,-426C206.97,-426 218.63,-426 250.85,-426"/>
<polygon fill="#666666" stroke="#666666" stroke-width="3" points="251.04,-429.5 261.04,-426 251.04,-422.5 251.04,-429.5"/>
<text text-anchor="middle" x="205.25" y="-429.8" font-family="Times,serif" font-size="14.00" fill="#666666">&lt;7&gt;</text>
</g>
<!-- x17 -->
<g id="node40" class="node">
<title>x17</title>
<path fill="none" stroke="#1b9e77" d="M274.54,-298C274.54,-298 325.54,-298 325.54,-298 331.54,-298 337.54,-304 337.54,-310 337.54,-310 337.54,-322 337.54,-322 337.54,-328 331.54,-334 325.54,-334 325.54,-334 274.54,-334 274.54,-334 268.54,-334 262.54,-328 262.54,-322 262.54,-322 262.54,-310 262.54,-310 262.54,-304 268.54,-298 274.54,-298"/>
<text text-anchor="middle" x="300.04" y="-312.3" font-family="Times,serif" font-size="14.00" fill="#1b9e77">6:0 &#45; 6:0</text>
</g>
<!-- n16&#45;&gt;x17 -->
<g id="edge21" class="edge">
<title>n16:e&#45;&gt;x17:w</title>
<path fill="none" stroke="#666666" stroke-width="3" d="M170.25,-426C176.96,-426 231.84,-346.96 253.23,-322.88"/>
<polygon fill="#666666" stroke="#666666" stroke-width="3" points="255.85,-325.24 261.04,-316 251.22,-319.98 255.85,-325.24"/>
<text text-anchor="middle" x="205.25" y="-407.8" font-family="Times,serif" font-size="14.00" fill="#666666">&lt;7&gt;</text>
</g>
<!-- x19 -->
<g id="node43" class="node">
<title>x19</title>
<path fill="none" stroke="#e6ab02" d="M274.54,-518C274.54,-518 325.54,-518 325.54,-518 331.54,-518 337.54,-524 337.54,-530 337.54,-530 337.54,-542 337.54,-542 337.54,-548 331.54,-554 325.54,-554 325.54,-554 274.54,-554 274.54,-554 268.54,-554 262.54,-548 262.54,-542 262.54,-542 262.54,-530 262.54,-530 262.54,-524 268.54,-518 274.54,-518"/>
<text text-anchor="middle" x="300.04" y="-532.3" font-family="Times,serif" font-size="14.00" fill="#e6ab02">6:0 &#45; 6:0</text>
</g>
<!-- n16&#45;&gt;x19 -->
<g id="edge22" class="edge">
<title>n16:e&#45;&gt;x19:w</title>
<path fill="none" stroke="#666666" stroke-width="3" d="M170.25,-426C176.96,-426 231.84,-505.04 253.23,-529.12"/>
<polygon fill="#666666" stroke="#666666" stroke-width="3" points="251.22,-532.02 261.04,-536 255.85,-526.76 251.22,-532.02"/>
<text text-anchor="middle" x="205.25" y="-490.8" font-family="Times,serif" font-size="14.00" fill="#666666">&lt;7&gt;</text>
</g>
<!-- n17 -->
<g id="node5" class="node">
<title>n17</title>
<polygon fill="none" stroke="black" points="768.49,-122.54 768.49,-137.46 723.22,-148 659.21,-148 613.95,-137.46 613.95,-122.54 659.21,-112 723.22,-112 768.49,-122.54"/>
<text text-anchor="middle" x="691.22" y="-126.3" font-family="Times,serif" font-size="14.00">MEM_WB_pc</text>
</g>
<!-- c25 -->
<g id="node11" class="node">
<title>c25</title>
<polygon fill="none" stroke="black" points="883.04,-95 883.04,-141 988.04,-141 988.04,-95 883.04,-95"/>
<text text-anchor="middle" x="896.54" y="-125.8" font-family="Times,serif" font-size="14.00">A</text>
<polyline fill="none" stroke="black" points="883.04,-118 910.04,-118 "/>
<text text-anchor="middle" x="896.54" y="-102.8" font-family="Times,serif" font-size="14.00">B</text>
<polyline fill="none" stroke="black" points="910.04,-95 910.04,-141 "/>
<text text-anchor="middle" x="936.04" y="-121.8" font-family="Times,serif" font-size="14.00">$3</text>
<text text-anchor="middle" x="936.04" y="-106.8" font-family="Times,serif" font-size="14.00">$add</text>
<polyline fill="none" stroke="black" points="962.04,-95 962.04,-141 "/>
<text text-anchor="middle" x="975.04" y="-114.3" font-family="Times,serif" font-size="14.00">Y</text>
</g>
<!-- n17&#45;&gt;c25 -->
<g id="edge26" class="edge">
<title>n17:e&#45;&gt;c25:w</title>
<path fill="none" stroke="#a6761d" stroke-width="3" d="M768.6,-130C815.27,-130 829.39,-130 871.48,-130"/>
<polygon fill="#a6761d" stroke="#a6761d" stroke-width="3" points="871.54,-133.5 881.54,-130 871.54,-126.5 871.54,-133.5"/>
<text text-anchor="middle" x="808.1" y="-133.8" font-family="Times,serif" font-size="14.00" fill="#a6761d">&lt;32&gt;</text>
</g>
<!-- n18 -->
<g id="node6" class="node">
<title>n18</title>
<polygon fill="none" stroke="black" points="162.39,-472.54 162.39,-487.46 117.13,-498 53.12,-498 7.85,-487.46 7.85,-472.54 53.12,-462 117.13,-462 162.39,-472.54"/>
<text text-anchor="middle" x="85.12" y="-476.3" font-family="Times,serif" font-size="14.00">MEM_WB_rd</text>
</g>
<!-- n19 -->
<g id="node7" class="node">
<title>n19</title>
<polygon fill="none" stroke="black" points="2388.3,-220.54 2388.3,-235.46 2323.1,-246 2230.89,-246 2165.69,-235.46 2165.69,-220.54 2230.89,-210 2323.1,-210 2388.3,-220.54"/>
<text text-anchor="middle" x="2276.99" y="-224.3" font-family="Times,serif" font-size="14.00">REGS_MEM_WB_rd</text>
</g>
<!-- n20 -->
<g id="node8" class="node">
<title>n20</title>
<polygon fill="none" stroke="black" points="1375.6,-204.54 1375.6,-219.46 1356.2,-230 1328.75,-230 1309.35,-219.46 1309.35,-204.54 1328.75,-194 1356.2,-194 1375.6,-204.54"/>
<text text-anchor="middle" x="1342.48" y="-208.3" font-family="Times,serif" font-size="14.00">RES</text>
</g>
<!-- c32 -->
<g id="node18" class="node">
<title>c32</title>
<polygon fill="none" stroke="black" points="1480.48,-205 1480.48,-251 1617.48,-251 1617.48,-205 1480.48,-205"/>
<text text-anchor="middle" x="1499.98" y="-235.8" font-family="Times,serif" font-size="14.00">D</text>
<polyline fill="none" stroke="black" points="1480.48,-228 1519.48,-228 "/>
<text text-anchor="middle" x="1499.98" y="-212.8" font-family="Times,serif" font-size="14.00">EN</text>
<polyline fill="none" stroke="black" points="1519.48,-205 1519.48,-251 "/>
<text text-anchor="middle" x="1554.48" y="-231.8" font-family="Times,serif" font-size="14.00">$29</text>
<text text-anchor="middle" x="1554.48" y="-216.8" font-family="Times,serif" font-size="14.00">$dlatch</text>
<polyline fill="none" stroke="black" points="1589.48,-205 1589.48,-251 "/>
<text text-anchor="middle" x="1603.48" y="-224.3" font-family="Times,serif" font-size="14.00">Q</text>
</g>
<!-- n20&#45;&gt;c32 -->
<g id="edge29" class="edge">
<title>n20:e&#45;&gt;c32:w</title>
<path fill="none" stroke="#e6ab02" d="M1376.48,-212C1419.12,-212 1432.21,-215.4 1470.24,-215.93"/>
<polygon fill="#e6ab02" stroke="#e6ab02" points="1470.45,-219.43 1480.48,-216 1470.5,-212.43 1470.45,-219.43"/>
</g>
<!-- n21 -->
<g id="node9" class="node">
<title>n21</title>
<polygon fill="none" stroke="black" points="1825.16,-246 1696.29,-228 1825.16,-210 1954.02,-228 1825.16,-246"/>
<text text-anchor="middle" x="1825.16" y="-224.3" font-family="Times,serif" font-size="14.00">regs_mem_wb_rd</text>
</g>
<!-- x21 -->
<g id="node44" class="node">
<title>x21</title>
<path fill="none" stroke="black" d="M2074.84,-246C2074.84,-246 2044.84,-246 2044.84,-246 2038.84,-246 2032.84,-240 2032.84,-234 2032.84,-234 2032.84,-222 2032.84,-222 2032.84,-216 2038.84,-210 2044.84,-210 2044.84,-210 2074.84,-210 2074.84,-210 2080.84,-210 2086.84,-216 2086.84,-222 2086.84,-222 2086.84,-234 2086.84,-234 2086.84,-240 2080.84,-246 2074.84,-246"/>
<text text-anchor="middle" x="2059.84" y="-224.3" font-family="Times,serif" font-size="14.00">BUF</text>
</g>
<!-- n21&#45;&gt;x21 -->
<g id="edge31" class="edge">
<title>n21:e&#45;&gt;x21:w</title>
<path fill="none" stroke="#1b9e77" stroke-width="3" d="M1953.84,-228C1985.25,-228 1995.58,-228 2022.55,-228"/>
<polygon fill="#1b9e77" stroke="#1b9e77" stroke-width="3" points="2022.84,-231.5 2032.84,-228 2022.84,-224.5 2022.84,-231.5"/>
<text text-anchor="middle" x="1993.34" y="-231.8" font-family="Times,serif" font-size="14.00" fill="#1b9e77">&lt;32&gt;</text>
</g>
<!-- v0 -->
<g id="node10" class="node">
<title>v0</title>
<ellipse fill="none" stroke="black" cx="691.22" cy="-76" rx="27" ry="18"/>
<text text-anchor="middle" x="691.22" y="-72.3" font-family="Times,serif" font-size="14.00">4</text>
</g>
<!-- v0&#45;&gt;c25 -->
<g id="edge39" class="edge">
<title>v0:e&#45;&gt;c25:w</title>
<path fill="none" stroke="#e6ab02" stroke-width="3" d="M719.22,-76C789,-76 806.51,-103.14 871.19,-105.79"/>
<polygon fill="#e6ab02" stroke="#e6ab02" stroke-width="3" points="871.47,-109.3 881.54,-106 871.61,-102.3 871.47,-109.3"/>
<text text-anchor="middle" x="808.1" y="-103.8" font-family="Times,serif" font-size="14.00" fill="#e6ab02">&lt;32&gt;</text>
</g>
<!-- c25&#45;&gt;x13 -->
<g id="edge28" class="edge">
<title>c25:e&#45;&gt;x13:w</title>
<path fill="none" stroke="#a6761d" stroke-width="3" d="M989.54,-118C992.2,-118 1065,-136.34 1092.32,-142.79"/>
<polygon fill="#a6761d" stroke="#a6761d" stroke-width="3" points="1091.96,-146.29 1102.48,-145 1093.45,-139.45 1091.96,-146.29"/>
<text text-anchor="middle" x="1062.98" y="-143.8" font-family="Times,serif" font-size="14.00" fill="#a6761d">&lt;32&gt;</text>
</g>
<!-- c26 -->
<g id="node12" class="node">
<title>c26</title>
<polygon fill="none" stroke="black" points="861.54,-305 861.54,-343 1009.54,-343 1009.54,-305 861.54,-305"/>
<text text-anchor="middle" x="874.54" y="-320.3" font-family="Times,serif" font-size="14.00">A</text>
<polyline fill="none" stroke="black" points="887.54,-305 887.54,-343 "/>
<text text-anchor="middle" x="935.54" y="-327.8" font-family="Times,serif" font-size="14.00">$30</text>
<text text-anchor="middle" x="935.54" y="-312.8" font-family="Times,serif" font-size="14.00">$reduce_or</text>
<polyline fill="none" stroke="black" points="983.54,-305 983.54,-343 "/>
<text text-anchor="middle" x="996.54" y="-320.3" font-family="Times,serif" font-size="14.00">Y</text>
</g>
<!-- x14 -->
<g id="node34" class="node">
<title>x14</title>
<path fill="none" stroke="#d95f02" d="M1127.98,-213.5C1127.98,-213.5 1178.98,-213.5 1178.98,-213.5 1184.98,-213.5 1190.98,-219.5 1190.98,-225.5 1190.98,-225.5 1190.98,-270.5 1190.98,-270.5 1190.98,-276.5 1184.98,-282.5 1178.98,-282.5 1178.98,-282.5 1127.98,-282.5 1127.98,-282.5 1121.98,-282.5 1115.98,-276.5 1115.98,-270.5 1115.98,-270.5 1115.98,-225.5 1115.98,-225.5 1115.98,-219.5 1121.98,-213.5 1127.98,-213.5"/>
<text text-anchor="middle" x="1153.48" y="-267.3" font-family="Times,serif" font-size="14.00" fill="#d95f02">0:0 &#45; 2:2</text>
<polyline fill="none" stroke="#d95f02" points="1115.98,-259.5 1190.98,-259.5 "/>
<text text-anchor="middle" x="1153.48" y="-244.3" font-family="Times,serif" font-size="14.00" fill="#d95f02">0:0 &#45; 1:1</text>
<polyline fill="none" stroke="#d95f02" points="1115.98,-236.5 1190.98,-236.5 "/>
<text text-anchor="middle" x="1153.48" y="-221.3" font-family="Times,serif" font-size="14.00" fill="#d95f02">0:0 &#45; 0:0</text>
</g>
<!-- c26&#45;&gt;x14 -->
<g id="edge32" class="edge">
<title>c26:e&#45;&gt;x14:w</title>
<path fill="none" stroke="#66a61e" d="M1010.54,-324C1070.72,-324 1053.08,-235.9 1104.45,-225.92"/>
<polygon fill="#66a61e" stroke="#66a61e" points="1104.84,-229.4 1114.48,-225 1104.2,-222.42 1104.84,-229.4"/>
</g>
<!-- x1 -->
<g id="node13" class="node">
<title>x1</title>
<path fill="none" stroke="#666666" d="M665.72,-370.5C665.72,-370.5 716.72,-370.5 716.72,-370.5 722.72,-370.5 728.72,-376.5 728.72,-382.5 728.72,-382.5 728.72,-427.5 728.72,-427.5 728.72,-433.5 722.72,-439.5 716.72,-439.5 716.72,-439.5 665.72,-439.5 665.72,-439.5 659.72,-439.5 653.72,-433.5 653.72,-427.5 653.72,-427.5 653.72,-382.5 653.72,-382.5 653.72,-376.5 659.72,-370.5 665.72,-370.5"/>
<text text-anchor="middle" x="691.22" y="-424.3" font-family="Times,serif" font-size="14.00" fill="#666666">0:0 &#45; 2:2</text>
<polyline fill="none" stroke="#666666" points="653.72,-416.5 728.72,-416.5 "/>
<text text-anchor="middle" x="691.22" y="-401.3" font-family="Times,serif" font-size="14.00" fill="#666666">0:0 &#45; 1:1</text>
<polyline fill="none" stroke="#666666" points="653.72,-393.5 728.72,-393.5 "/>
<text text-anchor="middle" x="691.22" y="-378.3" font-family="Times,serif" font-size="14.00" fill="#666666">0:0 &#45; 0:0</text>
</g>
<!-- x1&#45;&gt;c26 -->
<g id="edge1" class="edge">
<title>x1:e&#45;&gt;c26:w</title>
<path fill="none" stroke="#66a61e" stroke-width="3" d="M742.25,-403.39C761.83,-397.44 763.91,-376.33 786.6,-362 814.06,-344.66 821.83,-328.45 848.39,-324.77"/>
<polygon fill="none" stroke="#66a61e" stroke-width="3" points="742.11,-403.4 736.7,-408.17 730.22,-405 735.63,-400.24 742.11,-403.4"/>
<polygon fill="none" stroke="#66a61e" stroke-width="3" points="848.56,-324.76 854.3,-320.39 860.54,-324 854.81,-328.37 848.56,-324.76"/>
<text text-anchor="middle" x="808.1" y="-365.8" font-family="Times,serif" font-size="14.00" fill="#66a61e">&lt;3&gt;</text>
</g>
<!-- c27 -->
<g id="node14" class="node">
<title>c27</title>
<polygon fill="none" stroke="black" points="861.54,-220 861.54,-258 1009.54,-258 1009.54,-220 861.54,-220"/>
<text text-anchor="middle" x="874.54" y="-235.3" font-family="Times,serif" font-size="14.00">A</text>
<polyline fill="none" stroke="black" points="887.54,-220 887.54,-258 "/>
<text text-anchor="middle" x="935.54" y="-242.8" font-family="Times,serif" font-size="14.00">$32</text>
<text text-anchor="middle" x="935.54" y="-227.8" font-family="Times,serif" font-size="14.00">$reduce_or</text>
<polyline fill="none" stroke="black" points="983.54,-220 983.54,-258 "/>
<text text-anchor="middle" x="996.54" y="-235.3" font-family="Times,serif" font-size="14.00">Y</text>
</g>
<!-- c27&#45;&gt;x14 -->
<g id="edge33" class="edge">
<title>c27:e&#45;&gt;x14:w</title>
<path fill="none" stroke="#a6761d" d="M1010.54,-239C1053.28,-239 1066.14,-246.65 1104.22,-247.84"/>
<polygon fill="#a6761d" stroke="#a6761d" points="1104.42,-251.35 1114.48,-248 1104.53,-244.35 1104.42,-251.35"/>
</g>
<!-- x2 -->
<g id="node15" class="node">
<title>x2</title>
<path fill="none" stroke="#66a61e" d="M665.72,-167C665.72,-167 716.72,-167 716.72,-167 722.72,-167 728.72,-173 728.72,-179 728.72,-179 728.72,-201 728.72,-201 728.72,-207 722.72,-213 716.72,-213 716.72,-213 665.72,-213 665.72,-213 659.72,-213 653.72,-207 653.72,-201 653.72,-201 653.72,-179 653.72,-179 653.72,-173 659.72,-167 665.72,-167"/>
<text text-anchor="middle" x="691.22" y="-197.8" font-family="Times,serif" font-size="14.00" fill="#66a61e">0:0 &#45; 1:1</text>
<polyline fill="none" stroke="#66a61e" points="653.72,-190 728.72,-190 "/>
<text text-anchor="middle" x="691.22" y="-174.8" font-family="Times,serif" font-size="14.00" fill="#66a61e">0:0 &#45; 0:0</text>
</g>
<!-- x2&#45;&gt;c27 -->
<g id="edge2" class="edge">
<title>x2:e&#45;&gt;c27:w</title>
<path fill="none" stroke="#1b9e77" stroke-width="3" d="M742.49,-190.69C789.52,-196.21 801.34,-232.91 848.48,-238.33"/>
<polygon fill="none" stroke="#1b9e77" stroke-width="3" points="742.2,-190.68 735.98,-194.33 730.22,-190 736.43,-186.34 742.2,-190.68"/>
<polygon fill="none" stroke="#1b9e77" stroke-width="3" points="848.56,-238.34 854.77,-234.67 860.54,-239 854.33,-242.66 848.56,-238.34"/>
<text text-anchor="middle" x="808.1" y="-236.8" font-family="Times,serif" font-size="14.00" fill="#1b9e77">&lt;2&gt;</text>
</g>
<!-- c28 -->
<g id="node16" class="node">
<title>c28</title>
<polygon fill="none" stroke="black" points="861.54,-376 861.54,-414 1009.54,-414 1009.54,-376 861.54,-376"/>
<text text-anchor="middle" x="874.54" y="-391.3" font-family="Times,serif" font-size="14.00">A</text>
<polyline fill="none" stroke="black" points="887.54,-376 887.54,-414 "/>
<text text-anchor="middle" x="935.54" y="-398.8" font-family="Times,serif" font-size="14.00">$34</text>
<text text-anchor="middle" x="935.54" y="-383.8" font-family="Times,serif" font-size="14.00">$reduce_or</text>
<polyline fill="none" stroke="black" points="983.54,-376 983.54,-414 "/>
<text text-anchor="middle" x="996.54" y="-391.3" font-family="Times,serif" font-size="14.00">Y</text>
</g>
<!-- c28&#45;&gt;x14 -->
<g id="edge34" class="edge">
<title>c28:e&#45;&gt;x14:w</title>
<path fill="none" stroke="#7570b3" d="M1010.54,-395C1078.8,-395 1046.33,-283.27 1104.36,-271.93"/>
<polygon fill="#7570b3" stroke="#7570b3" points="1104.84,-275.4 1114.48,-271 1104.2,-268.43 1104.84,-275.4"/>
</g>
<!-- x3 -->
<g id="node17" class="node">
<title>x3</title>
<path fill="none" stroke="#1b9e77" d="M665.72,-603C665.72,-603 716.72,-603 716.72,-603 722.72,-603 728.72,-609 728.72,-615 728.72,-615 728.72,-637 728.72,-637 728.72,-643 722.72,-649 716.72,-649 716.72,-649 665.72,-649 665.72,-649 659.72,-649 653.72,-643 653.72,-637 653.72,-637 653.72,-615 653.72,-615 653.72,-609 659.72,-603 665.72,-603"/>
<text text-anchor="middle" x="691.22" y="-633.8" font-family="Times,serif" font-size="14.00" fill="#1b9e77">0:0 &#45; 1:1</text>
<polyline fill="none" stroke="#1b9e77" points="653.72,-626 728.72,-626 "/>
<text text-anchor="middle" x="691.22" y="-610.8" font-family="Times,serif" font-size="14.00" fill="#1b9e77">0:0 &#45; 0:0</text>
</g>
<!-- x3&#45;&gt;c28 -->
<g id="edge3" class="edge">
<title>x3:e&#45;&gt;c28:w</title>
<path fill="none" stroke="#1b9e77" stroke-width="3" d="M742.44,-625.07C836.84,-609.78 753.88,-411.03 848.45,-395.91"/>
<polygon fill="none" stroke="#1b9e77" stroke-width="3" points="742.18,-625.09 736.51,-629.53 730.22,-626 735.9,-621.56 742.18,-625.09"/>
<polygon fill="none" stroke="#1b9e77" stroke-width="3" points="848.57,-395.9 854.26,-391.46 860.54,-395 854.86,-399.44 848.57,-395.9"/>
<text text-anchor="middle" x="808.1" y="-579.8" font-family="Times,serif" font-size="14.00" fill="#1b9e77">&lt;2&gt;</text>
</g>
<!-- c32&#45;&gt;n21 -->
<g id="edge30" class="edge">
<title>c32:e&#45;&gt;n21:w</title>
<path fill="none" stroke="#1b9e77" stroke-width="3" d="M1617.48,-228C1648.88,-228 1659.22,-228 1686.18,-228"/>
<polygon fill="#1b9e77" stroke="#1b9e77" stroke-width="3" points="1686.48,-231.5 1696.48,-228 1686.48,-224.5 1686.48,-231.5"/>
<text text-anchor="middle" x="1656.98" y="-231.8" font-family="Times,serif" font-size="14.00" fill="#1b9e77">&lt;32&gt;</text>
</g>
<!-- v5 -->
<g id="node19" class="node">
<title>v5</title>
<ellipse fill="none" stroke="black" cx="300.04" cy="-41" rx="59.59" ry="18"/>
<text text-anchor="middle" x="300.04" y="-37.3" font-family="Times,serif" font-size="14.00">7&#39;1100111</text>
</g>
<!-- c33 -->
<g id="node20" class="node">
<title>c33</title>
<polygon fill="none" stroke="black" points="429.83,-61 429.83,-107 576.83,-107 576.83,-61 429.83,-61"/>
<text text-anchor="middle" x="443.33" y="-91.8" font-family="Times,serif" font-size="14.00">A</text>
<polyline fill="none" stroke="black" points="429.83,-84 456.83,-84 "/>
<text text-anchor="middle" x="443.33" y="-68.8" font-family="Times,serif" font-size="14.00">B</text>
<polyline fill="none" stroke="black" points="456.83,-61 456.83,-107 "/>
<text text-anchor="middle" x="503.83" y="-87.8" font-family="Times,serif" font-size="14.00">$10_CMP0</text>
<text text-anchor="middle" x="503.83" y="-72.8" font-family="Times,serif" font-size="14.00">$eq</text>
<polyline fill="none" stroke="black" points="550.83,-61 550.83,-107 "/>
<text text-anchor="middle" x="563.83" y="-80.3" font-family="Times,serif" font-size="14.00">Y</text>
</g>
<!-- v5&#45;&gt;c33 -->
<g id="edge45" class="edge">
<title>v5:e&#45;&gt;c33:w</title>
<path fill="none" stroke="#a6761d" stroke-width="3" d="M359.83,-41C390.14,-41 395,-65.59 419.74,-70.97"/>
<polygon fill="#a6761d" stroke="#a6761d" stroke-width="3" points="419.53,-74.47 429.83,-72 420.24,-67.5 419.53,-74.47"/>
<text text-anchor="middle" x="394.83" y="-72.8" font-family="Times,serif" font-size="14.00" fill="#a6761d">&lt;7&gt;</text>
</g>
<!-- c33&#45;&gt;x2 -->
<g id="edge35" class="edge">
<title>c33:e&#45;&gt;x2:w</title>
<path fill="none" stroke="#e6ab02" d="M576.83,-84C613.21,-84 588.52,-130.88 613.83,-157 624.62,-168.13 630.24,-174.86 641.92,-177.13"/>
<polygon fill="#e6ab02" stroke="#e6ab02" points="641.96,-180.65 652.22,-178 642.55,-173.67 641.96,-180.65"/>
</g>
<!-- x4&#45;&gt;c33 -->
<g id="edge4" class="edge">
<title>x4:e&#45;&gt;c33:w</title>
<path fill="none" stroke="#7570b3" stroke-width="3" d="M351.27,-96C378.25,-96 390.73,-96 417.76,-96"/>
<polygon fill="none" stroke="#7570b3" stroke-width="3" points="351.04,-96 345.04,-100 339.04,-96 345.04,-92 351.04,-96"/>
<polygon fill="none" stroke="#7570b3" stroke-width="3" points="417.83,-96 423.83,-92 429.83,-96 423.83,-100 417.83,-96"/>
<text text-anchor="middle" x="394.83" y="-99.8" font-family="Times,serif" font-size="14.00" fill="#7570b3">&lt;7&gt;</text>
</g>
<!-- v7 -->
<g id="node22" class="node">
<title>v7</title>
<ellipse fill="none" stroke="black" cx="300.04" cy="-151" rx="59.59" ry="18"/>
<text text-anchor="middle" x="300.04" y="-147.3" font-family="Times,serif" font-size="14.00">7&#39;1101111</text>
</g>
<!-- c34 -->
<g id="node23" class="node">
<title>c34</title>
<polygon fill="none" stroke="black" points="429.83,-171 429.83,-217 576.83,-217 576.83,-171 429.83,-171"/>
<text text-anchor="middle" x="443.33" y="-201.8" font-family="Times,serif" font-size="14.00">A</text>
<polyline fill="none" stroke="black" points="429.83,-194 456.83,-194 "/>
<text text-anchor="middle" x="443.33" y="-178.8" font-family="Times,serif" font-size="14.00">B</text>
<polyline fill="none" stroke="black" points="456.83,-171 456.83,-217 "/>
<text text-anchor="middle" x="503.83" y="-197.8" font-family="Times,serif" font-size="14.00">$11_CMP0</text>
<text text-anchor="middle" x="503.83" y="-182.8" font-family="Times,serif" font-size="14.00">$eq</text>
<polyline fill="none" stroke="black" points="550.83,-171 550.83,-217 "/>
<text text-anchor="middle" x="563.83" y="-190.3" font-family="Times,serif" font-size="14.00">Y</text>
</g>
<!-- v7&#45;&gt;c34 -->
<g id="edge46" class="edge">
<title>v7:e&#45;&gt;c34:w</title>
<path fill="none" stroke="#7570b3" stroke-width="3" d="M359.83,-151C390.14,-151 395,-175.59 419.74,-180.97"/>
<polygon fill="#7570b3" stroke="#7570b3" stroke-width="3" points="419.53,-184.47 429.83,-182 420.24,-177.5 419.53,-184.47"/>
<text text-anchor="middle" x="394.83" y="-181.8" font-family="Times,serif" font-size="14.00" fill="#7570b3">&lt;7&gt;</text>
</g>
<!-- c34&#45;&gt;x2 -->
<g id="edge36" class="edge">
<title>c34:e&#45;&gt;x2:w</title>
<path fill="none" stroke="#7570b3" d="M576.83,-194C606.84,-194 616.47,-200.35 642.02,-201.73"/>
<polygon fill="#7570b3" stroke="#7570b3" points="642.13,-205.24 652.22,-202 642.31,-198.24 642.13,-205.24"/>
</g>
<!-- x6&#45;&gt;c34 -->
<g id="edge5" class="edge">
<title>x6:e&#45;&gt;c34:w</title>
<path fill="none" stroke="#e7298a" stroke-width="3" d="M351.27,-206C378.25,-206 390.73,-206 417.76,-206"/>
<polygon fill="none" stroke="#e7298a" stroke-width="3" points="351.04,-206 345.04,-210 339.04,-206 345.04,-202 351.04,-206"/>
<polygon fill="none" stroke="#e7298a" stroke-width="3" points="417.83,-206 423.83,-202 429.83,-206 423.83,-210 417.83,-206"/>
<text text-anchor="middle" x="394.83" y="-209.8" font-family="Times,serif" font-size="14.00" fill="#e7298a">&lt;7&gt;</text>
</g>
<!-- v9 -->
<g id="node25" class="node">
<title>v9</title>
<ellipse fill="none" stroke="black" cx="300.04" cy="-591" rx="59.59" ry="18"/>
<text text-anchor="middle" x="300.04" y="-587.3" font-family="Times,serif" font-size="14.00">7&#39;0010111</text>
</g>
<!-- c35 -->
<g id="node26" class="node">
<title>c35</title>
<polygon fill="none" stroke="black" points="429.83,-591 429.83,-637 576.83,-637 576.83,-591 429.83,-591"/>
<text text-anchor="middle" x="443.33" y="-621.8" font-family="Times,serif" font-size="14.00">A</text>
<polyline fill="none" stroke="black" points="429.83,-614 456.83,-614 "/>
<text text-anchor="middle" x="443.33" y="-598.8" font-family="Times,serif" font-size="14.00">B</text>
<polyline fill="none" stroke="black" points="456.83,-591 456.83,-637 "/>
<text text-anchor="middle" x="503.83" y="-617.8" font-family="Times,serif" font-size="14.00">$12_CMP0</text>
<text text-anchor="middle" x="503.83" y="-602.8" font-family="Times,serif" font-size="14.00">$eq</text>
<polyline fill="none" stroke="black" points="550.83,-591 550.83,-637 "/>
<text text-anchor="middle" x="563.83" y="-610.3" font-family="Times,serif" font-size="14.00">Y</text>
</g>
<!-- v9&#45;&gt;c35 -->
<g id="edge47" class="edge">
<title>v9:e&#45;&gt;c35:w</title>
<path fill="none" stroke="#66a61e" stroke-width="3" d="M359.83,-591C387.64,-591 396.36,-599.57 419.69,-601.58"/>
<polygon fill="#66a61e" stroke="#66a61e" stroke-width="3" points="419.7,-605.09 429.83,-602 419.99,-598.09 419.7,-605.09"/>
<text text-anchor="middle" x="394.83" y="-603.8" font-family="Times,serif" font-size="14.00" fill="#66a61e">&lt;7&gt;</text>
</g>
<!-- c35&#45;&gt;x3 -->
<g id="edge37" class="edge">
<title>c35:e&#45;&gt;x3:w</title>
<path fill="none" stroke="#d95f02" d="M576.83,-614C606.67,-614 616.58,-614 642.06,-614"/>
<polygon fill="#d95f02" stroke="#d95f02" points="642.22,-617.5 652.22,-614 642.22,-610.5 642.22,-617.5"/>
</g>
<!-- x8&#45;&gt;c35 -->
<g id="edge6" class="edge">
<title>x8:e&#45;&gt;c35:w</title>
<path fill="none" stroke="#e7298a" stroke-width="3" d="M351.08,-645.38C378.65,-642.41 390.04,-629.69 417.49,-626.65"/>
<polygon fill="none" stroke="#e7298a" stroke-width="3" points="351.02,-645.38 345.24,-649.69 339.04,-646 344.83,-641.7 351.02,-645.38"/>
<polygon fill="none" stroke="#e7298a" stroke-width="3" points="417.85,-626.63 423.63,-622.32 429.83,-626 424.05,-630.31 417.85,-626.63"/>
<text text-anchor="middle" x="394.83" y="-641.8" font-family="Times,serif" font-size="14.00" fill="#e7298a">&lt;7&gt;</text>
</g>
<!-- v11 -->
<g id="node28" class="node">
<title>v11</title>
<ellipse fill="none" stroke="black" cx="300.04" cy="-701" rx="59.59" ry="18"/>
<text text-anchor="middle" x="300.04" y="-697.3" font-family="Times,serif" font-size="14.00">7&#39;0110111</text>
</g>
<!-- c36 -->
<g id="node29" class="node">
<title>c36</title>
<polygon fill="none" stroke="black" points="429.83,-690 429.83,-736 576.83,-736 576.83,-690 429.83,-690"/>
<text text-anchor="middle" x="443.33" y="-720.8" font-family="Times,serif" font-size="14.00">A</text>
<polyline fill="none" stroke="black" points="429.83,-713 456.83,-713 "/>
<text text-anchor="middle" x="443.33" y="-697.8" font-family="Times,serif" font-size="14.00">B</text>
<polyline fill="none" stroke="black" points="456.83,-690 456.83,-736 "/>
<text text-anchor="middle" x="503.83" y="-716.8" font-family="Times,serif" font-size="14.00">$13_CMP0</text>
<text text-anchor="middle" x="503.83" y="-701.8" font-family="Times,serif" font-size="14.00">$eq</text>
<polyline fill="none" stroke="black" points="550.83,-690 550.83,-736 "/>
<text text-anchor="middle" x="563.83" y="-709.3" font-family="Times,serif" font-size="14.00">Y</text>
</g>
<!-- v11&#45;&gt;c36 -->
<g id="edge40" class="edge">
<title>v11:e&#45;&gt;c36:w</title>
<path fill="none" stroke="#1b9e77" stroke-width="3" d="M359.83,-701C387.3,-701 396.58,-701 419.78,-701"/>
<polygon fill="#1b9e77" stroke="#1b9e77" stroke-width="3" points="419.83,-704.5 429.83,-701 419.83,-697.5 419.83,-704.5"/>
<text text-anchor="middle" x="394.83" y="-704.8" font-family="Times,serif" font-size="14.00" fill="#1b9e77">&lt;7&gt;</text>
</g>
<!-- c36&#45;&gt;x3 -->
<g id="edge38" class="edge">
<title>c36:e&#45;&gt;x3:w</title>
<path fill="none" stroke="#d95f02" d="M576.83,-713C620.4,-713 607.54,-649.26 642.29,-639.3"/>
<polygon fill="#d95f02" stroke="#d95f02" points="642.76,-642.77 652.22,-638 641.85,-635.83 642.76,-642.77"/>
</g>
<!-- x10&#45;&gt;c36 -->
<g id="edge7" class="edge">
<title>x10:e&#45;&gt;c36:w</title>
<path fill="none" stroke="#7570b3" stroke-width="3" d="M351.38,-755.04C379.52,-750.42 389.39,-730.55 417.56,-725.95"/>
<polygon fill="none" stroke="#7570b3" stroke-width="3" points="351,-755.07 345.33,-759.52 339.04,-756 344.71,-751.55 351,-755.07"/>
<polygon fill="none" stroke="#7570b3" stroke-width="3" points="417.87,-725.93 423.54,-721.48 429.83,-725 424.16,-729.45 417.87,-725.93"/>
<text text-anchor="middle" x="394.83" y="-747.8" font-family="Times,serif" font-size="14.00" fill="#7570b3">&lt;7&gt;</text>
</g>
<!-- v12 -->
<g id="node31" class="node">
<title>v12</title>
<ellipse fill="none" stroke="black" cx="1153.48" cy="-321" rx="27" ry="18"/>
<text text-anchor="middle" x="1153.48" y="-317.3" font-family="Times,serif" font-size="14.00">0</text>
</g>
<!-- c38 -->
<g id="node32" class="node">
<title>c38</title>
<polygon fill="none" stroke="black" points="1283.48,-248.5 1283.48,-317.5 1401.48,-317.5 1401.48,-248.5 1283.48,-248.5"/>
<text text-anchor="middle" x="1296.98" y="-302.3" font-family="Times,serif" font-size="14.00">A</text>
<polyline fill="none" stroke="black" points="1283.48,-294.5 1310.48,-294.5 "/>
<text text-anchor="middle" x="1296.98" y="-279.3" font-family="Times,serif" font-size="14.00">B</text>
<polyline fill="none" stroke="black" points="1283.48,-271.5 1310.48,-271.5 "/>
<text text-anchor="middle" x="1296.98" y="-256.3" font-family="Times,serif" font-size="14.00">S</text>
<polyline fill="none" stroke="black" points="1310.48,-248.5 1310.48,-317.5 "/>
<text text-anchor="middle" x="1342.98" y="-286.8" font-family="Times,serif" font-size="14.00">$6</text>
<text text-anchor="middle" x="1342.98" y="-271.8" font-family="Times,serif" font-size="14.00">$pmux</text>
<polyline fill="none" stroke="black" points="1375.48,-248.5 1375.48,-317.5 "/>
<text text-anchor="middle" x="1388.48" y="-279.3" font-family="Times,serif" font-size="14.00">Y</text>
</g>
<!-- v12&#45;&gt;c38 -->
<g id="edge41" class="edge">
<title>v12:e&#45;&gt;c38:w</title>
<path fill="none" stroke="#66a61e" stroke-width="3" d="M1181.48,-321C1223.72,-321 1235.82,-308.25 1273.35,-306.26"/>
<polygon fill="#66a61e" stroke="#66a61e" stroke-width="3" points="1273.57,-309.76 1283.48,-306 1273.39,-302.76 1273.57,-309.76"/>
<text text-anchor="middle" x="1243.98" y="-318.8" font-family="Times,serif" font-size="14.00" fill="#66a61e">&lt;32&gt;</text>
</g>
<!-- c38&#45;&gt;c32 -->
<g id="edge13" class="edge">
<title>c38:e&#45;&gt;c32:w</title>
<path fill="none" stroke="#d95f02" stroke-width="3" d="M1401.48,-283C1437.7,-283 1440.32,-247.68 1470.24,-241.06"/>
<polygon fill="#d95f02" stroke="#d95f02" stroke-width="3" points="1470.89,-244.51 1480.48,-240 1470.17,-237.55 1470.89,-244.51"/>
<text text-anchor="middle" x="1440.98" y="-282.8" font-family="Times,serif" font-size="14.00" fill="#d95f02">&lt;32&gt;</text>
</g>
<!-- x13&#45;&gt;c38 -->
<g id="edge8" class="edge">
<title>x13:e&#45;&gt;c38:w</title>
<path fill="none" stroke="#d95f02" stroke-width="3" d="M1213.9,-152.62C1223.3,-175.72 1208.74,-244.33 1222.48,-261 1238.01,-279.85 1250.33,-282.55 1271.28,-282.94"/>
<polygon fill="none" stroke="#d95f02" stroke-width="3" points="1213.8,-152.55 1206.62,-151.88 1204.48,-145 1211.66,-145.67 1213.8,-152.55"/>
<polygon fill="none" stroke="#d95f02" stroke-width="3" points="1271.48,-282.94 1277.5,-278.97 1283.48,-283 1277.46,-286.97 1271.48,-282.94"/>
<text text-anchor="middle" x="1243.98" y="-285.8" font-family="Times,serif" font-size="14.00" fill="#d95f02">&lt;96&gt;</text>
</g>
<!-- x14&#45;&gt;c38 -->
<g id="edge9" class="edge">
<title>x14:e&#45;&gt;c38:w</title>
<path fill="none" stroke="#1b9e77" stroke-width="3" d="M1204.63,-247.39C1228.01,-245 1238.97,-236.91 1265.48,-246 1269.67,-247.44 1271.7,-250.3 1273.5,-253.06"/>
<polygon fill="none" stroke="#1b9e77" stroke-width="3" points="1204.46,-247.4 1198.67,-251.69 1192.48,-248 1198.27,-243.7 1204.46,-247.4"/>
<polygon fill="none" stroke="#1b9e77" stroke-width="3" points="1273.63,-253.15 1280.84,-253.29 1283.48,-260 1276.27,-259.86 1273.63,-253.15"/>
<text text-anchor="middle" x="1243.98" y="-249.8" font-family="Times,serif" font-size="14.00" fill="#1b9e77">&lt;3&gt;</text>
</g>
<!-- v16 -->
<g id="node35" class="node">
<title>v16</title>
<ellipse fill="none" stroke="black" cx="300.04" cy="-371" rx="59.59" ry="18"/>
<text text-anchor="middle" x="300.04" y="-367.3" font-family="Times,serif" font-size="14.00">7&#39;0010011</text>
</g>
<!-- c39 -->
<g id="node36" class="node">
<title>c39</title>
<polygon fill="none" stroke="black" points="434.33,-360 434.33,-406 572.33,-406 572.33,-360 434.33,-360"/>
<text text-anchor="middle" x="447.83" y="-390.8" font-family="Times,serif" font-size="14.00">A</text>
<polyline fill="none" stroke="black" points="434.33,-383 461.33,-383 "/>
<text text-anchor="middle" x="447.83" y="-367.8" font-family="Times,serif" font-size="14.00">B</text>
<polyline fill="none" stroke="black" points="461.33,-360 461.33,-406 "/>
<text text-anchor="middle" x="503.83" y="-386.8" font-family="Times,serif" font-size="14.00">$7_CMP0</text>
<text text-anchor="middle" x="503.83" y="-371.8" font-family="Times,serif" font-size="14.00">$eq</text>
<polyline fill="none" stroke="black" points="546.33,-360 546.33,-406 "/>
<text text-anchor="middle" x="559.33" y="-379.3" font-family="Times,serif" font-size="14.00">Y</text>
</g>
<!-- v16&#45;&gt;c39 -->
<g id="edge42" class="edge">
<title>v16:e&#45;&gt;c39:w</title>
<path fill="none" stroke="#1b9e77" stroke-width="3" d="M359.83,-371C388.8,-371 398.5,-371 423.1,-371"/>
<polygon fill="#1b9e77" stroke="#1b9e77" stroke-width="3" points="423.33,-374.5 433.33,-371 423.33,-367.5 423.33,-374.5"/>
<text text-anchor="middle" x="394.83" y="-374.8" font-family="Times,serif" font-size="14.00" fill="#1b9e77">&lt;7&gt;</text>
</g>
<!-- c39&#45;&gt;x1 -->
<g id="edge14" class="edge">
<title>c39:e&#45;&gt;x1:w</title>
<path fill="none" stroke="#d95f02" d="M573.33,-383C604.7,-383 615.02,-382.2 641.94,-382.03"/>
<polygon fill="#d95f02" stroke="#d95f02" points="642.23,-385.53 652.22,-382 642.21,-378.53 642.23,-385.53"/>
</g>
<!-- x15&#45;&gt;c39 -->
<g id="edge10" class="edge">
<title>x15:e&#45;&gt;c39:w</title>
<path fill="none" stroke="#1b9e77" stroke-width="3" d="M351.38,-425.11C381.13,-420.58 391.46,-400.24 421.36,-395.84"/>
<polygon fill="none" stroke="#1b9e77" stroke-width="3" points="351.01,-425.13 345.31,-429.56 339.04,-426 344.74,-421.58 351.01,-425.13"/>
<polygon fill="none" stroke="#1b9e77" stroke-width="3" points="421.36,-395.84 427.07,-391.43 433.33,-395 427.63,-399.41 421.36,-395.84"/>
<text text-anchor="middle" x="394.83" y="-418.8" font-family="Times,serif" font-size="14.00" fill="#1b9e77">&lt;7&gt;</text>
</g>
<!-- v18 -->
<g id="node38" class="node">
<title>v18</title>
<ellipse fill="none" stroke="black" cx="300.04" cy="-261" rx="59.59" ry="18"/>
<text text-anchor="middle" x="300.04" y="-257.3" font-family="Times,serif" font-size="14.00">7&#39;0110011</text>
</g>
<!-- c40 -->
<g id="node39" class="node">
<title>c40</title>
<polygon fill="none" stroke="black" points="434.33,-281 434.33,-327 572.33,-327 572.33,-281 434.33,-281"/>
<text text-anchor="middle" x="447.83" y="-311.8" font-family="Times,serif" font-size="14.00">A</text>
<polyline fill="none" stroke="black" points="434.33,-304 461.33,-304 "/>
<text text-anchor="middle" x="447.83" y="-288.8" font-family="Times,serif" font-size="14.00">B</text>
<polyline fill="none" stroke="black" points="461.33,-281 461.33,-327 "/>
<text text-anchor="middle" x="503.83" y="-307.8" font-family="Times,serif" font-size="14.00">$8_CMP0</text>
<text text-anchor="middle" x="503.83" y="-292.8" font-family="Times,serif" font-size="14.00">$eq</text>
<polyline fill="none" stroke="black" points="546.33,-281 546.33,-327 "/>
<text text-anchor="middle" x="559.33" y="-300.3" font-family="Times,serif" font-size="14.00">Y</text>
</g>
<!-- v18&#45;&gt;c40 -->
<g id="edge43" class="edge">
<title>v18:e&#45;&gt;c40:w</title>
<path fill="none" stroke="#e7298a" stroke-width="3" d="M359.83,-261C391.55,-261 396.97,-285.81 423.14,-291.04"/>
<polygon fill="#e7298a" stroke="#e7298a" stroke-width="3" points="423.05,-294.55 433.33,-292 423.71,-287.58 423.05,-294.55"/>
<text text-anchor="middle" x="394.83" y="-289.8" font-family="Times,serif" font-size="14.00" fill="#e7298a">&lt;7&gt;</text>
</g>
<!-- c40&#45;&gt;x1 -->
<g id="edge15" class="edge">
<title>c40:e&#45;&gt;x1:w</title>
<path fill="none" stroke="#d95f02" d="M573.33,-304C626.51,-304 599.51,-392.03 642.03,-403.72"/>
<polygon fill="#d95f02" stroke="#d95f02" points="641.86,-407.23 652.22,-405 642.73,-400.28 641.86,-407.23"/>
</g>
<!-- x17&#45;&gt;c40 -->
<g id="edge11" class="edge">
<title>x17:e&#45;&gt;c40:w</title>
<path fill="none" stroke="#e6ab02" stroke-width="3" d="M351.32,-316C379.74,-316 392.68,-316 421.12,-316"/>
<polygon fill="none" stroke="#e6ab02" stroke-width="3" points="351.04,-316 345.04,-320 339.04,-316 345.04,-312 351.04,-316"/>
<polygon fill="none" stroke="#e6ab02" stroke-width="3" points="421.33,-316 427.33,-312 433.33,-316 427.33,-320 421.33,-316"/>
<text text-anchor="middle" x="394.83" y="-319.8" font-family="Times,serif" font-size="14.00" fill="#e6ab02">&lt;7&gt;</text>
</g>
<!-- v20 -->
<g id="node41" class="node">
<title>v20</title>
<ellipse fill="none" stroke="black" cx="300.04" cy="-481" rx="59.59" ry="18"/>
<text text-anchor="middle" x="300.04" y="-477.3" font-family="Times,serif" font-size="14.00">7&#39;0000011</text>
</g>
<!-- c41 -->
<g id="node42" class="node">
<title>c41</title>
<polygon fill="none" stroke="black" points="434.33,-470 434.33,-516 572.33,-516 572.33,-470 434.33,-470"/>
<text text-anchor="middle" x="447.83" y="-500.8" font-family="Times,serif" font-size="14.00">A</text>
<polyline fill="none" stroke="black" points="434.33,-493 461.33,-493 "/>
<text text-anchor="middle" x="447.83" y="-477.8" font-family="Times,serif" font-size="14.00">B</text>
<polyline fill="none" stroke="black" points="461.33,-470 461.33,-516 "/>
<text text-anchor="middle" x="503.83" y="-496.8" font-family="Times,serif" font-size="14.00">$9_CMP0</text>
<text text-anchor="middle" x="503.83" y="-481.8" font-family="Times,serif" font-size="14.00">$eq</text>
<polyline fill="none" stroke="black" points="546.33,-470 546.33,-516 "/>
<text text-anchor="middle" x="559.33" y="-489.3" font-family="Times,serif" font-size="14.00">Y</text>
</g>
<!-- v20&#45;&gt;c41 -->
<g id="edge44" class="edge">
<title>v20:e&#45;&gt;c41:w</title>
<path fill="none" stroke="#666666" stroke-width="3" d="M359.83,-481C388.8,-481 398.5,-481 423.1,-481"/>
<polygon fill="#666666" stroke="#666666" stroke-width="3" points="423.33,-484.5 433.33,-481 423.33,-477.5 423.33,-484.5"/>
<text text-anchor="middle" x="394.83" y="-484.8" font-family="Times,serif" font-size="14.00" fill="#666666">&lt;7&gt;</text>
</g>
<!-- c41&#45;&gt;x1 -->
<g id="edge16" class="edge">
<title>c41:e&#45;&gt;x1:w</title>
<path fill="none" stroke="#1b9e77" d="M573.33,-493C615.04,-493 608.37,-438.23 642.13,-429.24"/>
<polygon fill="#1b9e77" stroke="#1b9e77" points="642.72,-432.69 652.22,-428 641.87,-425.75 642.72,-432.69"/>
</g>
<!-- x19&#45;&gt;c41 -->
<g id="edge12" class="edge">
<title>x19:e&#45;&gt;c41:w</title>
<path fill="none" stroke="#e6ab02" stroke-width="3" d="M351.38,-535.11C381.13,-530.58 391.46,-510.24 421.36,-505.84"/>
<polygon fill="none" stroke="#e6ab02" stroke-width="3" points="351.01,-535.13 345.31,-539.56 339.04,-536 344.74,-531.58 351.01,-535.13"/>
<polygon fill="none" stroke="#e6ab02" stroke-width="3" points="421.36,-505.84 427.07,-501.43 433.33,-505 427.63,-509.41 421.36,-505.84"/>
<text text-anchor="middle" x="394.83" y="-528.8" font-family="Times,serif" font-size="14.00" fill="#e6ab02">&lt;7&gt;</text>
</g>
<!-- x21&#45;&gt;n19 -->
<g id="edge27" class="edge">
<title>x21:e&#45;&gt;n19:w</title>
<path fill="none" stroke="#7570b3" stroke-width="3" d="M2086.84,-228C2118.25,-228 2128.58,-228 2155.55,-228"/>
<polygon fill="#7570b3" stroke="#7570b3" stroke-width="3" points="2155.84,-231.5 2165.84,-228 2155.84,-224.5 2155.84,-231.5"/>
<text text-anchor="middle" x="2126.34" y="-231.8" font-family="Times,serif" font-size="14.00" fill="#7570b3">&lt;32&gt;</text>
</g>
</g>
</svg>
