<?xml version="1.0" encoding="UTF-8" standalone="no"?>
<!DOCTYPE svg PUBLIC "-//W3C//DTD SVG 1.1//EN"
 "http://www.w3.org/Graphics/SVG/1.1/DTD/svg11.dtd">
<!-- Generated by graphviz version 2.43.0 (0)
 -->
<!-- Title: AHB_interconnect Pages: 1 -->
<svg width="2386pt" height="483pt"
 viewBox="0.00 0.00 2385.62 483.00" xmlns="http://www.w3.org/2000/svg" xmlns:xlink="http://www.w3.org/1999/xlink">
<g id="graph0" class="graph" transform="scale(1 1) rotate(0) translate(4 479)">
<title>AHB_interconnect</title>
<polygon fill="white" stroke="transparent" points="-4,4 -4,-479 2381.62,-479 2381.62,4 -4,4"/>
<text text-anchor="middle" x="1188.81" y="-7.8" font-family="Times,serif" font-size="14.00">AHB_interconnect</text>
<!-- n1 -->
<g id="node1" class="node">
<title>n1</title>
<polygon fill="none" stroke="black" points="111.8,-83.54 111.8,-98.46 82.57,-109 41.24,-109 12.01,-98.46 12.01,-83.54 41.24,-73 82.57,-73 111.8,-83.54"/>
<text text-anchor="middle" x="61.91" y="-87.3" font-family="Times,serif" font-size="14.00">HADDR</text>
</g>
<!-- c14 -->
<g id="node14" class="node">
<title>c14</title>
<polygon fill="none" stroke="black" points="202.81,-56 202.81,-102 980.81,-102 980.81,-56 202.81,-56"/>
<text text-anchor="middle" x="246.81" y="-86.8" font-family="Times,serif" font-size="14.00">HADDR</text>
<polyline fill="none" stroke="black" points="202.81,-79 290.81,-79 "/>
<text text-anchor="middle" x="246.81" y="-63.8" font-family="Times,serif" font-size="14.00">HRESETn</text>
<polyline fill="none" stroke="black" points="290.81,-56 290.81,-102 "/>
<text text-anchor="middle" x="606.81" y="-82.8" font-family="Times,serif" font-size="14.00">u_AHB_decoder</text>
<text text-anchor="middle" x="606.81" y="-67.8" font-family="Times,serif" font-size="14.00">$paramod╲AHB_decoder╲ADDR_WIDTH=s32&#39;00000000000000000000000000100000</text>
<polyline fill="none" stroke="black" points="922.81,-56 922.81,-102 "/>
<text text-anchor="middle" x="951.81" y="-75.3" font-family="Times,serif" font-size="14.00">HSEL</text>
</g>
<!-- n1&#45;&gt;c14 -->
<g id="edge1" class="edge">
<title>n1:e&#45;&gt;c14:w</title>
<path fill="none" stroke="#66a61e" stroke-width="3" d="M112.91,-91C149.28,-91 160.82,-91 192.73,-91"/>
<polygon fill="#66a61e" stroke="#66a61e" stroke-width="3" points="192.81,-94.5 202.81,-91 192.81,-87.5 192.81,-94.5"/>
<text text-anchor="middle" x="163.31" y="-94.8" font-family="Times,serif" font-size="14.00" fill="#66a61e">&lt;32&gt;</text>
</g>
<!-- n2 -->
<g id="node2" class="node">
<title>n2</title>
<polygon fill="none" stroke="black" points="1177.45,-449.54 1177.45,-464.46 1153.13,-475 1118.74,-475 1094.43,-464.46 1094.43,-449.54 1118.74,-439 1153.13,-439 1177.45,-449.54"/>
<text text-anchor="middle" x="1135.94" y="-453.3" font-family="Times,serif" font-size="14.00">HCLK</text>
</g>
<!-- c16 -->
<g id="node15" class="node">
<title>c16</title>
<polygon fill="none" stroke="black" points="1300.06,-137.5 1300.06,-344.5 2186.06,-344.5 2186.06,-137.5 1300.06,-137.5"/>
<text text-anchor="middle" x="1360.56" y="-329.3" font-family="Times,serif" font-size="14.00">HCLK</text>
<polyline fill="none" stroke="black" points="1300.06,-321.5 1421.06,-321.5 "/>
<text text-anchor="middle" x="1360.56" y="-306.3" font-family="Times,serif" font-size="14.00">HRDATA0</text>
<polyline fill="none" stroke="black" points="1300.06,-298.5 1421.06,-298.5 "/>
<text text-anchor="middle" x="1360.56" y="-283.3" font-family="Times,serif" font-size="14.00">HRDATA1</text>
<polyline fill="none" stroke="black" points="1300.06,-275.5 1421.06,-275.5 "/>
<text text-anchor="middle" x="1360.56" y="-260.3" font-family="Times,serif" font-size="14.00">HREADYOUT0</text>
<polyline fill="none" stroke="black" points="1300.06,-252.5 1421.06,-252.5 "/>
<text text-anchor="middle" x="1360.56" y="-237.3" font-family="Times,serif" font-size="14.00">HREADYOUT1</text>
<polyline fill="none" stroke="black" points="1300.06,-229.5 1421.06,-229.5 "/>
<text text-anchor="middle" x="1360.56" y="-214.3" font-family="Times,serif" font-size="14.00">HRESETn</text>
<polyline fill="none" stroke="black" points="1300.06,-206.5 1421.06,-206.5 "/>
<text text-anchor="middle" x="1360.56" y="-191.3" font-family="Times,serif" font-size="14.00">HRESP0</text>
<polyline fill="none" stroke="black" points="1300.06,-183.5 1421.06,-183.5 "/>
<text text-anchor="middle" x="1360.56" y="-168.3" font-family="Times,serif" font-size="14.00">HRESP1</text>
<polyline fill="none" stroke="black" points="1300.06,-160.5 1421.06,-160.5 "/>
<text text-anchor="middle" x="1360.56" y="-145.3" font-family="Times,serif" font-size="14.00">HSEL</text>
<polyline fill="none" stroke="black" points="1421.06,-137.5 1421.06,-344.5 "/>
<text text-anchor="middle" x="1747.56" y="-244.8" font-family="Times,serif" font-size="14.00">u_AHB_multiplexor</text>
<text text-anchor="middle" x="1747.56" y="-229.8" font-family="Times,serif" font-size="14.00">$paramod╲AHB_multiplexor╲DATA_WIDTH=s32&#39;00000000000000000000000000100000</text>
<polyline fill="none" stroke="black" points="2074.06,-137.5 2074.06,-344.5 "/>
<text text-anchor="middle" x="2130.06" y="-306.3" font-family="Times,serif" font-size="14.00">HRDATA</text>
<polyline fill="none" stroke="black" points="2074.06,-275.5 2186.06,-275.5 "/>
<text text-anchor="middle" x="2130.06" y="-237.3" font-family="Times,serif" font-size="14.00">HREADYOUT</text>
<polyline fill="none" stroke="black" points="2074.06,-206.5 2186.06,-206.5 "/>
<text text-anchor="middle" x="2130.06" y="-168.3" font-family="Times,serif" font-size="14.00">HRESP</text>
</g>
<!-- n2&#45;&gt;c16 -->
<g id="edge7" class="edge">
<title>n2:e&#45;&gt;c16:w</title>
<path fill="none" stroke="#e7298a" d="M1178.94,-457C1229.31,-457 1250.14,-448.96 1282.06,-410 1301.55,-386.21 1273.81,-345.1 1290.11,-335.19"/>
<polygon fill="#e7298a" stroke="#e7298a" points="1291.05,-338.57 1300.06,-333 1289.54,-331.73 1291.05,-338.57"/>
</g>
<!-- n3 -->
<g id="node3" class="node">
<title>n3</title>
<polygon fill="none" stroke="black" points="2375.68,-302.54 2375.68,-317.46 2343.85,-328 2298.83,-328 2267,-317.46 2267,-302.54 2298.83,-292 2343.85,-292 2375.68,-302.54"/>
<text text-anchor="middle" x="2321.34" y="-306.3" font-family="Times,serif" font-size="14.00">HRDATA</text>
</g>
<!-- n4 -->
<g id="node4" class="node">
<title>n4</title>
<polygon fill="none" stroke="black" points="1196.44,-395.54 1196.44,-410.46 1161,-421 1110.88,-421 1075.44,-410.46 1075.44,-395.54 1110.88,-385 1161,-385 1196.44,-395.54"/>
<text text-anchor="middle" x="1135.94" y="-399.3" font-family="Times,serif" font-size="14.00">HRDATA0</text>
</g>
<!-- n4&#45;&gt;c16 -->
<g id="edge9" class="edge">
<title>n4:e&#45;&gt;c16:w</title>
<path fill="none" stroke="#d95f02" stroke-width="3" d="M1197.94,-403C1243.6,-403 1251.84,-378.24 1282.06,-344 1290.01,-334.99 1287.23,-321.84 1290.82,-314.83"/>
<polygon fill="#d95f02" stroke="#d95f02" stroke-width="3" points="1292.82,-317.73 1300.06,-310 1289.58,-311.53 1292.82,-317.73"/>
<text text-anchor="middle" x="1260.56" y="-394.8" font-family="Times,serif" font-size="14.00" fill="#d95f02">&lt;32&gt;</text>
</g>
<!-- n5 -->
<g id="node5" class="node">
<title>n5</title>
<polygon fill="none" stroke="black" points="1196.44,-341.54 1196.44,-356.46 1161,-367 1110.88,-367 1075.44,-356.46 1075.44,-341.54 1110.88,-331 1161,-331 1196.44,-341.54"/>
<text text-anchor="middle" x="1135.94" y="-345.3" font-family="Times,serif" font-size="14.00">HRDATA1</text>
</g>
<!-- n5&#45;&gt;c16 -->
<g id="edge10" class="edge">
<title>n5:e&#45;&gt;c16:w</title>
<path fill="none" stroke="#1b9e77" stroke-width="3" d="M1197.94,-349C1221.48,-349 1262.69,-300.25 1290.24,-289.21"/>
<polygon fill="#1b9e77" stroke="#1b9e77" stroke-width="3" points="1291.07,-292.61 1300.06,-287 1289.54,-285.78 1291.07,-292.61"/>
<text text-anchor="middle" x="1260.56" y="-328.8" font-family="Times,serif" font-size="14.00" fill="#1b9e77">&lt;32&gt;</text>
</g>
<!-- n6 -->
<g id="node6" class="node">
<title>n6</title>
<polygon fill="none" stroke="black" points="2377.4,-233.54 2377.4,-248.46 2344.56,-259 2298.12,-259 2265.28,-248.46 2265.28,-233.54 2298.12,-223 2344.56,-223 2377.4,-233.54"/>
<text text-anchor="middle" x="2321.34" y="-237.3" font-family="Times,serif" font-size="14.00">HREADY</text>
</g>
<!-- n7 -->
<g id="node7" class="node">
<title>n7</title>
<polygon fill="none" stroke="black" points="1221.18,-287.54 1221.18,-302.46 1171.25,-313 1100.63,-313 1050.69,-302.46 1050.69,-287.54 1100.63,-277 1171.25,-277 1221.18,-287.54"/>
<text text-anchor="middle" x="1135.94" y="-291.3" font-family="Times,serif" font-size="14.00">HREADYOUT0</text>
</g>
<!-- n7&#45;&gt;c16 -->
<g id="edge12" class="edge">
<title>n7:e&#45;&gt;c16:w</title>
<path fill="none" stroke="#e6ab02" d="M1221.06,-295C1255.09,-295 1261.32,-269.76 1289.92,-264.83"/>
<polygon fill="#e6ab02" stroke="#e6ab02" points="1290.38,-268.3 1300.06,-264 1289.81,-261.33 1290.38,-268.3"/>
</g>
<!-- n8 -->
<g id="node8" class="node">
<title>n8</title>
<polygon fill="none" stroke="black" points="1221.18,-233.54 1221.18,-248.46 1171.25,-259 1100.63,-259 1050.69,-248.46 1050.69,-233.54 1100.63,-223 1171.25,-223 1221.18,-233.54"/>
<text text-anchor="middle" x="1135.94" y="-237.3" font-family="Times,serif" font-size="14.00">HREADYOUT1</text>
</g>
<!-- n8&#45;&gt;c16 -->
<g id="edge13" class="edge">
<title>n8:e&#45;&gt;c16:w</title>
<path fill="none" stroke="#e6ab02" d="M1221.06,-241C1252.47,-241 1262.8,-241 1289.77,-241"/>
<polygon fill="#e6ab02" stroke="#e6ab02" points="1290.06,-244.5 1300.06,-241 1290.06,-237.5 1290.06,-244.5"/>
</g>
<!-- n9 -->
<g id="node9" class="node">
<title>n9</title>
<polygon fill="none" stroke="black" points="123.72,-162.54 123.72,-177.46 87.51,-188 36.3,-188 0.09,-177.46 0.09,-162.54 36.3,-152 87.51,-152 123.72,-162.54"/>
<text text-anchor="middle" x="61.91" y="-166.3" font-family="Times,serif" font-size="14.00">HRESETn</text>
</g>
<!-- n9&#45;&gt;c14 -->
<g id="edge14" class="edge">
<title>n9:e&#45;&gt;c14:w</title>
<path fill="none" stroke="#d95f02" d="M123.81,-170C161.84,-170 163.5,-141.49 184.81,-110 193.71,-96.86 187.39,-78.64 193.24,-70.81"/>
<polygon fill="#d95f02" stroke="#d95f02" points="194.82,-73.95 202.81,-67 192.23,-67.45 194.82,-73.95"/>
</g>
<!-- n9&#45;&gt;c16 -->
<g id="edge15" class="edge">
<title>n9:e&#45;&gt;c16:w</title>
<path fill="none" stroke="#d95f02" d="M123.81,-170C611.87,-170 733.5,-191.88 1221.06,-214 1252.48,-215.43 1262.77,-217.5 1289.76,-217.92"/>
<polygon fill="#d95f02" stroke="#d95f02" points="1290.03,-221.43 1300.06,-218 1290.09,-214.43 1290.03,-221.43"/>
</g>
<!-- n10 -->
<g id="node10" class="node">
<title>n10</title>
<polygon fill="none" stroke="black" points="2369.92,-164.54 2369.92,-179.46 2341.46,-190 2301.22,-190 2272.76,-179.46 2272.76,-164.54 2301.22,-154 2341.46,-154 2369.92,-164.54"/>
<text text-anchor="middle" x="2321.34" y="-168.3" font-family="Times,serif" font-size="14.00">HRESP</text>
</g>
<!-- n11 -->
<g id="node11" class="node">
<title>n11</title>
<polygon fill="none" stroke="black" points="1190.68,-141.54 1190.68,-156.46 1158.61,-167 1113.26,-167 1081.19,-156.46 1081.19,-141.54 1113.26,-131 1158.61,-131 1190.68,-141.54"/>
<text text-anchor="middle" x="1135.94" y="-145.3" font-family="Times,serif" font-size="14.00">HRESP0</text>
</g>
<!-- n11&#45;&gt;c16 -->
<g id="edge3" class="edge">
<title>n11:e&#45;&gt;c16:w</title>
<path fill="none" stroke="#1b9e77" d="M1191.94,-149C1234.44,-149 1244.78,-160.58 1282.06,-181 1286.78,-183.59 1288.71,-187.38 1290.99,-190.36"/>
<polygon fill="#1b9e77" stroke="#1b9e77" points="1289.56,-193.56 1300.06,-195 1292.75,-187.33 1289.56,-193.56"/>
</g>
<!-- n12 -->
<g id="node12" class="node">
<title>n12</title>
<polygon fill="none" stroke="black" points="1190.68,-87.54 1190.68,-102.46 1158.61,-113 1113.26,-113 1081.19,-102.46 1081.19,-87.54 1113.26,-77 1158.61,-77 1190.68,-87.54"/>
<text text-anchor="middle" x="1135.94" y="-91.3" font-family="Times,serif" font-size="14.00">HRESP1</text>
</g>
<!-- n12&#45;&gt;c16 -->
<g id="edge4" class="edge">
<title>n12:e&#45;&gt;c16:w</title>
<path fill="none" stroke="#7570b3" d="M1191.94,-95C1239.81,-95 1244.91,-123.8 1282.06,-154 1287.14,-158.13 1288.58,-163.5 1291.08,-167.3"/>
<polygon fill="#7570b3" stroke="#7570b3" points="1289.58,-170.46 1300.06,-172 1292.83,-164.26 1289.58,-170.46"/>
</g>
<!-- n13 -->
<g id="node13" class="node">
<title>n13</title>
<polygon fill="none" stroke="black" points="1176.54,-33.54 1176.54,-48.46 1152.76,-59 1119.12,-59 1095.33,-48.46 1095.33,-33.54 1119.12,-23 1152.76,-23 1176.54,-33.54"/>
<text text-anchor="middle" x="1135.94" y="-37.3" font-family="Times,serif" font-size="14.00">HSEL</text>
</g>
<!-- n13&#45;&gt;c16 -->
<g id="edge6" class="edge">
<title>n13:e&#45;&gt;c16:w</title>
<path fill="none" stroke="#e7298a" stroke-width="3" d="M1177.94,-41C1229.47,-41 1248.45,-52.94 1282.06,-92 1296.28,-108.52 1281.4,-136.29 1290.27,-145.74"/>
<polygon fill="#e7298a" stroke="#e7298a" stroke-width="3" points="1289.47,-149.16 1300.06,-149 1291.68,-142.52 1289.47,-149.16"/>
<text text-anchor="middle" x="1260.56" y="-95.8" font-family="Times,serif" font-size="14.00" fill="#e7298a">&lt;2&gt;</text>
</g>
<!-- c14&#45;&gt;n13 -->
<g id="edge5" class="edge">
<title>c14:e&#45;&gt;n13:w</title>
<path fill="none" stroke="#e7298a" stroke-width="3" d="M980.81,-79C1030.23,-79 1039.72,-46.02 1083.68,-41.51"/>
<polygon fill="#e7298a" stroke="#e7298a" stroke-width="3" points="1084.12,-44.99 1093.94,-41 1083.78,-38 1084.12,-44.99"/>
<text text-anchor="middle" x="1015.81" y="-80.8" font-family="Times,serif" font-size="14.00" fill="#e7298a">&lt;2&gt;</text>
</g>
<!-- c16&#45;&gt;n3 -->
<g id="edge8" class="edge">
<title>c16:e&#45;&gt;n3:w</title>
<path fill="none" stroke="#7570b3" stroke-width="3" d="M2186.06,-310C2218.12,-310 2228.57,-310 2256.24,-310"/>
<polygon fill="#7570b3" stroke="#7570b3" stroke-width="3" points="2256.34,-313.5 2266.34,-310 2256.34,-306.5 2256.34,-313.5"/>
<text text-anchor="middle" x="2225.56" y="-313.8" font-family="Times,serif" font-size="14.00" fill="#7570b3">&lt;32&gt;</text>
</g>
<!-- c16&#45;&gt;n6 -->
<g id="edge11" class="edge">
<title>c16:e&#45;&gt;n6:w</title>
<path fill="none" stroke="#1b9e77" d="M2186.06,-241C2217.47,-241 2227.8,-241 2254.77,-241"/>
<polygon fill="#1b9e77" stroke="#1b9e77" points="2255.06,-244.5 2265.06,-241 2255.06,-237.5 2255.06,-244.5"/>
</g>
<!-- c16&#45;&gt;n10 -->
<g id="edge2" class="edge">
<title>c16:e&#45;&gt;n10:w</title>
<path fill="none" stroke="#1b9e77" d="M2186.06,-172C2220.26,-172 2231.32,-172 2261,-172"/>
<polygon fill="#1b9e77" stroke="#1b9e77" points="2261.34,-175.5 2271.34,-172 2261.34,-168.5 2261.34,-175.5"/>
</g>
</g>
</svg>
