<?xml version="1.0" encoding="UTF-8" standalone="no"?>
<!DOCTYPE svg PUBLIC "-//W3C//DTD SVG 1.1//EN"
 "http://www.w3.org/Graphics/SVG/1.1/DTD/svg11.dtd">
<!-- Generated by graphviz version 2.43.0 (0)
 -->
<!-- Title: execute_module Pages: 1 -->
<svg width="906pt" height="477pt"
 viewBox="0.00 0.00 905.89 477.00" xmlns="http://www.w3.org/2000/svg" xmlns:xlink="http://www.w3.org/1999/xlink">
<g id="graph0" class="graph" transform="scale(1 1) rotate(0) translate(4 473)">
<title>execute_module</title>
<polygon fill="white" stroke="transparent" points="-4,4 -4,-473 901.89,-473 901.89,4 -4,4"/>
<text text-anchor="middle" x="448.94" y="-453.8" font-family="Arial Bold" font-size="14.00">执行模块 (Execute Stage)</text>
<text text-anchor="middle" x="448.94" y="-438.8" font-family="Arial Bold" font-size="14.00">负责 ALU 运算、分支判断和跳转地址计算</text>
<g id="clust1" class="cluster">
<title>cluster_inputs</title>
<polygon fill="#f0f8ff" stroke="#4169e1" stroke-width="2" points="8,-8 8,-371 122.99,-371 122.99,-8 8,-8"/>
<text text-anchor="middle" x="65.5" y="-355.8" font-family="Arial Bold" font-size="14.00">输入信号</text>
</g>
<g id="clust2" class="cluster">
<title>cluster_module</title>
<path fill="#fff0f0" stroke="#dc143c" stroke-width="3" d="M194.99,-188C194.99,-188 731.99,-188 731.99,-188 737.99,-188 743.99,-194 743.99,-200 743.99,-200 743.99,-385 743.99,-385 743.99,-391 737.99,-397 731.99,-397 731.99,-397 194.99,-397 194.99,-397 188.99,-397 182.99,-391 182.99,-385 182.99,-385 182.99,-200 182.99,-200 182.99,-194 188.99,-188 194.99,-188"/>
</g>
<g id="clust3" class="cluster">
<title>cluster_outputs</title>
<polygon fill="#f0fff0" stroke="#228b22" stroke-width="2" points="764.99,-114 764.99,-423 889.89,-423 889.89,-114 764.99,-114"/>
<text text-anchor="middle" x="827.44" y="-407.8" font-family="Arial Bold" font-size="14.00">输出信号</text>
</g>
<!-- CLK -->
<g id="node1" class="node">
<title>CLK</title>
<ellipse fill="#e6f3ff" stroke="#4682b4" stroke-width="2" cx="65.5" cy="-34" rx="27" ry="18"/>
<text text-anchor="middle" x="65.5" y="-31.5" font-family="Arial" font-size="10.00">CLK</text>
</g>
<!-- EXMEM -->
<g id="node12" class="node">
<title>EXMEM</title>
<path fill="#ffd700" stroke="#ff8c00" stroke-width="2" d="M723.99,-248C723.99,-248 611.99,-248 611.99,-248 605.99,-248 599.99,-242 599.99,-236 599.99,-236 599.99,-208 599.99,-208 599.99,-202 605.99,-196 611.99,-196 611.99,-196 723.99,-196 723.99,-196 729.99,-196 735.99,-202 735.99,-208 735.99,-208 735.99,-236 735.99,-236 735.99,-242 729.99,-248 723.99,-248"/>
<text text-anchor="middle" x="667.99" y="-236" font-family="Arial" font-size="10.00">EX/MEM 流水线寄存器</text>
<text text-anchor="middle" x="667.99" y="-225" font-family="Arial" font-size="10.00">• ALU 结果</text>
<text text-anchor="middle" x="667.99" y="-214" font-family="Arial" font-size="10.00">• 访存控制信号</text>
<text text-anchor="middle" x="667.99" y="-203" font-family="Arial" font-size="10.00">• 写回控制信号</text>
</g>
<!-- CLK&#45;&gt;EXMEM -->
<g id="edge1" class="edge">
<title>CLK&#45;&gt;EXMEM</title>
<path fill="none" stroke="#ff8c00" stroke-width="1.5" d="M92.03,-30.29C166.33,-20.74 386.93,-1.4 540.99,-82 587.14,-106.14 624.64,-154.43 646.39,-187.48"/>
<polygon fill="#ff8c00" stroke="#ff8c00" stroke-width="1.5" points="643.48,-189.43 651.83,-195.95 649.37,-185.64 643.48,-189.43"/>
<text text-anchor="middle" x="376.49" y="-36.8" font-family="Arial" font-size="9.00">时钟</text>
</g>
<!-- IDEX_PC -->
<g id="node2" class="node">
<title>IDEX_PC</title>
<ellipse fill="#e6f3ff" stroke="#4682b4" stroke-width="2" cx="65.5" cy="-262" rx="36.49" ry="18"/>
<text text-anchor="middle" x="65.5" y="-259.5" font-family="Arial" font-size="10.00">ID_EX_pc</text>
</g>
<!-- JUMP -->
<g id="node10" class="node">
<title>JUMP</title>
<path fill="#ffb6c1" stroke="#dc143c" stroke-width="2" d="M314.49,-389C314.49,-389 213.49,-389 213.49,-389 207.49,-389 201.49,-383 201.49,-377 201.49,-377 201.49,-349 201.49,-349 201.49,-343 207.49,-337 213.49,-337 213.49,-337 314.49,-337 314.49,-337 320.49,-337 326.49,-343 326.49,-349 326.49,-349 326.49,-377 326.49,-377 326.49,-383 320.49,-389 314.49,-389"/>
<text text-anchor="middle" x="263.99" y="-377" font-family="Arial" font-size="10.00">跳转地址计算</text>
<text text-anchor="middle" x="263.99" y="-366" font-family="Arial" font-size="10.00">• 分支地址: PC + imm</text>
<text text-anchor="middle" x="263.99" y="-355" font-family="Arial" font-size="10.00">• JAL: PC + imm</text>
<text text-anchor="middle" x="263.99" y="-344" font-family="Arial" font-size="10.00">• JALR: rs1 + imm</text>
</g>
<!-- IDEX_PC&#45;&gt;JUMP -->
<g id="edge2" class="edge">
<title>IDEX_PC&#45;&gt;JUMP</title>
<path fill="none" stroke="#4169e1" stroke-width="1.5" d="M97.64,-270.78C107.08,-274.88 116.62,-280.74 122.99,-289 137.38,-307.63 116.17,-324.55 132.99,-341 148.39,-356.06 170.04,-363.02 191.25,-365.8"/>
<polygon fill="#4169e1" stroke="#4169e1" stroke-width="1.5" points="190.97,-369.29 201.27,-366.82 191.68,-362.33 190.97,-369.29"/>
</g>
<!-- PC_NEXT -->
<g id="node11" class="node">
<title>PC_NEXT</title>
<path fill="#ffe4e1" stroke="#ff6347" stroke-width="2" d="M521.49,-337C521.49,-337 435.49,-337 435.49,-337 429.49,-337 423.49,-331 423.49,-325 423.49,-325 423.49,-297 423.49,-297 423.49,-291 429.49,-285 435.49,-285 435.49,-285 521.49,-285 521.49,-285 527.49,-285 533.49,-291 533.49,-297 533.49,-297 533.49,-325 533.49,-325 533.49,-331 527.49,-337 521.49,-337"/>
<text text-anchor="middle" x="478.49" y="-325" font-family="Arial" font-size="10.00">PC_next 生成</text>
<text text-anchor="middle" x="478.49" y="-314" font-family="Arial" font-size="10.00">• 正常: PC + 4</text>
<text text-anchor="middle" x="478.49" y="-303" font-family="Arial" font-size="10.00">• 分支跳转: target</text>
<text text-anchor="middle" x="478.49" y="-292" font-family="Arial" font-size="10.00">• branch_taken 信号</text>
</g>
<!-- IDEX_PC&#45;&gt;PC_NEXT -->
<g id="edge3" class="edge">
<title>IDEX_PC&#45;&gt;PC_NEXT</title>
<path fill="none" stroke="#4169e1" stroke-width="1.5" stroke-dasharray="5,2" d="M93.86,-250.39C103.33,-246 113.85,-240.67 122.99,-235 151.78,-217.15 150.97,-199.05 182.99,-188 247.7,-165.68 270.64,-171.2 336.99,-188 366.88,-195.56 378.04,-197.51 397.99,-221 413.83,-239.64 400.71,-253.91 415.99,-273 417.4,-274.75 418.9,-276.44 420.49,-278.08"/>
<polygon fill="#4169e1" stroke="#4169e1" stroke-width="1.5" points="418.18,-280.7 427.92,-284.85 422.89,-275.53 418.18,-280.7"/>
</g>
<!-- IDEX_INST -->
<g id="node3" class="node">
<title>IDEX_INST</title>
<ellipse fill="#e6f3ff" stroke="#4682b4" stroke-width="2" cx="65.5" cy="-88" rx="39.38" ry="18"/>
<text text-anchor="middle" x="65.5" y="-85.5" font-family="Arial" font-size="10.00">ID_EX_inst</text>
</g>
<!-- ALU -->
<g id="node8" class="node">
<title>ALU</title>
<path fill="#ff6b6b" stroke="#dc143c" stroke-width="2" d="M528.99,-264C528.99,-264 427.99,-264 427.99,-264 421.99,-264 415.99,-258 415.99,-252 415.99,-252 415.99,-208 415.99,-208 415.99,-202 421.99,-196 427.99,-196 427.99,-196 528.99,-196 528.99,-196 534.99,-196 540.99,-202 540.99,-208 540.99,-208 540.99,-252 540.99,-252 540.99,-258 534.99,-264 528.99,-264"/>
<text text-anchor="middle" x="478.49" y="-251.2" font-family="Arial" font-size="11.00">算术逻辑单元 (ALU)</text>
<text text-anchor="middle" x="478.49" y="-239.2" font-family="Arial" font-size="11.00">• ADD/SUB 加减</text>
<text text-anchor="middle" x="478.49" y="-227.2" font-family="Arial" font-size="11.00">• AND/OR/XOR 逻辑</text>
<text text-anchor="middle" x="478.49" y="-215.2" font-family="Arial" font-size="11.00">• SLL/SRL/SRA 移位</text>
<text text-anchor="middle" x="478.49" y="-203.2" font-family="Arial" font-size="11.00">• SLT/SLTU 比较</text>
</g>
<!-- IDEX_INST&#45;&gt;ALU -->
<g id="edge4" class="edge">
<title>IDEX_INST&#45;&gt;ALU</title>
<path fill="none" stroke="#4169e1" stroke-width="1.5" stroke-dasharray="5,2" d="M102.66,-94.66C123.35,-98.68 149.75,-104.14 172.99,-110 246.76,-128.6 265.99,-131.7 336.99,-159 365.01,-169.77 371.16,-174.54 397.99,-188 400.77,-189.39 403.59,-190.82 406.43,-192.27"/>
<polygon fill="#4169e1" stroke="#4169e1" stroke-width="1.5" points="405.07,-195.5 415.56,-196.96 408.27,-189.28 405.07,-195.5"/>
<text text-anchor="middle" x="263.99" y="-161.8" font-family="Arial" font-size="9.00">opcode</text>
</g>
<!-- BRANCH -->
<g id="node9" class="node">
<title>BRANCH</title>
<path fill="#ffb6c1" stroke="#dc143c" stroke-width="2" d="M324.99,-259.5C324.99,-259.5 202.99,-259.5 202.99,-259.5 196.99,-259.5 190.99,-253.5 190.99,-247.5 190.99,-247.5 190.99,-208.5 190.99,-208.5 190.99,-202.5 196.99,-196.5 202.99,-196.5 202.99,-196.5 324.99,-196.5 324.99,-196.5 330.99,-196.5 336.99,-202.5 336.99,-208.5 336.99,-208.5 336.99,-247.5 336.99,-247.5 336.99,-253.5 330.99,-259.5 324.99,-259.5"/>
<text text-anchor="middle" x="263.99" y="-247.5" font-family="Arial" font-size="10.00">分支判断单元</text>
<text text-anchor="middle" x="263.99" y="-236.5" font-family="Arial" font-size="10.00">• BEQ 相等</text>
<text text-anchor="middle" x="263.99" y="-225.5" font-family="Arial" font-size="10.00">• BNE 不等</text>
<text text-anchor="middle" x="263.99" y="-214.5" font-family="Arial" font-size="10.00">• BLT/BGE 有符号比较</text>
<text text-anchor="middle" x="263.99" y="-203.5" font-family="Arial" font-size="10.00">• BLTU/BGEU 无符号比较</text>
</g>
<!-- IDEX_INST&#45;&gt;BRANCH -->
<g id="edge5" class="edge">
<title>IDEX_INST&#45;&gt;BRANCH</title>
<path fill="none" stroke="#4169e1" stroke-width="1.5" stroke-dasharray="5,2" d="M97.43,-98.81C119.57,-107.34 149.49,-120.54 172.99,-137 193.83,-151.59 214.02,-171.33 229.99,-188.69"/>
<polygon fill="#4169e1" stroke="#4169e1" stroke-width="1.5" points="227.71,-191.4 237.01,-196.48 232.91,-186.71 227.71,-191.4"/>
<text text-anchor="middle" x="152.99" y="-139.8" font-family="Arial" font-size="9.00">funct3</text>
</g>
<!-- IDEX_INST&#45;&gt;EXMEM -->
<g id="edge6" class="edge">
<title>IDEX_INST&#45;&gt;EXMEM</title>
<path fill="none" stroke="#4169e1" stroke-width="1.5" stroke-dasharray="5,2" d="M103.25,-82.66C185.64,-72.35 389.75,-56.11 540.99,-122 576.8,-137.6 611.1,-166 634.84,-188.56"/>
<polygon fill="#4169e1" stroke="#4169e1" stroke-width="1.5" points="632.55,-191.22 642.16,-195.66 637.42,-186.19 632.55,-191.22"/>
</g>
<!-- IDEX_RS1 -->
<g id="node4" class="node">
<title>IDEX_RS1</title>
<ellipse fill="#e6f3ff" stroke="#4682b4" stroke-width="2" cx="65.5" cy="-319" rx="45.92" ry="21.43"/>
<text text-anchor="middle" x="65.5" y="-322" font-family="Arial" font-size="10.00">ID_EX_rs1</text>
<text text-anchor="middle" x="65.5" y="-311" font-family="Arial" font-size="10.00">操作数1</text>
</g>
<!-- ALU_SEL -->
<g id="node7" class="node">
<title>ALU_SEL</title>
<path fill="#ffb6c1" stroke="#dc143c" stroke-width="2" d="M303.49,-318.5C303.49,-318.5 224.49,-318.5 224.49,-318.5 218.49,-318.5 212.49,-312.5 212.49,-306.5 212.49,-306.5 212.49,-289.5 212.49,-289.5 212.49,-283.5 218.49,-277.5 224.49,-277.5 224.49,-277.5 303.49,-277.5 303.49,-277.5 309.49,-277.5 315.49,-283.5 315.49,-289.5 315.49,-289.5 315.49,-306.5 315.49,-306.5 315.49,-312.5 309.49,-318.5 303.49,-318.5"/>
<text text-anchor="middle" x="263.99" y="-306.5" font-family="Arial" font-size="10.00">ALU 操作数选择</text>
<text text-anchor="middle" x="263.99" y="-295.5" font-family="Arial" font-size="10.00">• rs1 或 PC</text>
<text text-anchor="middle" x="263.99" y="-284.5" font-family="Arial" font-size="10.00">• rs2 或 imm</text>
</g>
<!-- IDEX_RS1&#45;&gt;ALU_SEL -->
<g id="edge7" class="edge">
<title>IDEX_RS1&#45;&gt;ALU_SEL</title>
<path fill="none" stroke="#dc143c" stroke-width="2" d="M110.12,-313.62C117.74,-312.72 125.6,-311.81 132.99,-311 155.57,-308.51 180.38,-305.98 202.22,-303.82"/>
<polygon fill="#dc143c" stroke="#dc143c" stroke-width="2" points="202.74,-307.29 212.35,-302.83 202.05,-300.32 202.74,-307.29"/>
</g>
<!-- IDEX_RS1&#45;&gt;BRANCH -->
<g id="edge8" class="edge">
<title>IDEX_RS1&#45;&gt;BRANCH</title>
<path fill="none" stroke="#dc143c" stroke-width="1.5" d="M98.51,-304.18C122.06,-293.27 155.12,-277.96 185.43,-263.92"/>
<polygon fill="#dc143c" stroke="#dc143c" stroke-width="1.5" points="187.13,-266.99 194.74,-259.61 184.19,-260.64 187.13,-266.99"/>
<text text-anchor="middle" x="152.99" y="-288.8" font-family="Arial" font-size="9.00">操作数1</text>
</g>
<!-- IDEX_RS1&#45;&gt;JUMP -->
<g id="edge9" class="edge">
<title>IDEX_RS1&#45;&gt;JUMP</title>
<path fill="none" stroke="#dc143c" stroke-width="1.5" stroke-dasharray="5,2" d="M86.52,-338.15C98.86,-348.59 115.61,-360.48 132.99,-366 151.32,-371.82 171.85,-373.44 191.08,-373"/>
<polygon fill="#dc143c" stroke="#dc143c" stroke-width="1.5" points="191.46,-376.49 201.3,-372.58 191.17,-369.5 191.46,-376.49"/>
<text text-anchor="middle" x="152.99" y="-374.8" font-family="Arial" font-size="9.00">rs1</text>
</g>
<!-- IDEX_RS2 -->
<g id="node5" class="node">
<title>IDEX_RS2</title>
<ellipse fill="#e6f3ff" stroke="#4682b4" stroke-width="2" cx="65.5" cy="-145" rx="45.92" ry="21.43"/>
<text text-anchor="middle" x="65.5" y="-148" font-family="Arial" font-size="10.00">ID_EX_rs2</text>
<text text-anchor="middle" x="65.5" y="-137" font-family="Arial" font-size="10.00">操作数2</text>
</g>
<!-- IDEX_RS2&#45;&gt;ALU_SEL -->
<g id="edge10" class="edge">
<title>IDEX_RS2&#45;&gt;ALU_SEL</title>
<path fill="none" stroke="#dc143c" stroke-width="2" d="M99.26,-159.58C107.42,-163.95 115.86,-169.16 122.99,-175 150.12,-197.21 156.48,-205.08 172.99,-236 180.21,-249.52 172.45,-257.88 182.99,-269 188.57,-274.88 195.43,-279.57 202.76,-283.31"/>
<polygon fill="#dc143c" stroke="#dc143c" stroke-width="2" points="201.69,-286.67 212.25,-287.57 204.55,-280.28 201.69,-286.67"/>
</g>
<!-- IDEX_RS2&#45;&gt;BRANCH -->
<g id="edge11" class="edge">
<title>IDEX_RS2&#45;&gt;BRANCH</title>
<path fill="none" stroke="#dc143c" stroke-width="1.5" d="M111.03,-147.95C130.61,-150.39 153.54,-154.85 172.99,-163 189.19,-169.78 205.26,-179.97 219.24,-190.28"/>
<polygon fill="#dc143c" stroke="#dc143c" stroke-width="1.5" points="217.14,-193.08 227.22,-196.34 221.37,-187.5 217.14,-193.08"/>
<text text-anchor="middle" x="152.99" y="-165.8" font-family="Arial" font-size="9.00">操作数2</text>
</g>
<!-- IDEX_RS2&#45;&gt;EXMEM -->
<g id="edge12" class="edge">
<title>IDEX_RS2&#45;&gt;EXMEM</title>
<path fill="none" stroke="#dc143c" stroke-width="1.5" stroke-dasharray="5,2" d="M107.86,-136.77C128.08,-131.9 152.43,-124.75 172.99,-115 177.9,-112.68 177.82,-109.63 182.99,-108 248.27,-87.42 269.49,-96.67 336.99,-108 431.72,-123.9 535.61,-163.79 601.03,-191.89"/>
<polygon fill="#dc143c" stroke="#dc143c" stroke-width="1.5" points="599.83,-195.18 610.4,-195.94 602.61,-188.76 599.83,-195.18"/>
<text text-anchor="middle" x="376.49" y="-122.8" font-family="Arial" font-size="9.00">store数据</text>
</g>
<!-- IDEX_IMM -->
<g id="node6" class="node">
<title>IDEX_IMM</title>
<ellipse fill="#e6f3ff" stroke="#4682b4" stroke-width="2" cx="65.5" cy="-205" rx="49.49" ry="21.43"/>
<text text-anchor="middle" x="65.5" y="-208" font-family="Arial" font-size="10.00">ID_EX_imm</text>
<text text-anchor="middle" x="65.5" y="-197" font-family="Arial" font-size="10.00">立即数</text>
</g>
<!-- IDEX_IMM&#45;&gt;ALU_SEL -->
<g id="edge13" class="edge">
<title>IDEX_IMM&#45;&gt;ALU_SEL</title>
<path fill="none" stroke="#9370db" stroke-width="1.5" d="M97.66,-221.35C105.92,-225.74 114.82,-230.51 122.99,-235 149.87,-249.74 155.16,-256.18 182.99,-269 189.22,-271.87 195.81,-274.64 202.43,-277.27"/>
<polygon fill="#9370db" stroke="#9370db" stroke-width="1.5" points="201.53,-280.68 212.12,-281.01 204.05,-274.15 201.53,-280.68"/>
</g>
<!-- IDEX_IMM&#45;&gt;JUMP -->
<g id="edge14" class="edge">
<title>IDEX_IMM&#45;&gt;JUMP</title>
<path fill="none" stroke="#9370db" stroke-width="1.5" d="M104.05,-218.6C111.32,-222.82 118.17,-228.21 122.99,-235 139.92,-258.83 116.34,-275.98 132.99,-300 147.51,-320.93 160.19,-316.66 182.99,-328 186.07,-329.53 189.24,-331.07 192.44,-332.59"/>
<polygon fill="#9370db" stroke="#9370db" stroke-width="1.5" points="191.02,-335.79 201.56,-336.86 193.99,-329.45 191.02,-335.79"/>
<text text-anchor="middle" x="152.99" y="-325.8" font-family="Arial" font-size="9.00">offset</text>
</g>
<!-- ALU_SEL&#45;&gt;ALU -->
<g id="edge15" class="edge">
<title>ALU_SEL&#45;&gt;ALU</title>
<path fill="none" stroke="#dc143c" stroke-width="2" d="M315.62,-281.8C342.65,-273.15 376.35,-262.37 406,-252.88"/>
<polygon fill="#dc143c" stroke="#dc143c" stroke-width="2" points="407.43,-256.1 415.88,-249.72 405.29,-249.43 407.43,-256.1"/>
<text text-anchor="middle" x="376.49" y="-270.8" font-family="Arial" font-size="9.00">操作数</text>
</g>
<!-- ALU&#45;&gt;EXMEM -->
<g id="edge16" class="edge">
<title>ALU&#45;&gt;EXMEM</title>
<path fill="none" stroke="#dc143c" stroke-width="2" d="M541.15,-227.37C556.56,-226.71 573.29,-226 589.36,-225.31"/>
<polygon fill="#dc143c" stroke="#dc143c" stroke-width="2" points="589.97,-228.79 599.81,-224.87 589.67,-221.8 589.97,-228.79"/>
<text text-anchor="middle" x="570.49" y="-228.8" font-family="Arial" font-size="9.00">结果</text>
</g>
<!-- BRANCH&#45;&gt;PC_NEXT -->
<g id="edge17" class="edge">
<title>BRANCH&#45;&gt;PC_NEXT</title>
<path fill="none" stroke="#ff6347" stroke-width="1.5" d="M337.14,-222.84C358.15,-224.44 380.21,-229.4 397.99,-241 411.66,-249.91 404.7,-261.23 415.99,-273 417.78,-274.86 419.68,-276.67 421.66,-278.42"/>
<polygon fill="#ff6347" stroke="#ff6347" stroke-width="1.5" points="419.65,-281.3 429.62,-284.88 424.06,-275.86 419.65,-281.3"/>
<text text-anchor="middle" x="376.49" y="-243.8" font-family="Arial" font-size="9.00">条件</text>
</g>
<!-- JUMP&#45;&gt;PC_NEXT -->
<g id="edge18" class="edge">
<title>JUMP&#45;&gt;PC_NEXT</title>
<path fill="none" stroke="#0000ff" stroke-width="2" d="M326.74,-347.89C353.92,-341.24 385.84,-333.43 413.29,-326.71"/>
<polygon fill="#0000ff" stroke="#0000ff" stroke-width="2" points="414.3,-330.07 423.18,-324.29 412.64,-323.27 414.3,-330.07"/>
<text text-anchor="middle" x="376.49" y="-342.8" font-family="Arial" font-size="9.00">目标</text>
</g>
<!-- PC_NEXT_OUT -->
<g id="node13" class="node">
<title>PC_NEXT_OUT</title>
<ellipse fill="#e6ffe6" stroke="#2e8b57" stroke-width="2" cx="827.44" cy="-371" rx="39.7" ry="21.43"/>
<text text-anchor="middle" x="827.44" y="-374" font-family="Arial" font-size="10.00">PC_next</text>
<text text-anchor="middle" x="827.44" y="-363" font-family="Arial" font-size="10.00">下一PC</text>
</g>
<!-- PC_NEXT&#45;&gt;PC_NEXT_OUT -->
<g id="edge19" class="edge">
<title>PC_NEXT&#45;&gt;PC_NEXT_OUT</title>
<path fill="none" stroke="#0000ff" stroke-width="2" d="M533.8,-320.59C542.23,-322.07 550.85,-323.58 558.99,-325 636.18,-338.43 725.93,-353.82 779.36,-362.96"/>
<polygon fill="#0000ff" stroke="#0000ff" stroke-width="2" points="778.78,-366.41 789.23,-364.65 779.96,-359.51 778.78,-366.41"/>
</g>
<!-- BR_TAKEN -->
<g id="node14" class="node">
<title>BR_TAKEN</title>
<ellipse fill="#e6ffe6" stroke="#2e8b57" stroke-width="2" cx="827.44" cy="-311" rx="53.07" ry="21.43"/>
<text text-anchor="middle" x="827.44" y="-314" font-family="Arial" font-size="10.00">branch_taken</text>
<text text-anchor="middle" x="827.44" y="-303" font-family="Arial" font-size="10.00">分支标志</text>
</g>
<!-- PC_NEXT&#45;&gt;BR_TAKEN -->
<g id="edge20" class="edge">
<title>PC_NEXT&#45;&gt;BR_TAKEN</title>
<path fill="none" stroke="#ff6347" stroke-width="2" d="M533.71,-311C596.12,-311 698.45,-311 764.1,-311"/>
<polygon fill="#ff6347" stroke="#ff6347" stroke-width="2" points="764.31,-314.5 774.31,-311 764.31,-307.5 764.31,-314.5"/>
</g>
<!-- EXMEM_ALU -->
<g id="node15" class="node">
<title>EXMEM_ALU</title>
<ellipse fill="#e6ffe6" stroke="#2e8b57" stroke-width="2" cx="827.44" cy="-251" rx="54.39" ry="21.43"/>
<text text-anchor="middle" x="827.44" y="-254" font-family="Arial" font-size="10.00">EX_MEM_alu</text>
<text text-anchor="middle" x="827.44" y="-243" font-family="Arial" font-size="10.00">ALU结果</text>
</g>
<!-- EXMEM&#45;&gt;EXMEM_ALU -->
<g id="edge21" class="edge">
<title>EXMEM&#45;&gt;EXMEM_ALU</title>
<path fill="none" stroke="#228b22" stroke-width="2" d="M736.22,-234.38C746.75,-236.32 757.57,-238.31 767.88,-240.21"/>
<polygon fill="#228b22" stroke="#228b22" stroke-width="2" points="767.54,-243.71 778.01,-242.08 768.8,-236.82 767.54,-243.71"/>
</g>
<!-- EXMEM_INST -->
<g id="node16" class="node">
<title>EXMEM_INST</title>
<ellipse fill="#e6ffe6" stroke="#2e8b57" stroke-width="2" cx="827.44" cy="-194" rx="47.19" ry="18"/>
<text text-anchor="middle" x="827.44" y="-191.5" font-family="Arial" font-size="10.00">EX_MEM_inst</text>
</g>
<!-- EXMEM&#45;&gt;EXMEM_INST -->
<g id="edge22" class="edge">
<title>EXMEM&#45;&gt;EXMEM_INST</title>
<path fill="none" stroke="#228b22" stroke-width="1.5" d="M736.22,-210.04C749.02,-207.77 762.23,-205.42 774.47,-203.24"/>
<polygon fill="#228b22" stroke="#228b22" stroke-width="1.5" points="775.25,-206.66 784.49,-201.46 774.03,-199.77 775.25,-206.66"/>
</g>
<!-- EXMEM_RD -->
<g id="node17" class="node">
<title>EXMEM_RD</title>
<ellipse fill="#e6ffe6" stroke="#2e8b57" stroke-width="2" cx="827.44" cy="-140" rx="42.27" ry="18"/>
<text text-anchor="middle" x="827.44" y="-137.5" font-family="Arial" font-size="10.00">EX_MEM_rd</text>
</g>
<!-- EXMEM&#45;&gt;EXMEM_RD -->
<g id="edge23" class="edge">
<title>EXMEM&#45;&gt;EXMEM_RD</title>
<path fill="none" stroke="#228b22" stroke-width="1.5" d="M712.43,-195.81C728.71,-186.35 747.5,-175.82 764.99,-167 772.09,-163.42 779.77,-159.83 787.21,-156.49"/>
<polygon fill="#228b22" stroke="#228b22" stroke-width="1.5" points="788.72,-159.66 796.45,-152.42 785.89,-153.25 788.72,-159.66"/>
</g>
</g>
</svg>
