<?xml version="1.0" encoding="UTF-8" standalone="no"?>
<!DOCTYPE svg PUBLIC "-//W3C//DTD SVG 1.1//EN"
 "http://www.w3.org/Graphics/SVG/1.1/DTD/svg11.dtd">
<!-- Generated by graphviz version 2.43.0 (0)
 -->
<!-- Title: memory_module Pages: 1 -->
<svg width="914pt" height="497pt"
 viewBox="0.00 0.00 913.76 497.00" xmlns="http://www.w3.org/2000/svg" xmlns:xlink="http://www.w3.org/1999/xlink">
<g id="graph0" class="graph" transform="scale(1 1) rotate(0) translate(4 493)">
<title>memory_module</title>
<polygon fill="white" stroke="transparent" points="-4,4 -4,-493 909.76,-493 909.76,4 -4,4"/>
<text text-anchor="middle" x="452.88" y="-473.8" font-family="Arial Bold" font-size="14.00">访存模块 (Memory Stage)</text>
<text text-anchor="middle" x="452.88" y="-458.8" font-family="Arial Bold" font-size="14.00">负责数据存储器访问和数据对齐</text>
<g id="clust1" class="cluster">
<title>cluster_inputs</title>
<polygon fill="#f0f8ff" stroke="#4169e1" stroke-width="2" points="8,-9 8,-384 137.14,-384 137.14,-9 8,-9"/>
<text text-anchor="middle" x="72.57" y="-368.8" font-family="Arial Bold" font-size="14.00">输入信号</text>
</g>
<g id="clust2" class="cluster">
<title>cluster_module</title>
<path fill="#f5f0ff" stroke="#9370db" stroke-width="3" d="M194.14,-61C194.14,-61 727.14,-61 727.14,-61 733.14,-61 739.14,-67 739.14,-73 739.14,-73 739.14,-233 739.14,-233 739.14,-239 733.14,-245 727.14,-245 727.14,-245 194.14,-245 194.14,-245 188.14,-245 182.14,-239 182.14,-233 182.14,-233 182.14,-73 182.14,-73 182.14,-67 188.14,-61 194.14,-61"/>
</g>
<g id="clust3" class="cluster">
<title>cluster_outputs</title>
<polygon fill="#f0fff0" stroke="#228b22" stroke-width="2" points="760.14,-8 760.14,-443 897.76,-443 897.76,-8 760.14,-8"/>
<text text-anchor="middle" x="828.95" y="-427.8" font-family="Arial Bold" font-size="14.00">输出信号</text>
</g>
<!-- CLK -->
<g id="node1" class="node">
<title>CLK</title>
<ellipse fill="#e6f3ff" stroke="#4682b4" stroke-width="2" cx="72.57" cy="-335" rx="27" ry="18"/>
<text text-anchor="middle" x="72.57" y="-332.5" font-family="Arial" font-size="10.00">CLK</text>
</g>
<!-- MEMWB -->
<g id="node11" class="node">
<title>MEMWB</title>
<path fill="#ffd700" stroke="#ff8c00" stroke-width="2" d="M719.14,-121C719.14,-121 604.14,-121 604.14,-121 598.14,-121 592.14,-115 592.14,-109 592.14,-109 592.14,-81 592.14,-81 592.14,-75 598.14,-69 604.14,-69 604.14,-69 719.14,-69 719.14,-69 725.14,-69 731.14,-75 731.14,-81 731.14,-81 731.14,-109 731.14,-109 731.14,-115 725.14,-121 719.14,-121"/>
<text text-anchor="middle" x="661.64" y="-109" font-family="Arial" font-size="10.00">MEM/WB 流水线寄存器</text>
<text text-anchor="middle" x="661.64" y="-98" font-family="Arial" font-size="10.00">• Load 数据</text>
<text text-anchor="middle" x="661.64" y="-87" font-family="Arial" font-size="10.00">• ALU 结果</text>
<text text-anchor="middle" x="661.64" y="-76" font-family="Arial" font-size="10.00">• 写回控制信号</text>
</g>
<!-- CLK&#45;&gt;MEMWB -->
<g id="edge1" class="edge">
<title>CLK&#45;&gt;MEMWB</title>
<path fill="none" stroke="#ff8c00" stroke-width="1.5" d="M98.62,-340.41C182.11,-356.78 452.53,-396.27 574.14,-251 596.14,-224.71 576.65,-206.58 592.14,-176 600.76,-158.97 613.63,-142.45 625.9,-128.82"/>
<polygon fill="#ff8c00" stroke="#ff8c00" stroke-width="1.5" points="628.78,-130.86 633.01,-121.15 623.65,-126.1 628.78,-130.86"/>
<text text-anchor="middle" x="350.14" y="-357.8" font-family="Arial" font-size="9.00">时钟</text>
</g>
<!-- EXMEM_ALU -->
<g id="node2" class="node">
<title>EXMEM_ALU</title>
<ellipse fill="#e6f3ff" stroke="#4682b4" stroke-width="2" cx="72.57" cy="-278" rx="54.39" ry="21.43"/>
<text text-anchor="middle" x="72.57" y="-281" font-family="Arial" font-size="10.00">EX_MEM_alu</text>
<text text-anchor="middle" x="72.57" y="-270" font-family="Arial" font-size="10.00">地址/数据</text>
</g>
<!-- MEM_CTRL -->
<g id="node7" class="node">
<title>MEM_CTRL</title>
<path fill="#dda0dd" stroke="#9370db" stroke-width="2" d="M297.14,-183C297.14,-183 202.14,-183 202.14,-183 196.14,-183 190.14,-177 190.14,-171 190.14,-171 190.14,-143 190.14,-143 190.14,-137 196.14,-131 202.14,-131 202.14,-131 297.14,-131 297.14,-131 303.14,-131 309.14,-137 309.14,-143 309.14,-143 309.14,-171 309.14,-171 309.14,-177 303.14,-183 297.14,-183"/>
<text text-anchor="middle" x="249.64" y="-171" font-family="Arial" font-size="10.00">访存控制单元</text>
<text text-anchor="middle" x="249.64" y="-160" font-family="Arial" font-size="10.00">• Load/Store 识别</text>
<text text-anchor="middle" x="249.64" y="-149" font-family="Arial" font-size="10.00">• 字节/半字/字选择</text>
<text text-anchor="middle" x="249.64" y="-138" font-family="Arial" font-size="10.00">• 读写控制</text>
</g>
<!-- EXMEM_ALU&#45;&gt;MEM_CTRL -->
<g id="edge2" class="edge">
<title>EXMEM_ALU&#45;&gt;MEM_CTRL</title>
<path fill="none" stroke="#4169e1" stroke-width="2" d="M111.66,-263.11C120.43,-258.87 129.43,-253.79 137.14,-248 161.3,-229.84 158.91,-216.35 182.14,-197 185.55,-194.16 189.18,-191.38 192.93,-188.71"/>
<polygon fill="#4169e1" stroke="#4169e1" stroke-width="2" points="194.97,-191.55 201.25,-183.02 191.02,-185.77 194.97,-191.55"/>
<text text-anchor="middle" x="159.64" y="-240.8" font-family="Arial" font-size="9.00">地址</text>
</g>
<!-- AHB_DATA -->
<g id="node8" class="node">
<title>AHB_DATA</title>
<path fill="#afeeee" stroke="#20b2aa" stroke-width="2" d="M695.64,-237C695.64,-237 627.64,-237 627.64,-237 621.64,-237 615.64,-231 615.64,-225 615.64,-225 615.64,-197 615.64,-197 615.64,-191 621.64,-185 627.64,-185 627.64,-185 695.64,-185 695.64,-185 701.64,-185 707.64,-191 707.64,-197 707.64,-197 707.64,-225 707.64,-225 707.64,-231 701.64,-237 695.64,-237"/>
<text text-anchor="middle" x="661.64" y="-225" font-family="Arial" font-size="10.00">AHB 数据接口</text>
<text text-anchor="middle" x="661.64" y="-214" font-family="Arial" font-size="10.00">• 地址对齐</text>
<text text-anchor="middle" x="661.64" y="-203" font-family="Arial" font-size="10.00">• 传输控制</text>
<text text-anchor="middle" x="661.64" y="-192" font-family="Arial" font-size="10.00">• HSIZE 生成</text>
</g>
<!-- EXMEM_ALU&#45;&gt;AHB_DATA -->
<g id="edge3" class="edge">
<title>EXMEM_ALU&#45;&gt;AHB_DATA</title>
<path fill="none" stroke="#4169e1" stroke-width="2" d="M120.8,-288.12C211.61,-305.43 415.63,-333.84 574.14,-279 594.58,-271.93 613.87,-257.8 629.02,-244.25"/>
<polygon fill="#4169e1" stroke="#4169e1" stroke-width="2" points="631.6,-246.63 636.55,-237.26 626.84,-241.5 631.6,-246.63"/>
</g>
<!-- EXMEM_ALU&#45;&gt;MEMWB -->
<g id="edge4" class="edge">
<title>EXMEM_ALU&#45;&gt;MEMWB</title>
<path fill="none" stroke="#4169e1" stroke-width="1.5" stroke-dasharray="5,2" d="M126.79,-280.24C242.46,-283.92 511.43,-285.55 574.14,-225 590.83,-208.88 580.47,-196.05 592.14,-176 601.82,-159.37 615.01,-142.82 627.23,-129.05"/>
<polygon fill="#4169e1" stroke="#4169e1" stroke-width="1.5" points="630.15,-131.05 634.28,-121.29 624.96,-126.34 630.15,-131.05"/>
<text text-anchor="middle" x="350.14" y="-281.8" font-family="Arial" font-size="9.00">ALU结果</text>
</g>
<!-- EXMEM_INST -->
<g id="node3" class="node">
<title>EXMEM_INST</title>
<ellipse fill="#e6f3ff" stroke="#4682b4" stroke-width="2" cx="72.57" cy="-158" rx="56.64" ry="21.43"/>
<text text-anchor="middle" x="72.57" y="-161" font-family="Arial" font-size="10.00">EX_MEM_inst</text>
<text text-anchor="middle" x="72.57" y="-150" font-family="Arial" font-size="10.00">指令</text>
</g>
<!-- EXMEM_INST&#45;&gt;MEM_CTRL -->
<g id="edge5" class="edge">
<title>EXMEM_INST&#45;&gt;MEM_CTRL</title>
<path fill="none" stroke="#4169e1" stroke-width="1.5" stroke-dasharray="5,2" d="M129.44,-157.68C145.44,-157.59 163.06,-157.49 179.74,-157.39"/>
<polygon fill="#4169e1" stroke="#4169e1" stroke-width="1.5" points="180,-160.89 189.98,-157.34 179.96,-153.89 180,-160.89"/>
<text text-anchor="middle" x="159.64" y="-159.8" font-family="Arial" font-size="9.00">funct3</text>
</g>
<!-- EXMEM_RS2 -->
<g id="node4" class="node">
<title>EXMEM_RS2</title>
<ellipse fill="#e6f3ff" stroke="#4682b4" stroke-width="2" cx="72.57" cy="-218" rx="54.39" ry="21.43"/>
<text text-anchor="middle" x="72.57" y="-221" font-family="Arial" font-size="10.00">EX_MEM_rs2</text>
<text text-anchor="middle" x="72.57" y="-210" font-family="Arial" font-size="10.00">Store数据</text>
</g>
<!-- STORE_ALIGN -->
<g id="node9" class="node">
<title>STORE_ALIGN</title>
<path fill="#dda0dd" stroke="#9370db" stroke-width="2" d="M488.64,-237C488.64,-237 412.64,-237 412.64,-237 406.64,-237 400.64,-231 400.64,-225 400.64,-225 400.64,-197 400.64,-197 400.64,-191 406.64,-185 412.64,-185 412.64,-185 488.64,-185 488.64,-185 494.64,-185 500.64,-191 500.64,-197 500.64,-197 500.64,-225 500.64,-225 500.64,-231 494.64,-237 488.64,-237"/>
<text text-anchor="middle" x="450.64" y="-225" font-family="Arial" font-size="10.00">Store 数据对齐</text>
<text text-anchor="middle" x="450.64" y="-214" font-family="Arial" font-size="10.00">• 字节对齐</text>
<text text-anchor="middle" x="450.64" y="-203" font-family="Arial" font-size="10.00">• 半字对齐</text>
<text text-anchor="middle" x="450.64" y="-192" font-family="Arial" font-size="10.00">• 字节使能生成</text>
</g>
<!-- EXMEM_RS2&#45;&gt;STORE_ALIGN -->
<g id="edge6" class="edge">
<title>EXMEM_RS2&#45;&gt;STORE_ALIGN</title>
<path fill="none" stroke="#9370db" stroke-width="2" d="M127.05,-217C196.63,-215.71 317.83,-213.45 390.21,-212.11"/>
<polygon fill="#9370db" stroke="#9370db" stroke-width="2" points="390.59,-215.6 400.53,-211.91 390.46,-208.6 390.59,-215.6"/>
<text text-anchor="middle" x="249.64" y="-217.8" font-family="Arial" font-size="9.00">数据</text>
</g>
<!-- HRDATA -->
<g id="node5" class="node">
<title>HRDATA</title>
<ellipse fill="#e6f3ff" stroke="#4682b4" stroke-width="2" cx="72.57" cy="-98" rx="49.49" ry="21.43"/>
<text text-anchor="middle" x="72.57" y="-101" font-family="Arial" font-size="10.00">HRDATA_D</text>
<text text-anchor="middle" x="72.57" y="-90" font-family="Arial" font-size="10.00">读取数据</text>
</g>
<!-- LOAD_ALIGN -->
<g id="node10" class="node">
<title>LOAD_ALIGN</title>
<path fill="#dda0dd" stroke="#9370db" stroke-width="2" d="M498.14,-121C498.14,-121 403.14,-121 403.14,-121 397.14,-121 391.14,-115 391.14,-109 391.14,-109 391.14,-81 391.14,-81 391.14,-75 397.14,-69 403.14,-69 403.14,-69 498.14,-69 498.14,-69 504.14,-69 510.14,-75 510.14,-81 510.14,-81 510.14,-109 510.14,-109 510.14,-115 504.14,-121 498.14,-121"/>
<text text-anchor="middle" x="450.64" y="-109" font-family="Arial" font-size="10.00">Load 数据对齐</text>
<text text-anchor="middle" x="450.64" y="-98" font-family="Arial" font-size="10.00">• 字节扩展 (LB/LBU)</text>
<text text-anchor="middle" x="450.64" y="-87" font-family="Arial" font-size="10.00">• 半字扩展 (LH/LHU)</text>
<text text-anchor="middle" x="450.64" y="-76" font-family="Arial" font-size="10.00">• 字读取 (LW)</text>
</g>
<!-- HRDATA&#45;&gt;LOAD_ALIGN -->
<g id="edge7" class="edge">
<title>HRDATA&#45;&gt;LOAD_ALIGN</title>
<path fill="none" stroke="#20b2aa" stroke-width="2" d="M122.35,-97.61C188.21,-97.09 305.94,-96.15 380.79,-95.55"/>
<polygon fill="#20b2aa" stroke="#20b2aa" stroke-width="2" points="381.09,-99.05 391.06,-95.47 381.03,-92.05 381.09,-99.05"/>
<text text-anchor="middle" x="249.64" y="-100.8" font-family="Arial" font-size="9.00">原始数据</text>
</g>
<!-- HREADY -->
<g id="node6" class="node">
<title>HREADY</title>
<ellipse fill="#e6f3ff" stroke="#4682b4" stroke-width="2" cx="72.57" cy="-38" rx="50.82" ry="21.43"/>
<text text-anchor="middle" x="72.57" y="-41" font-family="Arial" font-size="10.00">HREADY_D</text>
<text text-anchor="middle" x="72.57" y="-30" font-family="Arial" font-size="10.00">AHB就绪</text>
</g>
<!-- HREADY&#45;&gt;MEMWB -->
<g id="edge8" class="edge">
<title>HREADY&#45;&gt;MEMWB</title>
<path fill="none" stroke="#20b2aa" stroke-width="1.5" stroke-dasharray="5,2" d="M123.6,-37.64C205.03,-37.69 371.1,-40.49 510.14,-60 533.63,-63.3 558.84,-68.49 581.79,-73.88"/>
<polygon fill="#20b2aa" stroke="#20b2aa" stroke-width="1.5" points="581.28,-77.35 591.82,-76.28 582.9,-70.55 581.28,-77.35"/>
<text text-anchor="middle" x="350.14" y="-48.8" font-family="Arial" font-size="9.00">就绪</text>
</g>
<!-- MEM_CTRL&#45;&gt;AHB_DATA -->
<g id="edge9" class="edge">
<title>MEM_CTRL&#45;&gt;AHB_DATA</title>
<path fill="none" stroke="#9370db" stroke-width="1.5" d="M309.29,-154.79C362.16,-153.79 441.85,-154.8 510.14,-166 542.52,-171.31 577.7,-181.57 605.91,-190.95"/>
<polygon fill="#9370db" stroke="#9370db" stroke-width="1.5" points="604.98,-194.33 615.57,-194.23 607.22,-187.7 604.98,-194.33"/>
<text text-anchor="middle" x="450.64" y="-168.8" font-family="Arial" font-size="9.00">控制</text>
</g>
<!-- MEM_CTRL&#45;&gt;STORE_ALIGN -->
<g id="edge10" class="edge">
<title>MEM_CTRL&#45;&gt;STORE_ALIGN</title>
<path fill="none" stroke="#9370db" stroke-width="1.5" stroke-dasharray="5,2" d="M309.27,-172.91C334.87,-179.86 364.85,-187.99 390.51,-194.96"/>
<polygon fill="#9370db" stroke="#9370db" stroke-width="1.5" points="389.92,-198.42 400.49,-197.66 391.75,-191.67 389.92,-198.42"/>
<text text-anchor="middle" x="350.14" y="-190.8" font-family="Arial" font-size="9.00">对齐方式</text>
</g>
<!-- MEM_CTRL&#45;&gt;LOAD_ALIGN -->
<g id="edge11" class="edge">
<title>MEM_CTRL&#45;&gt;LOAD_ALIGN</title>
<path fill="none" stroke="#9370db" stroke-width="1.5" stroke-dasharray="5,2" d="M309.27,-138.73C331.94,-131.67 358.04,-123.54 381.53,-116.22"/>
<polygon fill="#9370db" stroke="#9370db" stroke-width="1.5" points="382.58,-119.56 391.08,-113.24 380.49,-112.88 382.58,-119.56"/>
<text text-anchor="middle" x="350.14" y="-134.8" font-family="Arial" font-size="9.00">扩展方式</text>
</g>
<!-- HADDR -->
<g id="node12" class="node">
<title>HADDR</title>
<ellipse fill="#e6ffe6" stroke="#2e8b57" stroke-width="2" cx="828.95" cy="-391" rx="48.17" ry="21.43"/>
<text text-anchor="middle" x="828.95" y="-394" font-family="Arial" font-size="10.00">HADDR_D</text>
<text text-anchor="middle" x="828.95" y="-383" font-family="Arial" font-size="10.00">数据地址</text>
</g>
<!-- AHB_DATA&#45;&gt;HADDR -->
<g id="edge14" class="edge">
<title>AHB_DATA&#45;&gt;HADDR</title>
<path fill="none" stroke="#20b2aa" stroke-width="2" d="M673.84,-237.09C689.08,-269.91 719.23,-326.16 760.14,-361 766.13,-366.11 773.13,-370.48 780.32,-374.19"/>
<polygon fill="#20b2aa" stroke="#20b2aa" stroke-width="2" points="778.92,-377.4 789.46,-378.53 781.93,-371.08 778.92,-377.4"/>
</g>
<!-- HWDATA -->
<g id="node13" class="node">
<title>HWDATA</title>
<ellipse fill="#e6ffe6" stroke="#2e8b57" stroke-width="2" cx="828.95" cy="-331" rx="50.82" ry="21.43"/>
<text text-anchor="middle" x="828.95" y="-334" font-family="Arial" font-size="10.00">HWDATA_D</text>
<text text-anchor="middle" x="828.95" y="-323" font-family="Arial" font-size="10.00">写数据</text>
</g>
<!-- AHB_DATA&#45;&gt;HWDATA -->
<g id="edge15" class="edge">
<title>AHB_DATA&#45;&gt;HWDATA</title>
<path fill="none" stroke="#20b2aa" stroke-width="2" d="M686.37,-237.15C705.02,-256.59 732.41,-282.79 760.14,-301 766.64,-305.27 773.86,-309.2 781.09,-312.71"/>
<polygon fill="#20b2aa" stroke="#20b2aa" stroke-width="2" points="779.65,-315.9 790.2,-316.92 782.59,-309.55 779.65,-315.9"/>
</g>
<!-- HWRITE -->
<g id="node14" class="node">
<title>HWRITE</title>
<ellipse fill="#e6ffe6" stroke="#2e8b57" stroke-width="2" cx="828.95" cy="-271" rx="49.49" ry="21.43"/>
<text text-anchor="middle" x="828.95" y="-274" font-family="Arial" font-size="10.00">HWRITE_D</text>
<text text-anchor="middle" x="828.95" y="-263" font-family="Arial" font-size="10.00">读写控制</text>
</g>
<!-- AHB_DATA&#45;&gt;HWRITE -->
<g id="edge16" class="edge">
<title>AHB_DATA&#45;&gt;HWRITE</title>
<path fill="none" stroke="#20b2aa" stroke-width="1.5" d="M707.81,-227.4C730.56,-235.65 758.12,-245.66 781.1,-254"/>
<polygon fill="#20b2aa" stroke="#20b2aa" stroke-width="1.5" points="780.05,-257.34 790.64,-257.46 782.44,-250.76 780.05,-257.34"/>
</g>
<!-- HSIZE -->
<g id="node15" class="node">
<title>HSIZE</title>
<ellipse fill="#e6ffe6" stroke="#2e8b57" stroke-width="2" cx="828.95" cy="-211" rx="48.17" ry="21.43"/>
<text text-anchor="middle" x="828.95" y="-214" font-family="Arial" font-size="10.00">HSIZE_D</text>
<text text-anchor="middle" x="828.95" y="-203" font-family="Arial" font-size="10.00">传输大小</text>
</g>
<!-- AHB_DATA&#45;&gt;HSIZE -->
<g id="edge17" class="edge">
<title>AHB_DATA&#45;&gt;HSIZE</title>
<path fill="none" stroke="#20b2aa" stroke-width="1.5" d="M707.81,-211C727.19,-211 750.06,-211 770.62,-211"/>
<polygon fill="#20b2aa" stroke="#20b2aa" stroke-width="1.5" points="770.81,-214.5 780.81,-211 770.81,-207.5 770.81,-214.5"/>
</g>
<!-- HTRANS -->
<g id="node16" class="node">
<title>HTRANS</title>
<ellipse fill="#e6ffe6" stroke="#2e8b57" stroke-width="2" cx="828.95" cy="-151" rx="50.41" ry="21.43"/>
<text text-anchor="middle" x="828.95" y="-154" font-family="Arial" font-size="10.00">HTRANS_D</text>
<text text-anchor="middle" x="828.95" y="-143" font-family="Arial" font-size="10.00">传输类型</text>
</g>
<!-- AHB_DATA&#45;&gt;HTRANS -->
<g id="edge18" class="edge">
<title>AHB_DATA&#45;&gt;HTRANS</title>
<path fill="none" stroke="#20b2aa" stroke-width="1.5" d="M707.81,-194.6C730.48,-186.38 757.92,-176.42 780.85,-168.1"/>
<polygon fill="#20b2aa" stroke="#20b2aa" stroke-width="1.5" points="782.17,-171.34 790.37,-164.64 779.78,-164.76 782.17,-171.34"/>
</g>
<!-- STORE_ALIGN&#45;&gt;AHB_DATA -->
<g id="edge12" class="edge">
<title>STORE_ALIGN&#45;&gt;AHB_DATA</title>
<path fill="none" stroke="#9370db" stroke-width="2" d="M500.64,-211C531.99,-211 572.74,-211 605.26,-211"/>
<polygon fill="#9370db" stroke="#9370db" stroke-width="2" points="605.51,-214.5 615.51,-211 605.51,-207.5 605.51,-214.5"/>
<text text-anchor="middle" x="551.14" y="-213.8" font-family="Arial" font-size="9.00">对齐数据</text>
</g>
<!-- LOAD_ALIGN&#45;&gt;MEMWB -->
<g id="edge13" class="edge">
<title>LOAD_ALIGN&#45;&gt;MEMWB</title>
<path fill="none" stroke="#9370db" stroke-width="2" d="M510.41,-95C532.6,-95 558.21,-95 581.93,-95"/>
<polygon fill="#9370db" stroke="#9370db" stroke-width="2" points="581.96,-98.5 591.96,-95 581.96,-91.5 581.96,-98.5"/>
<text text-anchor="middle" x="551.14" y="-97.8" font-family="Arial" font-size="9.00">Load数据</text>
</g>
<!-- MEMWB_DATA -->
<g id="node17" class="node">
<title>MEMWB_DATA</title>
<ellipse fill="#e6ffe6" stroke="#2e8b57" stroke-width="2" cx="828.95" cy="-91" rx="60.62" ry="21.43"/>
<text text-anchor="middle" x="828.95" y="-94" font-family="Arial" font-size="10.00">MEM_WB_data</text>
<text text-anchor="middle" x="828.95" y="-83" font-family="Arial" font-size="10.00">写回数据</text>
</g>
<!-- MEMWB&#45;&gt;MEMWB_DATA -->
<g id="edge19" class="edge">
<title>MEMWB&#45;&gt;MEMWB_DATA</title>
<path fill="none" stroke="#228b22" stroke-width="2" d="M731.31,-93.34C740.11,-93.13 749.12,-92.91 757.94,-92.69"/>
<polygon fill="#228b22" stroke="#228b22" stroke-width="2" points="758.27,-96.19 768.18,-92.45 758.1,-89.19 758.27,-96.19"/>
</g>
<!-- MEMWB_RD -->
<g id="node18" class="node">
<title>MEMWB_RD</title>
<ellipse fill="#e6ffe6" stroke="#2e8b57" stroke-width="2" cx="828.95" cy="-34" rx="44.3" ry="18"/>
<text text-anchor="middle" x="828.95" y="-31.5" font-family="Arial" font-size="10.00">MEM_WB_rd</text>
</g>
<!-- MEMWB&#45;&gt;MEMWB_RD -->
<g id="edge20" class="edge">
<title>MEMWB&#45;&gt;MEMWB_RD</title>
<path fill="none" stroke="#228b22" stroke-width="1.5" d="M731.31,-69.66C749.85,-62.82 769.35,-55.62 785.95,-49.5"/>
<polygon fill="#228b22" stroke="#228b22" stroke-width="1.5" points="787.18,-52.77 795.35,-46.03 784.76,-46.21 787.18,-52.77"/>
</g>
</g>
</svg>
