<?xml version="1.0" encoding="UTF-8" standalone="no"?>
<!DOCTYPE svg PUBLIC "-//W3C//DTD SVG 1.1//EN"
 "http://www.w3.org/Graphics/SVG/1.1/DTD/svg11.dtd">
<!-- Generated by graphviz version 2.43.0 (0)
 -->
<!-- Title: fetch_module Pages: 1 -->
<svg width="820pt" height="525pt"
 viewBox="0.00 0.00 820.10 525.00" xmlns="http://www.w3.org/2000/svg" xmlns:xlink="http://www.w3.org/1999/xlink">
<g id="graph0" class="graph" transform="scale(1 1) rotate(0) translate(4 521)">
<title>fetch_module</title>
<polygon fill="white" stroke="transparent" points="-4,4 -4,-521 816.1,-521 816.1,4 -4,4"/>
<text text-anchor="middle" x="406.05" y="-501.8" font-family="Arial Bold" font-size="14.00">取指模块 (Fetch Stage)</text>
<text text-anchor="middle" x="406.05" y="-486.8" font-family="Arial Bold" font-size="14.00">负责指令取指和 PC 管理</text>
<g id="clust1" class="cluster">
<title>cluster_inputs</title>
<polygon fill="#f0f8ff" stroke="#4169e1" stroke-width="2" points="8,-8 8,-471 139.97,-471 139.97,-8 8,-8"/>
<text text-anchor="middle" x="73.98" y="-455.8" font-family="Arial Bold" font-size="14.00">输入信号</text>
</g>
<g id="clust2" class="cluster">
<title>cluster_module</title>
<path fill="#fffaf0" stroke="#ff8c00" stroke-width="3" d="M194.97,-192C194.97,-192 641.97,-192 641.97,-192 647.97,-192 653.97,-198 653.97,-204 653.97,-204 653.97,-308 653.97,-308 653.97,-314 647.97,-320 641.97,-320 641.97,-320 194.97,-320 194.97,-320 188.97,-320 182.97,-314 182.97,-308 182.97,-308 182.97,-204 182.97,-204 182.97,-198 188.97,-192 194.97,-192"/>
</g>
<g id="clust3" class="cluster">
<title>cluster_outputs</title>
<polygon fill="#f0fff0" stroke="#228b22" stroke-width="2" points="674.97,-127 674.97,-464 804.1,-464 804.1,-127 674.97,-127"/>
<text text-anchor="middle" x="739.53" y="-448.8" font-family="Arial Bold" font-size="14.00">输出信号</text>
</g>
<!-- CLK -->
<g id="node1" class="node">
<title>CLK</title>
<ellipse fill="#e6f3ff" stroke="#4682b4" stroke-width="2" cx="73.98" cy="-228" rx="29.9" ry="22.76"/>
<text text-anchor="middle" x="73.98" y="-231.2" font-family="Arial" font-size="11.00">CLK</text>
<text text-anchor="middle" x="73.98" y="-219.2" font-family="Arial" font-size="11.00">时钟</text>
</g>
<!-- PC -->
<g id="node8" class="node">
<title>PC</title>
<path fill="#ffd700" stroke="#ff8c00" stroke-width="2" d="M440.97,-246C440.97,-246 384.97,-246 384.97,-246 378.97,-246 372.97,-240 372.97,-234 372.97,-234 372.97,-222 372.97,-222 372.97,-216 378.97,-210 384.97,-210 384.97,-210 440.97,-210 440.97,-210 446.97,-210 452.97,-216 452.97,-222 452.97,-222 452.97,-234 452.97,-234 452.97,-240 446.97,-246 440.97,-246"/>
<text text-anchor="middle" x="412.97" y="-231.2" font-family="Arial" font-size="11.00">PC 寄存器</text>
<text text-anchor="middle" x="412.97" y="-219.2" font-family="Arial" font-size="11.00">程序计数器</text>
</g>
<!-- CLK&#45;&gt;PC -->
<g id="edge1" class="edge">
<title>CLK&#45;&gt;PC</title>
<path fill="none" stroke="#ff8c00" stroke-width="1.5" d="M103.71,-228C161.28,-228 291.36,-228 362.76,-228"/>
<polygon fill="#ff8c00" stroke="#ff8c00" stroke-width="1.5" points="362.85,-231.5 372.85,-228 362.85,-224.5 362.85,-231.5"/>
<text text-anchor="middle" x="250.47" y="-230.8" font-family="Arial" font-size="9.00">时钟</text>
</g>
<!-- RES -->
<g id="node2" class="node">
<title>RES</title>
<ellipse fill="#e6f3ff" stroke="#4682b4" stroke-width="2" cx="73.98" cy="-165" rx="29.9" ry="22.76"/>
<text text-anchor="middle" x="73.98" y="-168.2" font-family="Arial" font-size="11.00">RES</text>
<text text-anchor="middle" x="73.98" y="-156.2" font-family="Arial" font-size="11.00">复位</text>
</g>
<!-- RES&#45;&gt;PC -->
<g id="edge2" class="edge">
<title>RES&#45;&gt;PC</title>
<path fill="none" stroke="#ff0000" stroke-width="1.5" d="M103.13,-170.26C160.43,-180.97 291.2,-205.42 362.83,-218.81"/>
<polygon fill="#ff0000" stroke="#ff0000" stroke-width="1.5" points="362.48,-222.31 372.95,-220.71 363.77,-215.43 362.48,-222.31"/>
<text text-anchor="middle" x="250.47" y="-210.8" font-family="Arial" font-size="9.00">复位</text>
</g>
<!-- PC_NEXT -->
<g id="node3" class="node">
<title>PC_NEXT</title>
<ellipse fill="#e6f3ff" stroke="#4682b4" stroke-width="2" cx="73.98" cy="-417" rx="50.41" ry="22.76"/>
<text text-anchor="middle" x="73.98" y="-420.2" font-family="Arial" font-size="11.00">PC_next</text>
<text text-anchor="middle" x="73.98" y="-408.2" font-family="Arial" font-size="11.00">下一个PC</text>
</g>
<!-- PC_CTRL -->
<g id="node9" class="node">
<title>PC_CTRL</title>
<path fill="#ffe4b5" stroke="#ff8c00" stroke-width="2" d="M297.97,-312C297.97,-312 202.97,-312 202.97,-312 196.97,-312 190.97,-306 190.97,-300 190.97,-300 190.97,-272 190.97,-272 190.97,-266 196.97,-260 202.97,-260 202.97,-260 297.97,-260 297.97,-260 303.97,-260 309.97,-266 309.97,-272 309.97,-272 309.97,-300 309.97,-300 309.97,-306 303.97,-312 297.97,-312"/>
<text text-anchor="middle" x="250.47" y="-300" font-family="Arial" font-size="10.00">PC 更新控制</text>
<text text-anchor="middle" x="250.47" y="-289" font-family="Arial" font-size="10.00">• 正常递增: PC+4</text>
<text text-anchor="middle" x="250.47" y="-278" font-family="Arial" font-size="10.00">• 分支跳转: PC_next</text>
<text text-anchor="middle" x="250.47" y="-267" font-family="Arial" font-size="10.00">• 冒险停顿: 保持</text>
</g>
<!-- PC_NEXT&#45;&gt;PC_CTRL -->
<g id="edge3" class="edge">
<title>PC_NEXT&#45;&gt;PC_CTRL</title>
<path fill="none" stroke="#4169e1" stroke-width="1.5" d="M111.43,-401.93C121.03,-397.35 131.15,-391.93 139.97,-386 168.62,-366.71 197.32,-340.17 218.14,-319.28"/>
<polygon fill="#4169e1" stroke="#4169e1" stroke-width="1.5" points="220.64,-321.72 225.17,-312.14 215.66,-316.81 220.64,-321.72"/>
</g>
<!-- BR_TAKEN -->
<g id="node4" class="node">
<title>BR_TAKEN</title>
<ellipse fill="#e6f3ff" stroke="#4682b4" stroke-width="2" cx="73.98" cy="-354" rx="57.97" ry="22.76"/>
<text text-anchor="middle" x="73.98" y="-357.2" font-family="Arial" font-size="11.00">branch_taken</text>
<text text-anchor="middle" x="73.98" y="-345.2" font-family="Arial" font-size="11.00">分支跳转</text>
</g>
<!-- BR_TAKEN&#45;&gt;PC_CTRL -->
<g id="edge4" class="edge">
<title>BR_TAKEN&#45;&gt;PC_CTRL</title>
<path fill="none" stroke="#dc143c" stroke-width="1.5" d="M115.89,-338.06C135.37,-330.47 159.19,-321.18 181.29,-312.57"/>
<polygon fill="#dc143c" stroke="#dc143c" stroke-width="1.5" points="182.59,-315.82 190.64,-308.93 180.05,-309.3 182.59,-315.82"/>
<text text-anchor="middle" x="161.47" y="-326.8" font-family="Arial" font-size="9.00">分支</text>
</g>
<!-- LOAD_BUB -->
<g id="node5" class="node">
<title>LOAD_BUB</title>
<ellipse fill="#e6f3ff" stroke="#4682b4" stroke-width="2" cx="73.98" cy="-291" rx="55.72" ry="22.76"/>
<text text-anchor="middle" x="73.98" y="-294.2" font-family="Arial" font-size="11.00">Load_bubble</text>
<text text-anchor="middle" x="73.98" y="-282.2" font-family="Arial" font-size="11.00">冒险停顿</text>
</g>
<!-- LOAD_BUB&#45;&gt;PC_CTRL -->
<g id="edge5" class="edge">
<title>LOAD_BUB&#45;&gt;PC_CTRL</title>
<path fill="none" stroke="#ff6347" stroke-width="1.5" d="M129.71,-289.43C145.77,-288.97 163.54,-288.46 180.37,-287.98"/>
<polygon fill="#ff6347" stroke="#ff6347" stroke-width="1.5" points="180.8,-291.47 190.7,-287.68 180.6,-284.47 180.8,-291.47"/>
<text text-anchor="middle" x="161.47" y="-290.8" font-family="Arial" font-size="9.00">停顿</text>
</g>
<!-- HRDATA -->
<g id="node6" class="node">
<title>HRDATA</title>
<ellipse fill="#e6f3ff" stroke="#4682b4" stroke-width="2" cx="73.98" cy="-102" rx="50.41" ry="22.76"/>
<text text-anchor="middle" x="73.98" y="-105.2" font-family="Arial" font-size="11.00">HRDATA_I</text>
<text text-anchor="middle" x="73.98" y="-93.2" font-family="Arial" font-size="11.00">指令数据</text>
</g>
<!-- IFID -->
<g id="node11" class="node">
<title>IFID</title>
<path fill="#98fb98" stroke="#228b22" stroke-width="2" d="M633.97,-241.5C633.97,-241.5 538.97,-241.5 538.97,-241.5 532.97,-241.5 526.97,-235.5 526.97,-229.5 526.97,-229.5 526.97,-212.5 526.97,-212.5 526.97,-206.5 532.97,-200.5 538.97,-200.5 538.97,-200.5 633.97,-200.5 633.97,-200.5 639.97,-200.5 645.97,-206.5 645.97,-212.5 645.97,-212.5 645.97,-229.5 645.97,-229.5 645.97,-235.5 639.97,-241.5 633.97,-241.5"/>
<text text-anchor="middle" x="586.47" y="-229.5" font-family="Arial" font-size="10.00">IF/ID 流水线寄存器</text>
<text text-anchor="middle" x="586.47" y="-218.5" font-family="Arial" font-size="10.00">• 锁存指令</text>
<text text-anchor="middle" x="586.47" y="-207.5" font-family="Arial" font-size="10.00">• 锁存 PC</text>
</g>
<!-- HRDATA&#45;&gt;IFID -->
<g id="edge9" class="edge">
<title>HRDATA&#45;&gt;IFID</title>
<path fill="none" stroke="#20b2aa" stroke-width="2" d="M118.95,-112.25C207.98,-133 410.15,-180.13 516.74,-204.98"/>
<polygon fill="#20b2aa" stroke="#20b2aa" stroke-width="2" points="516.22,-208.45 526.75,-207.31 517.81,-201.63 516.22,-208.45"/>
<text text-anchor="middle" x="341.47" y="-168.8" font-family="Arial" font-size="9.00">指令</text>
</g>
<!-- HREADY -->
<g id="node7" class="node">
<title>HREADY</title>
<ellipse fill="#e6f3ff" stroke="#4682b4" stroke-width="2" cx="73.98" cy="-39" rx="51.74" ry="22.76"/>
<text text-anchor="middle" x="73.98" y="-42.2" font-family="Arial" font-size="11.00">HREADY_I</text>
<text text-anchor="middle" x="73.98" y="-30.2" font-family="Arial" font-size="11.00">AHB就绪</text>
</g>
<!-- HREADY&#45;&gt;IFID -->
<g id="edge10" class="edge">
<title>HREADY&#45;&gt;IFID</title>
<path fill="none" stroke="#20b2aa" stroke-width="1.5" stroke-dasharray="5,2" d="M116.06,-52.25C185.73,-74.89 331.37,-122.97 452.97,-168 477.06,-176.92 503.37,-187.31 526.15,-196.52"/>
<polygon fill="#20b2aa" stroke="#20b2aa" stroke-width="1.5" points="525.1,-199.87 535.68,-200.38 527.73,-193.38 525.1,-199.87"/>
<text text-anchor="middle" x="341.47" y="-134.8" font-family="Arial" font-size="9.00">就绪</text>
</g>
<!-- AHB_IF -->
<g id="node10" class="node">
<title>AHB_IF</title>
<path fill="#afeeee" stroke="#20b2aa" stroke-width="2" d="M621.97,-312C621.97,-312 550.97,-312 550.97,-312 544.97,-312 538.97,-306 538.97,-300 538.97,-300 538.97,-272 538.97,-272 538.97,-266 544.97,-260 550.97,-260 550.97,-260 621.97,-260 621.97,-260 627.97,-260 633.97,-266 633.97,-272 633.97,-272 633.97,-300 633.97,-300 633.97,-306 627.97,-312 621.97,-312"/>
<text text-anchor="middle" x="586.47" y="-300" font-family="Arial" font-size="10.00">AHB 指令接口</text>
<text text-anchor="middle" x="586.47" y="-289" font-family="Arial" font-size="10.00">• 发起读请求</text>
<text text-anchor="middle" x="586.47" y="-278" font-family="Arial" font-size="10.00">• NONSEQ 传输</text>
<text text-anchor="middle" x="586.47" y="-267" font-family="Arial" font-size="10.00">• 字访问</text>
</g>
<!-- PC&#45;&gt;AHB_IF -->
<g id="edge6" class="edge">
<title>PC&#45;&gt;AHB_IF</title>
<path fill="none" stroke="#ff8c00" stroke-width="2" d="M453.31,-241.31C475.75,-248.89 504.25,-258.53 529.04,-266.92"/>
<polygon fill="#ff8c00" stroke="#ff8c00" stroke-width="2" points="528.09,-270.29 538.69,-270.18 530.34,-263.66 528.09,-270.29"/>
<text text-anchor="middle" x="489.97" y="-260.8" font-family="Arial" font-size="9.00">当前 PC</text>
</g>
<!-- PC&#45;&gt;IFID -->
<g id="edge8" class="edge">
<title>PC&#45;&gt;IFID</title>
<path fill="none" stroke="#228b22" stroke-width="1.5" stroke-dasharray="5,2" d="M453.31,-226.39C472.09,-225.63 495.12,-224.69 516.67,-223.81"/>
<polygon fill="#228b22" stroke="#228b22" stroke-width="1.5" points="516.92,-227.3 526.77,-223.4 516.64,-220.31 516.92,-227.3"/>
<text text-anchor="middle" x="489.97" y="-227.8" font-family="Arial" font-size="9.00">PC</text>
</g>
<!-- PC_CTRL&#45;&gt;PC -->
<g id="edge7" class="edge">
<title>PC_CTRL&#45;&gt;PC</title>
<path fill="none" stroke="#ff8c00" stroke-width="2" d="M310.32,-264.73C327.67,-258.46 346.46,-251.67 363.11,-245.66"/>
<polygon fill="#ff8c00" stroke="#ff8c00" stroke-width="2" points="364.42,-248.9 372.64,-242.21 362.04,-242.32 364.42,-248.9"/>
<text text-anchor="middle" x="341.47" y="-259.8" font-family="Arial" font-size="9.00">PC 值</text>
</g>
<!-- HADDR -->
<g id="node12" class="node">
<title>HADDR</title>
<ellipse fill="#e6ffe6" stroke="#2e8b57" stroke-width="2" cx="739.53" cy="-410" rx="48.17" ry="22.76"/>
<text text-anchor="middle" x="739.53" y="-413.2" font-family="Arial" font-size="11.00">HADDR_I</text>
<text text-anchor="middle" x="739.53" y="-401.2" font-family="Arial" font-size="11.00">指令地址</text>
</g>
<!-- AHB_IF&#45;&gt;HADDR -->
<g id="edge11" class="edge">
<title>AHB_IF&#45;&gt;HADDR</title>
<path fill="none" stroke="#20b2aa" stroke-width="2" d="M607.61,-312.12C624.11,-332.26 648.9,-359.81 674.97,-379 680.61,-383.16 686.9,-387 693.27,-390.47"/>
<polygon fill="#20b2aa" stroke="#20b2aa" stroke-width="2" points="692.09,-393.8 702.58,-395.27 695.3,-387.58 692.09,-393.8"/>
</g>
<!-- HTRANS -->
<g id="node13" class="node">
<title>HTRANS</title>
<ellipse fill="#e6ffe6" stroke="#2e8b57" stroke-width="2" cx="739.53" cy="-347" rx="50.82" ry="22.76"/>
<text text-anchor="middle" x="739.53" y="-350.2" font-family="Arial" font-size="11.00">HTRANS_I</text>
<text text-anchor="middle" x="739.53" y="-338.2" font-family="Arial" font-size="11.00">传输类型</text>
</g>
<!-- AHB_IF&#45;&gt;HTRANS -->
<g id="edge12" class="edge">
<title>AHB_IF&#45;&gt;HTRANS</title>
<path fill="none" stroke="#20b2aa" stroke-width="1.5" d="M634.02,-304.8C652.33,-312.19 673.32,-320.67 691.66,-328.07"/>
<polygon fill="#20b2aa" stroke="#20b2aa" stroke-width="1.5" points="690.4,-331.34 700.98,-331.84 693.02,-324.85 690.4,-331.34"/>
</g>
<!-- HSIZE -->
<g id="node14" class="node">
<title>HSIZE</title>
<ellipse fill="#e6ffe6" stroke="#2e8b57" stroke-width="2" cx="739.53" cy="-284" rx="48.17" ry="22.76"/>
<text text-anchor="middle" x="739.53" y="-287.2" font-family="Arial" font-size="11.00">HSIZE_I</text>
<text text-anchor="middle" x="739.53" y="-275.2" font-family="Arial" font-size="11.00">传输大小</text>
</g>
<!-- AHB_IF&#45;&gt;HSIZE -->
<g id="edge13" class="edge">
<title>AHB_IF&#45;&gt;HSIZE</title>
<path fill="none" stroke="#20b2aa" stroke-width="1.5" d="M634.02,-285.38C648.96,-285.19 665.67,-284.96 681.28,-284.76"/>
<polygon fill="#20b2aa" stroke="#20b2aa" stroke-width="1.5" points="681.4,-288.26 691.35,-284.62 681.3,-281.26 681.4,-288.26"/>
</g>
<!-- IFID_PC -->
<g id="node15" class="node">
<title>IFID_PC</title>
<ellipse fill="#e6ffe6" stroke="#2e8b57" stroke-width="2" cx="739.53" cy="-221" rx="50.41" ry="22.76"/>
<text text-anchor="middle" x="739.53" y="-224.2" font-family="Arial" font-size="11.00">IF_ID_pc</text>
<text text-anchor="middle" x="739.53" y="-212.2" font-family="Arial" font-size="11.00">流水线PC</text>
</g>
<!-- IFID&#45;&gt;IFID_PC -->
<g id="edge14" class="edge">
<title>IFID&#45;&gt;IFID_PC</title>
<path fill="none" stroke="#228b22" stroke-width="2" d="M646.31,-221C656.98,-221 668.12,-221 678.82,-221"/>
<polygon fill="#228b22" stroke="#228b22" stroke-width="2" points="678.91,-224.5 688.91,-221 678.91,-217.5 678.91,-224.5"/>
</g>
<!-- IFID_INST -->
<g id="node16" class="node">
<title>IFID_INST</title>
<ellipse fill="#e6ffe6" stroke="#2e8b57" stroke-width="2" cx="739.53" cy="-158" rx="56.64" ry="22.76"/>
<text text-anchor="middle" x="739.53" y="-161.2" font-family="Arial" font-size="11.00">IF_ID_inst</text>
<text text-anchor="middle" x="739.53" y="-149.2" font-family="Arial" font-size="11.00">流水线指令</text>
</g>
<!-- IFID&#45;&gt;IFID_INST -->
<g id="edge15" class="edge">
<title>IFID&#45;&gt;IFID_INST</title>
<path fill="none" stroke="#228b22" stroke-width="2" d="M636.93,-200.37C653.91,-193.29 672.89,-185.38 689.8,-178.32"/>
<polygon fill="#228b22" stroke="#228b22" stroke-width="2" points="691.61,-181.36 699.5,-174.28 688.92,-174.9 691.61,-181.36"/>
</g>
</g>
</svg>
