<?xml version="1.0" encoding="UTF-8" standalone="no"?>
<!DOCTYPE svg PUBLIC "-//W3C//DTD SVG 1.1//EN"
 "http://www.w3.org/Graphics/SVG/1.1/DTD/svg11.dtd">
<!-- Generated by graphviz version 2.43.0 (0)
 -->
<!-- Title: decode_module Pages: 1 -->
<svg width="659pt" height="604pt"
 viewBox="0.00 0.00 659.30 604.00" xmlns="http://www.w3.org/2000/svg" xmlns:xlink="http://www.w3.org/1999/xlink">
<g id="graph0" class="graph" transform="scale(1 1) rotate(0) translate(4 600)">
<title>decode_module</title>
<polygon fill="white" stroke="transparent" points="-4,4 -4,-600 655.3,-600 655.3,4 -4,4"/>
<text text-anchor="middle" x="325.65" y="-580.8" font-family="Arial Bold" font-size="14.00">译码模块 (Decode Stage)</text>
<text text-anchor="middle" x="325.65" y="-565.8" font-family="Arial Bold" font-size="14.00">负责指令译码、寄存器读取和冒险检测</text>
<g id="clust1" class="cluster">
<title>cluster_inputs</title>
<polygon fill="#f0f8ff" stroke="#4169e1" stroke-width="2" points="8,-8 8,-497 132.89,-497 132.89,-8 8,-8"/>
<text text-anchor="middle" x="70.45" y="-481.8" font-family="Arial Bold" font-size="14.00">输入信号</text>
</g>
<g id="clust2" class="cluster">
<title>cluster_module</title>
<path fill="#fffaf0" stroke="#2e8b57" stroke-width="3" d="M187.89,-190C187.89,-190 493.89,-190 493.89,-190 499.89,-190 505.89,-196 505.89,-202 505.89,-202 505.89,-538 505.89,-538 505.89,-544 499.89,-550 493.89,-550 493.89,-550 187.89,-550 187.89,-550 181.89,-550 175.89,-544 175.89,-538 175.89,-538 175.89,-202 175.89,-202 175.89,-196 181.89,-190 187.89,-190"/>
</g>
<g id="clust3" class="cluster">
<title>cluster_outputs</title>
<polygon fill="#f0fff0" stroke="#228b22" stroke-width="2" points="526.89,-109 526.89,-514 643.3,-514 643.3,-109 526.89,-109"/>
<text text-anchor="middle" x="585.1" y="-498.8" font-family="Arial Bold" font-size="14.00">输出信号</text>
</g>
<!-- CLK -->
<g id="node1" class="node">
<title>CLK</title>
<ellipse fill="#e6f3ff" stroke="#4682b4" stroke-width="2" cx="70.45" cy="-34" rx="27" ry="18"/>
<text text-anchor="middle" x="70.45" y="-31.5" font-family="Arial" font-size="10.00">CLK</text>
</g>
<!-- IDEX -->
<g id="node14" class="node">
<title>IDEX</title>
<path fill="#ffd700" stroke="#ff8c00" stroke-width="2" d="M485.89,-280C485.89,-280 386.89,-280 386.89,-280 380.89,-280 374.89,-274 374.89,-268 374.89,-268 374.89,-218 374.89,-218 374.89,-212 380.89,-206 386.89,-206 386.89,-206 485.89,-206 485.89,-206 491.89,-206 497.89,-212 497.89,-218 497.89,-218 497.89,-268 497.89,-268 497.89,-274 491.89,-280 485.89,-280"/>
<text text-anchor="middle" x="436.39" y="-268" font-family="Arial" font-size="10.00">ID/EX 流水线寄存器</text>
<text text-anchor="middle" x="436.39" y="-257" font-family="Arial" font-size="10.00">• 指令</text>
<text text-anchor="middle" x="436.39" y="-246" font-family="Arial" font-size="10.00">• PC</text>
<text text-anchor="middle" x="436.39" y="-235" font-family="Arial" font-size="10.00">• 寄存器数据</text>
<text text-anchor="middle" x="436.39" y="-224" font-family="Arial" font-size="10.00">• 立即数</text>
<text text-anchor="middle" x="436.39" y="-213" font-family="Arial" font-size="10.00">• 控制信号</text>
</g>
<!-- CLK&#45;&gt;IDEX -->
<g id="edge1" class="edge">
<title>CLK&#45;&gt;IDEX</title>
<path fill="none" stroke="#ff8c00" stroke-width="1.5" d="M97.07,-37.54C139.8,-44.23 227.4,-61.39 292.89,-97 337.79,-121.41 377.34,-164.68 403.31,-197.79"/>
<polygon fill="#ff8c00" stroke="#ff8c00" stroke-width="1.5" points="400.74,-200.19 409.62,-205.98 406.29,-195.92 400.74,-200.19"/>
<text text-anchor="middle" x="238.39" y="-99.8" font-family="Arial" font-size="9.00">时钟</text>
</g>
<!-- IFID_PC -->
<g id="node2" class="node">
<title>IFID_PC</title>
<ellipse fill="#e6f3ff" stroke="#4682b4" stroke-width="2" cx="70.45" cy="-148" rx="33.61" ry="18"/>
<text text-anchor="middle" x="70.45" y="-145.5" font-family="Arial" font-size="10.00">IF_ID_pc</text>
</g>
<!-- IFID_PC&#45;&gt;IDEX -->
<g id="edge2" class="edge">
<title>IFID_PC&#45;&gt;IDEX</title>
<path fill="none" stroke="#4169e1" stroke-width="1.5" stroke-dasharray="5,2" d="M103.39,-152.08C146.81,-158.04 226.62,-170.47 292.89,-189 316.86,-195.7 342.45,-204.77 365.24,-213.56"/>
<polygon fill="#4169e1" stroke="#4169e1" stroke-width="1.5" points="364.24,-216.92 374.82,-217.3 366.78,-210.4 364.24,-216.92"/>
</g>
<!-- IFID_INST -->
<g id="node3" class="node">
<title>IFID_INST</title>
<ellipse fill="#e6f3ff" stroke="#4682b4" stroke-width="2" cx="70.45" cy="-445" rx="43.68" ry="21.43"/>
<text text-anchor="middle" x="70.45" y="-448" font-family="Arial" font-size="10.00">IF_ID_inst</text>
<text text-anchor="middle" x="70.45" y="-437" font-family="Arial" font-size="10.00">指令</text>
</g>
<!-- DEC -->
<g id="node9" class="node">
<title>DEC</title>
<path fill="#98fb98" stroke="#228b22" stroke-width="2" d="M280.89,-320C280.89,-320 195.89,-320 195.89,-320 189.89,-320 183.89,-314 183.89,-308 183.89,-308 183.89,-280 183.89,-280 183.89,-274 189.89,-268 195.89,-268 195.89,-268 280.89,-268 280.89,-268 286.89,-268 292.89,-274 292.89,-280 292.89,-280 292.89,-308 292.89,-308 292.89,-314 286.89,-320 280.89,-320"/>
<text text-anchor="middle" x="238.39" y="-308" font-family="Arial" font-size="10.00">指令译码器</text>
<text text-anchor="middle" x="238.39" y="-297" font-family="Arial" font-size="10.00">• 识别指令类型</text>
<text text-anchor="middle" x="238.39" y="-286" font-family="Arial" font-size="10.00">• 提取 opcode</text>
<text text-anchor="middle" x="238.39" y="-275" font-family="Arial" font-size="10.00">• 提取 funct3/funct7</text>
</g>
<!-- IFID_INST&#45;&gt;DEC -->
<g id="edge3" class="edge">
<title>IFID_INST&#45;&gt;DEC</title>
<path fill="none" stroke="#4169e1" stroke-width="2" d="M106.85,-433.02C116.23,-428.52 125.73,-422.6 132.89,-415 140.82,-406.59 136.67,-400.73 142.89,-391 151.03,-378.28 158.6,-379.22 165.89,-366 174.12,-351.08 165.47,-342.47 175.89,-329 176.28,-328.5 176.68,-328 177.09,-327.52"/>
<polygon fill="#4169e1" stroke="#4169e1" stroke-width="2" points="179.85,-329.7 184.35,-320.11 174.85,-324.8 179.85,-329.7"/>
<text text-anchor="middle" x="154.39" y="-393.8" font-family="Arial" font-size="9.00">指令</text>
</g>
<!-- IMM_GEN -->
<g id="node10" class="node">
<title>IMM_GEN</title>
<path fill="#90ee90" stroke="#228b22" stroke-width="2" d="M272.89,-482C272.89,-482 203.89,-482 203.89,-482 197.89,-482 191.89,-476 191.89,-470 191.89,-470 191.89,-420 191.89,-420 191.89,-414 197.89,-408 203.89,-408 203.89,-408 272.89,-408 272.89,-408 278.89,-408 284.89,-414 284.89,-420 284.89,-420 284.89,-470 284.89,-470 284.89,-476 278.89,-482 272.89,-482"/>
<text text-anchor="middle" x="238.39" y="-470" font-family="Arial" font-size="10.00">立即数生成器</text>
<text text-anchor="middle" x="238.39" y="-459" font-family="Arial" font-size="10.00">• I型立即数</text>
<text text-anchor="middle" x="238.39" y="-448" font-family="Arial" font-size="10.00">• S型立即数</text>
<text text-anchor="middle" x="238.39" y="-437" font-family="Arial" font-size="10.00">• B型立即数</text>
<text text-anchor="middle" x="238.39" y="-426" font-family="Arial" font-size="10.00">• U型立即数</text>
<text text-anchor="middle" x="238.39" y="-415" font-family="Arial" font-size="10.00">• J型立即数</text>
</g>
<!-- IFID_INST&#45;&gt;IMM_GEN -->
<g id="edge4" class="edge">
<title>IFID_INST&#45;&gt;IMM_GEN</title>
<path fill="none" stroke="#4169e1" stroke-width="1.5" d="M114.61,-445C135.09,-445 159.81,-445 181.68,-445"/>
<polygon fill="#4169e1" stroke="#4169e1" stroke-width="1.5" points="181.83,-448.5 191.83,-445 181.83,-441.5 181.83,-448.5"/>
</g>
<!-- REG_ADDR -->
<g id="node11" class="node">
<title>REG_ADDR</title>
<path fill="#98fb98" stroke="#228b22" stroke-width="2" d="M279.39,-390C279.39,-390 197.39,-390 197.39,-390 191.39,-390 185.39,-384 185.39,-378 185.39,-378 185.39,-350 185.39,-350 185.39,-344 191.39,-338 197.39,-338 197.39,-338 279.39,-338 279.39,-338 285.39,-338 291.39,-344 291.39,-350 291.39,-350 291.39,-378 291.39,-378 291.39,-384 285.39,-390 279.39,-390"/>
<text text-anchor="middle" x="238.39" y="-378" font-family="Arial" font-size="10.00">寄存器地址提取</text>
<text text-anchor="middle" x="238.39" y="-367" font-family="Arial" font-size="10.00">• rs1 [19:15]</text>
<text text-anchor="middle" x="238.39" y="-356" font-family="Arial" font-size="10.00">• rs2 [24:20]</text>
<text text-anchor="middle" x="238.39" y="-345" font-family="Arial" font-size="10.00">• rd [11:7]</text>
</g>
<!-- IFID_INST&#45;&gt;REG_ADDR -->
<g id="edge5" class="edge">
<title>IFID_INST&#45;&gt;REG_ADDR</title>
<path fill="none" stroke="#4169e1" stroke-width="1.5" d="M105.19,-432.05C123.44,-424.71 146.21,-415.01 165.89,-405 170.51,-402.65 171.42,-401.62 175.89,-399 178.08,-397.73 180.3,-396.43 182.56,-395.12"/>
<polygon fill="#4169e1" stroke="#4169e1" stroke-width="1.5" points="184.41,-398.1 191.32,-390.07 180.91,-392.03 184.41,-398.1"/>
</g>
<!-- HAZ -->
<g id="node13" class="node">
<title>HAZ</title>
<path fill="#ffe4e1" stroke="#ff6347" stroke-width="2" d="M277.89,-541.5C277.89,-541.5 198.89,-541.5 198.89,-541.5 192.89,-541.5 186.89,-535.5 186.89,-529.5 186.89,-529.5 186.89,-512.5 186.89,-512.5 186.89,-506.5 192.89,-500.5 198.89,-500.5 198.89,-500.5 277.89,-500.5 277.89,-500.5 283.89,-500.5 289.89,-506.5 289.89,-512.5 289.89,-512.5 289.89,-529.5 289.89,-529.5 289.89,-535.5 283.89,-541.5 277.89,-541.5"/>
<text text-anchor="middle" x="238.39" y="-529.5" font-family="Arial" font-size="10.00">冒险检测单元</text>
<text text-anchor="middle" x="238.39" y="-518.5" font-family="Arial" font-size="10.00">• Load&#45;Use检测</text>
<text text-anchor="middle" x="238.39" y="-507.5" font-family="Arial" font-size="10.00">• 生成bubble信号</text>
</g>
<!-- IFID_INST&#45;&gt;HAZ -->
<g id="edge6" class="edge">
<title>IFID_INST&#45;&gt;HAZ</title>
<path fill="none" stroke="#4169e1" stroke-width="1.5" stroke-dasharray="5,2" d="M103.05,-459.47C125.68,-469.84 156.71,-484.05 183.25,-496.2"/>
<polygon fill="#4169e1" stroke="#4169e1" stroke-width="1.5" points="181.88,-499.43 192.43,-500.41 184.79,-493.06 181.88,-499.43"/>
</g>
<!-- RS1_DATA -->
<g id="node4" class="node">
<title>RS1_DATA</title>
<ellipse fill="#e6f3ff" stroke="#4682b4" stroke-width="2" cx="70.45" cy="-205" rx="42.35" ry="21.43"/>
<text text-anchor="middle" x="70.45" y="-208" font-family="Arial" font-size="10.00">rs1</text>
<text text-anchor="middle" x="70.45" y="-197" font-family="Arial" font-size="10.00">寄存器1</text>
</g>
<!-- FWD -->
<g id="node12" class="node">
<title>FWD</title>
<path fill="#ffe4e1" stroke="#ff6347" stroke-width="2" d="M276.39,-250C276.39,-250 200.39,-250 200.39,-250 194.39,-250 188.39,-244 188.39,-238 188.39,-238 188.39,-210 188.39,-210 188.39,-204 194.39,-198 200.39,-198 200.39,-198 276.39,-198 276.39,-198 282.39,-198 288.39,-204 288.39,-210 288.39,-210 288.39,-238 288.39,-238 288.39,-244 282.39,-250 276.39,-250"/>
<text text-anchor="middle" x="238.39" y="-238" font-family="Arial" font-size="10.00">数据前递单元</text>
<text text-anchor="middle" x="238.39" y="-227" font-family="Arial" font-size="10.00">• EX阶段前递</text>
<text text-anchor="middle" x="238.39" y="-216" font-family="Arial" font-size="10.00">• MEM阶段前递</text>
<text text-anchor="middle" x="238.39" y="-205" font-family="Arial" font-size="10.00">• 选择正确数据</text>
</g>
<!-- RS1_DATA&#45;&gt;FWD -->
<g id="edge7" class="edge">
<title>RS1_DATA&#45;&gt;FWD</title>
<path fill="none" stroke="#d2691e" stroke-width="1.5" d="M112.04,-209.65C131.92,-211.92 156.24,-214.71 178.15,-217.22"/>
<polygon fill="#d2691e" stroke="#d2691e" stroke-width="1.5" points="178.02,-220.72 188.35,-218.38 178.81,-213.77 178.02,-220.72"/>
</g>
<!-- RS2_DATA -->
<g id="node5" class="node">
<title>RS2_DATA</title>
<ellipse fill="#e6f3ff" stroke="#4682b4" stroke-width="2" cx="70.45" cy="-385" rx="42.35" ry="21.43"/>
<text text-anchor="middle" x="70.45" y="-388" font-family="Arial" font-size="10.00">rs2</text>
<text text-anchor="middle" x="70.45" y="-377" font-family="Arial" font-size="10.00">寄存器2</text>
</g>
<!-- RS2_DATA&#45;&gt;FWD -->
<g id="edge8" class="edge">
<title>RS2_DATA&#45;&gt;FWD</title>
<path fill="none" stroke="#d2691e" stroke-width="1.5" d="M105.16,-372.74C114.83,-368.16 124.9,-362.27 132.89,-355 153.7,-336.07 155.17,-327 165.89,-301 173.21,-283.26 164.38,-274.35 175.89,-259 177.3,-257.12 178.84,-255.33 180.49,-253.62"/>
<polygon fill="#d2691e" stroke="#d2691e" stroke-width="1.5" points="183.16,-255.93 188.28,-246.66 178.49,-250.71 183.16,-255.93"/>
</g>
<!-- EX_ALU -->
<g id="node6" class="node">
<title>EX_ALU</title>
<ellipse fill="#e6f3ff" stroke="#4682b4" stroke-width="2" cx="70.45" cy="-325" rx="45.01" ry="21.43"/>
<text text-anchor="middle" x="70.45" y="-328" font-family="Arial" font-size="10.00">ID_EX_alu</text>
<text text-anchor="middle" x="70.45" y="-317" font-family="Arial" font-size="10.00">EX前递</text>
</g>
<!-- EX_ALU&#45;&gt;FWD -->
<g id="edge9" class="edge">
<title>EX_ALU&#45;&gt;FWD</title>
<path fill="none" stroke="#ff6347" stroke-width="1.5" stroke-dasharray="5,2" d="M104.46,-310.7C113.9,-306.13 124.03,-300.75 132.89,-295 153.8,-281.43 155.43,-273.22 175.89,-259 177.52,-257.87 179.19,-256.74 180.88,-255.62"/>
<polygon fill="#ff6347" stroke="#ff6347" stroke-width="1.5" points="182.98,-258.44 189.53,-250.11 179.21,-252.54 182.98,-258.44"/>
<text text-anchor="middle" x="154.39" y="-289.8" font-family="Arial" font-size="9.00">前递</text>
</g>
<!-- EXMEM_ALU -->
<g id="node7" class="node">
<title>EXMEM_ALU</title>
<ellipse fill="#e6f3ff" stroke="#4682b4" stroke-width="2" cx="70.45" cy="-265" rx="54.39" ry="21.43"/>
<text text-anchor="middle" x="70.45" y="-268" font-family="Arial" font-size="10.00">EX_MEM_alu</text>
<text text-anchor="middle" x="70.45" y="-257" font-family="Arial" font-size="10.00">MEM前递</text>
</g>
<!-- EXMEM_ALU&#45;&gt;FWD -->
<g id="edge10" class="edge">
<title>EXMEM_ALU&#45;&gt;FWD</title>
<path fill="none" stroke="#ff6347" stroke-width="1.5" stroke-dasharray="5,2" d="M116.79,-253.8C135.84,-249.09 158.25,-243.55 178.55,-238.54"/>
<polygon fill="#ff6347" stroke="#ff6347" stroke-width="1.5" points="179.45,-241.92 188.32,-236.12 177.77,-235.13 179.45,-241.92"/>
<text text-anchor="middle" x="154.39" y="-248.8" font-family="Arial" font-size="9.00">前递</text>
</g>
<!-- BR_TAKEN -->
<g id="node8" class="node">
<title>BR_TAKEN</title>
<ellipse fill="#e6f3ff" stroke="#4682b4" stroke-width="2" cx="70.45" cy="-91" rx="53.07" ry="21.43"/>
<text text-anchor="middle" x="70.45" y="-94" font-family="Arial" font-size="10.00">branch_taken</text>
<text text-anchor="middle" x="70.45" y="-83" font-family="Arial" font-size="10.00">分支跳转</text>
</g>
<!-- BR_TAKEN&#45;&gt;IDEX -->
<g id="edge11" class="edge">
<title>BR_TAKEN&#45;&gt;IDEX</title>
<path fill="none" stroke="#dc143c" stroke-width="1.5" stroke-dasharray="1,5" d="M119.55,-99.08C165.4,-107.82 235.74,-123.96 292.89,-149 323.84,-162.56 328.67,-171.44 356.89,-190 361.82,-193.24 366.91,-196.62 372.02,-200.02"/>
<polygon fill="#dc143c" stroke="#dc143c" stroke-width="1.5" points="370.35,-203.12 380.61,-205.76 374.24,-197.3 370.35,-203.12"/>
<text text-anchor="middle" x="238.39" y="-151.8" font-family="Arial" font-size="9.00">清空</text>
</g>
<!-- DEC&#45;&gt;IDEX -->
<g id="edge12" class="edge">
<title>DEC&#45;&gt;IDEX</title>
<path fill="none" stroke="#228b22" stroke-width="1.5" d="M292.95,-280.06C315.07,-274.31 341.02,-267.56 364.66,-261.4"/>
<polygon fill="#228b22" stroke="#228b22" stroke-width="1.5" points="365.84,-264.71 374.64,-258.81 364.08,-257.94 365.84,-264.71"/>
<text text-anchor="middle" x="333.89" y="-276.8" font-family="Arial" font-size="9.00">控制信号</text>
</g>
<!-- IMM_GEN&#45;&gt;IDEX -->
<g id="edge13" class="edge">
<title>IMM_GEN&#45;&gt;IDEX</title>
<path fill="none" stroke="#228b22" stroke-width="1.5" d="M283.24,-407.97C286.54,-404.98 289.8,-401.96 292.89,-399 330.05,-363.48 369.22,-320.11 397.07,-288.12"/>
<polygon fill="#228b22" stroke="#228b22" stroke-width="1.5" points="400,-290.09 403.9,-280.24 394.71,-285.51 400,-290.09"/>
<text text-anchor="middle" x="333.89" y="-380.8" font-family="Arial" font-size="9.00">立即数</text>
</g>
<!-- REG_ADDR&#45;&gt;IDEX -->
<g id="edge14" class="edge">
<title>REG_ADDR&#45;&gt;IDEX</title>
<path fill="none" stroke="#228b22" stroke-width="1.5" stroke-dasharray="5,2" d="M281.92,-337.74C306.62,-322.5 338.31,-302.93 366.48,-285.54"/>
<polygon fill="#228b22" stroke="#228b22" stroke-width="1.5" points="368.43,-288.45 375.1,-280.22 364.75,-282.5 368.43,-288.45"/>
<text text-anchor="middle" x="333.89" y="-319.8" font-family="Arial" font-size="9.00">rd</text>
</g>
<!-- FWD&#45;&gt;IDEX -->
<g id="edge15" class="edge">
<title>FWD&#45;&gt;IDEX</title>
<path fill="none" stroke="#228b22" stroke-width="2" d="M288.6,-228.77C311.52,-230.99 339.23,-233.68 364.37,-236.11"/>
<polygon fill="#228b22" stroke="#228b22" stroke-width="2" points="364.3,-239.62 374.59,-237.11 364.97,-232.66 364.3,-239.62"/>
<text text-anchor="middle" x="333.89" y="-237.8" font-family="Arial" font-size="9.00">操作数</text>
</g>
<!-- BUBBLE -->
<g id="node21" class="node">
<title>BUBBLE</title>
<ellipse fill="#e6ffe6" stroke="#2e8b57" stroke-width="2" cx="585.1" cy="-462" rx="50.41" ry="21.43"/>
<text text-anchor="middle" x="585.1" y="-465" font-family="Arial" font-size="10.00">Load_bubble</text>
<text text-anchor="middle" x="585.1" y="-454" font-family="Arial" font-size="10.00">冒险信号</text>
</g>
<!-- HAZ&#45;&gt;BUBBLE -->
<g id="edge16" class="edge">
<title>HAZ&#45;&gt;BUBBLE</title>
<path fill="none" stroke="#ff6347" stroke-width="2" d="M290.26,-512.29C353.81,-501.42 462.2,-482.86 528.07,-471.59"/>
<polygon fill="#ff6347" stroke="#ff6347" stroke-width="2" points="529,-474.98 538.27,-469.84 527.82,-468.08 529,-474.98"/>
</g>
<!-- IDEX_PC -->
<g id="node15" class="node">
<title>IDEX_PC</title>
<ellipse fill="#e6ffe6" stroke="#2e8b57" stroke-width="2" cx="585.1" cy="-351" rx="36.49" ry="18"/>
<text text-anchor="middle" x="585.1" y="-348.5" font-family="Arial" font-size="10.00">ID_EX_pc</text>
</g>
<!-- IDEX&#45;&gt;IDEX_PC -->
<g id="edge17" class="edge">
<title>IDEX&#45;&gt;IDEX_PC</title>
<path fill="none" stroke="#228b22" stroke-width="1.5" d="M473.67,-280.32C489.19,-295.06 508.07,-311.44 526.89,-324 533.11,-328.15 540.07,-332 546.93,-335.42"/>
<polygon fill="#228b22" stroke="#228b22" stroke-width="1.5" points="545.61,-338.67 556.15,-339.8 548.62,-332.35 545.61,-338.67"/>
</g>
<!-- IDEX_INST -->
<g id="node16" class="node">
<title>IDEX_INST</title>
<ellipse fill="#e6ffe6" stroke="#2e8b57" stroke-width="2" cx="585.1" cy="-297" rx="39.38" ry="18"/>
<text text-anchor="middle" x="585.1" y="-294.5" font-family="Arial" font-size="10.00">ID_EX_inst</text>
</g>
<!-- IDEX&#45;&gt;IDEX_INST -->
<g id="edge18" class="edge">
<title>IDEX&#45;&gt;IDEX_INST</title>
<path fill="none" stroke="#228b22" stroke-width="1.5" d="M497.91,-265.28C513.56,-271.04 530.01,-277.09 544.3,-282.35"/>
<polygon fill="#228b22" stroke="#228b22" stroke-width="1.5" points="543.21,-285.68 553.81,-285.85 545.63,-279.11 543.21,-285.68"/>
</g>
<!-- IDEX_RS1 -->
<g id="node17" class="node">
<title>IDEX_RS1</title>
<ellipse fill="#e6ffe6" stroke="#2e8b57" stroke-width="2" cx="585.1" cy="-243" rx="38.03" ry="18"/>
<text text-anchor="middle" x="585.1" y="-240.5" font-family="Arial" font-size="10.00">ID_EX_rs1</text>
</g>
<!-- IDEX&#45;&gt;IDEX_RS1 -->
<g id="edge19" class="edge">
<title>IDEX&#45;&gt;IDEX_RS1</title>
<path fill="none" stroke="#228b22" stroke-width="2" d="M497.91,-243C510.86,-243 524.36,-243 536.73,-243"/>
<polygon fill="#228b22" stroke="#228b22" stroke-width="2" points="536.82,-246.5 546.82,-243 536.82,-239.5 536.82,-246.5"/>
</g>
<!-- IDEX_RS2 -->
<g id="node18" class="node">
<title>IDEX_RS2</title>
<ellipse fill="#e6ffe6" stroke="#2e8b57" stroke-width="2" cx="585.1" cy="-189" rx="38.03" ry="18"/>
<text text-anchor="middle" x="585.1" y="-186.5" font-family="Arial" font-size="10.00">ID_EX_rs2</text>
</g>
<!-- IDEX&#45;&gt;IDEX_RS2 -->
<g id="edge20" class="edge">
<title>IDEX&#45;&gt;IDEX_RS2</title>
<path fill="none" stroke="#228b22" stroke-width="2" d="M497.91,-220.72C513.69,-214.92 530.28,-208.81 544.65,-203.52"/>
<polygon fill="#228b22" stroke="#228b22" stroke-width="2" points="546.03,-206.74 554.2,-200 543.61,-200.17 546.03,-206.74"/>
</g>
<!-- IDEX_RD -->
<g id="node19" class="node">
<title>IDEX_RD</title>
<ellipse fill="#e6ffe6" stroke="#2e8b57" stroke-width="2" cx="585.1" cy="-135" rx="34.96" ry="18"/>
<text text-anchor="middle" x="585.1" y="-132.5" font-family="Arial" font-size="10.00">ID_EX_rd</text>
</g>
<!-- IDEX&#45;&gt;IDEX_RD -->
<g id="edge21" class="edge">
<title>IDEX&#45;&gt;IDEX_RD</title>
<path fill="none" stroke="#228b22" stroke-width="1.5" d="M473.67,-205.68C489.19,-190.94 508.07,-174.56 526.89,-162 533.3,-157.73 540.49,-153.77 547.55,-150.27"/>
<polygon fill="#228b22" stroke="#228b22" stroke-width="1.5" points="549.47,-153.24 557.02,-145.81 546.48,-146.91 549.47,-153.24"/>
</g>
<!-- IDEX_IMM -->
<g id="node20" class="node">
<title>IDEX_IMM</title>
<ellipse fill="#e6ffe6" stroke="#2e8b57" stroke-width="2" cx="585.1" cy="-405" rx="41.41" ry="18"/>
<text text-anchor="middle" x="585.1" y="-402.5" font-family="Arial" font-size="10.00">ID_EX_imm</text>
</g>
<!-- IDEX&#45;&gt;IDEX_IMM -->
<g id="edge22" class="edge">
<title>IDEX&#45;&gt;IDEX_IMM</title>
<path fill="none" stroke="#228b22" stroke-width="2" d="M454.94,-280.27C470.42,-309.91 495.42,-350.77 526.89,-378 531.8,-382.24 537.49,-385.97 543.33,-389.18"/>
<polygon fill="#228b22" stroke="#228b22" stroke-width="2" points="542.06,-392.46 552.56,-393.82 545.2,-386.2 542.06,-392.46"/>
</g>
</g>
</svg>
