<?xml version="1.0" encoding="UTF-8" standalone="no"?>
<!DOCTYPE svg PUBLIC "-//W3C//DTD SVG 1.1//EN"
 "http://www.w3.org/Graphics/SVG/1.1/DTD/svg11.dtd">
<!-- Generated by graphviz version 2.43.0 (0)
 -->
<!-- Title: pipeline_architecture Pages: 1 -->
<svg width="1857pt" height="477pt"
 viewBox="0.00 0.00 1857.00 477.00" xmlns="http://www.w3.org/2000/svg" xmlns:xlink="http://www.w3.org/1999/xlink">
<g id="graph0" class="graph" transform="scale(1 1) rotate(0) translate(4 473)">
<title>pipeline_architecture</title>
<polygon fill="white" stroke="transparent" points="-4,4 -4,-473 1853,-473 1853,4 -4,4"/>
<g id="clust1" class="cluster">
<title>cluster_pipeline</title>
<path fill="#f0f8ff" stroke="#4169e1" stroke-width="2" d="M20,-258C20,-258 1829,-258 1829,-258 1835,-258 1841,-264 1841,-270 1841,-270 1841,-405 1841,-405 1841,-411 1835,-417 1829,-417 1829,-417 20,-417 20,-417 14,-417 8,-411 8,-405 8,-405 8,-270 8,-270 8,-264 14,-258 20,-258"/>
<text text-anchor="middle" x="924.5" y="-401.8" font-family="Arial" font-size="14.00">五级流水线处理器 (Five&#45;Stage Pipeline Processor)</text>
</g>
<g id="clust2" class="cluster">
<title>cluster_control</title>
<polygon fill="#fafafa" stroke="#808080" stroke-dasharray="5,2" points="627,-124 627,-250 768,-250 768,-124 627,-124"/>
<text text-anchor="middle" x="697.5" y="-131.2" font-family="Arial" font-size="11.00">控制单元 (Control Units)</text>
</g>
<g id="clust3" class="cluster">
<title>cluster_memory</title>
<polygon fill="#fafafa" stroke="#808080" stroke-dasharray="5,2" points="1051,-8 1051,-145 1231,-145 1231,-8 1051,-8"/>
<text text-anchor="middle" x="1141" y="-15.2" font-family="Arial" font-size="11.00">存储器接口 (Memory Interfaces)</text>
</g>
<!-- IF -->
<g id="node1" class="node">
<title>IF</title>
<polygon fill="#e6f3ff" stroke="#4682b4" stroke-width="2" points="16,-266.5 16,-329.5 177,-329.5 177,-266.5 16,-266.5"/>
<text text-anchor="middle" x="56.5" y="-294.9" font-family="Arial" font-size="12.00">IF 取指阶段</text>
<polyline fill="none" stroke="#4682b4" stroke-width="2" points="97,-266.5 97,-329.5 "/>
<text text-anchor="middle" x="137" y="-315.9" font-family="Arial" font-size="12.00">PC 寄存器</text>
<polyline fill="none" stroke="#4682b4" stroke-width="2" points="97,-308.5 177,-308.5 "/>
<text text-anchor="middle" x="137" y="-294.9" font-family="Arial" font-size="12.00">指令存储器</text>
<polyline fill="none" stroke="#4682b4" stroke-width="2" points="97,-287.5 177,-287.5 "/>
<text text-anchor="middle" x="137" y="-273.9" font-family="Arial" font-size="12.00">PC+4</text>
</g>
<!-- IFID -->
<g id="node2" class="node">
<title>IFID</title>
<polygon fill="#ffd700" stroke="#ff8c00" stroke-width="2" points="307,-327 214,-327 214,-269 307,-269 307,-327"/>
<text text-anchor="middle" x="260.5" y="-301.4" font-family="Arial" font-size="12.00">IF/ID</text>
<text text-anchor="middle" x="260.5" y="-288.4" font-family="Arial" font-size="12.00">流水线寄存器</text>
</g>
<!-- IF&#45;&gt;IFID -->
<g id="edge1" class="edge">
<title>IF&#45;&gt;IFID</title>
<path fill="none" stroke="#4169e1" stroke-width="2" d="M177.08,-298C186.06,-298 195.08,-298 203.67,-298"/>
<polygon fill="#4169e1" stroke="#4169e1" stroke-width="2" points="203.91,-301.5 213.91,-298 203.91,-294.5 203.91,-301.5"/>
</g>
<!-- IMEM -->
<g id="node13" class="node">
<title>IMEM</title>
<path fill="#e0ffff" stroke="#20b2aa" stroke-width="2" d="M1182,-136.5C1182,-136.5 1100,-136.5 1100,-136.5 1094,-136.5 1088,-130.5 1088,-124.5 1088,-124.5 1088,-107.5 1088,-107.5 1088,-101.5 1094,-95.5 1100,-95.5 1100,-95.5 1182,-95.5 1182,-95.5 1188,-95.5 1194,-101.5 1194,-107.5 1194,-107.5 1194,-124.5 1194,-124.5 1194,-130.5 1188,-136.5 1182,-136.5"/>
<text text-anchor="middle" x="1141" y="-124.5" font-family="Arial" font-size="10.00">指令存储器接口</text>
<text text-anchor="middle" x="1141" y="-113.5" font-family="Arial" font-size="10.00">Instruction Memory</text>
<text text-anchor="middle" x="1141" y="-102.5" font-family="Arial" font-size="10.00">(AHB)</text>
</g>
<!-- IF&#45;&gt;IMEM -->
<g id="edge19" class="edge">
<title>IF&#45;&gt;IMEM</title>
<path fill="none" stroke="#4682b4" stroke-width="1.5" d="M107.73,-266.3C127.54,-211.76 176.63,-106 259.5,-106 259.5,-106 259.5,-106 933,-106 981.59,-106 1036.53,-108.78 1077.59,-111.41"/>
<polygon fill="#4682b4" stroke="#4682b4" stroke-width="1.5" points="1077.51,-114.92 1087.71,-112.08 1077.96,-107.93 1077.51,-114.92"/>
<text text-anchor="middle" x="588.5" y="-108.8" font-family="Arial" font-size="9.00">取指请求</text>
</g>
<!-- ID -->
<g id="node3" class="node">
<title>ID</title>
<polygon fill="#e6ffe6" stroke="#2e8b57" stroke-width="2" points="366,-266.5 366,-329.5 542,-329.5 542,-266.5 366,-266.5"/>
<text text-anchor="middle" x="407.5" y="-294.9" font-family="Arial" font-size="12.00">ID 译码阶段</text>
<polyline fill="none" stroke="#2e8b57" stroke-width="2" points="449,-266.5 449,-329.5 "/>
<text text-anchor="middle" x="495.5" y="-315.9" font-family="Arial" font-size="12.00">指令译码器</text>
<polyline fill="none" stroke="#2e8b57" stroke-width="2" points="449,-308.5 542,-308.5 "/>
<text text-anchor="middle" x="495.5" y="-294.9" font-family="Arial" font-size="12.00">寄存器堆读取</text>
<polyline fill="none" stroke="#2e8b57" stroke-width="2" points="449,-287.5 542,-287.5 "/>
<text text-anchor="middle" x="495.5" y="-273.9" font-family="Arial" font-size="12.00">立即数生成</text>
</g>
<!-- IFID&#45;&gt;ID -->
<g id="edge2" class="edge">
<title>IFID&#45;&gt;ID</title>
<path fill="none" stroke="#4169e1" stroke-width="2" d="M307.37,-298C321.94,-298 338.65,-298 355.43,-298"/>
<polygon fill="#4169e1" stroke="#4169e1" stroke-width="2" points="355.87,-301.5 365.87,-298 355.87,-294.5 355.87,-301.5"/>
</g>
<!-- IDEX -->
<g id="node4" class="node">
<title>IDEX</title>
<polygon fill="#ffd700" stroke="#ff8c00" stroke-width="2" points="744,-327 651,-327 651,-269 744,-269 744,-327"/>
<text text-anchor="middle" x="697.5" y="-301.4" font-family="Arial" font-size="12.00">ID/EX</text>
<text text-anchor="middle" x="697.5" y="-288.4" font-family="Arial" font-size="12.00">流水线寄存器</text>
</g>
<!-- ID&#45;&gt;IDEX -->
<g id="edge3" class="edge">
<title>ID&#45;&gt;IDEX</title>
<path fill="none" stroke="#4169e1" stroke-width="2" d="M542.19,-298C575.06,-298 611.54,-298 640.77,-298"/>
<polygon fill="#4169e1" stroke="#4169e1" stroke-width="2" points="640.79,-301.5 650.79,-298 640.79,-294.5 640.79,-301.5"/>
</g>
<!-- RF -->
<g id="node10" class="node">
<title>RF</title>
<path fill="#ffebcd" stroke="#d2691e" stroke-width="2" d="M724,-469C724,-469 671,-469 671,-469 665,-469 659,-463 659,-457 659,-457 659,-437 659,-437 659,-431 665,-425 671,-425 671,-425 724,-425 724,-425 730,-425 736,-431 736,-437 736,-437 736,-457 736,-457 736,-463 730,-469 724,-469"/>
<text text-anchor="middle" x="697.5" y="-456.2" font-family="Arial" font-size="11.00">寄存器堆</text>
<text text-anchor="middle" x="697.5" y="-444.2" font-family="Arial" font-size="11.00">Register File</text>
<text text-anchor="middle" x="697.5" y="-432.2" font-family="Arial" font-size="11.00">(32 × 32&#45;bit)</text>
</g>
<!-- ID&#45;&gt;RF -->
<g id="edge9" class="edge">
<title>ID&#45;&gt;RF</title>
<path fill="none" stroke="#2e8b57" stroke-width="1.5" stroke-dasharray="5,2" d="M526.34,-329.62C532.08,-333.91 537.42,-338.7 542,-344 557.7,-362.2 543.27,-377.74 560,-395 582.23,-417.93 597.15,-409.63 627,-421 634.28,-423.77 642,-426.69 649.54,-429.52"/>
<polygon fill="#2e8b57" stroke="#2e8b57" stroke-width="1.5" points="648.36,-432.82 658.96,-433.05 650.82,-426.26 648.36,-432.82"/>
<text text-anchor="middle" x="588.5" y="-419.8" font-family="Arial" font-size="9.00">读 rs1/rs2</text>
</g>
<!-- HAZ -->
<g id="node12" class="node">
<title>HAZ</title>
<path fill="#ffe4e1" stroke="#ff6347" stroke-width="2" d="M732,-242C732,-242 663,-242 663,-242 657,-242 651,-236 651,-230 651,-230 651,-218 651,-218 651,-212 657,-206 663,-206 663,-206 732,-206 732,-206 738,-206 744,-212 744,-218 744,-218 744,-230 744,-230 744,-236 738,-242 732,-242"/>
<text text-anchor="middle" x="697.5" y="-227" font-family="Arial" font-size="10.00">冒险检测单元</text>
<text text-anchor="middle" x="697.5" y="-216" font-family="Arial" font-size="10.00">Hazard Detection</text>
</g>
<!-- ID&#45;&gt;HAZ -->
<g id="edge15" class="edge">
<title>ID&#45;&gt;HAZ</title>
<path fill="none" stroke="#a0a0a0" stroke-dasharray="5,2" d="M542.31,-274.28C566.59,-267.39 592.9,-259.66 617,-252 624.92,-249.48 633.24,-246.71 641.38,-243.91"/>
<polygon fill="#a0a0a0" stroke="#a0a0a0" points="642.54,-247.21 650.84,-240.63 640.25,-240.6 642.54,-247.21"/>
</g>
<!-- EX -->
<g id="node5" class="node">
<title>EX</title>
<polygon fill="#ffe6e6" stroke="#dc143c" stroke-width="2" points="842,-266.5 842,-329.5 1022,-329.5 1022,-266.5 842,-266.5"/>
<text text-anchor="middle" x="885.5" y="-294.9" font-family="Arial" font-size="12.00">EX 执行阶段</text>
<polyline fill="none" stroke="#dc143c" stroke-width="2" points="929,-266.5 929,-329.5 "/>
<text text-anchor="middle" x="975.5" y="-315.9" font-family="Arial" font-size="12.00">ALU 运算</text>
<polyline fill="none" stroke="#dc143c" stroke-width="2" points="929,-308.5 1022,-308.5 "/>
<text text-anchor="middle" x="975.5" y="-294.9" font-family="Arial" font-size="12.00">分支判断</text>
<polyline fill="none" stroke="#dc143c" stroke-width="2" points="929,-287.5 1022,-287.5 "/>
<text text-anchor="middle" x="975.5" y="-273.9" font-family="Arial" font-size="12.00">跳转地址计算</text>
</g>
<!-- IDEX&#45;&gt;EX -->
<g id="edge4" class="edge">
<title>IDEX&#45;&gt;EX</title>
<path fill="none" stroke="#4169e1" stroke-width="2" d="M744.16,-298C769.11,-298 801.04,-298 831.42,-298"/>
<polygon fill="#4169e1" stroke="#4169e1" stroke-width="2" points="831.66,-301.5 841.66,-298 831.66,-294.5 831.66,-301.5"/>
</g>
<!-- EX&#45;&gt;IF -->
<g id="edge23" class="edge">
<title>EX&#45;&gt;IF</title>
<path fill="none" stroke="#0000ff" stroke-width="2" d="M841.97,-322.63C818.13,-328.16 792.25,-333.21 768,-336 705.74,-343.16 689,-345.1 627,-336 622.41,-335.33 621.59,-333.67 617,-333 591.94,-329.32 585.01,-328.94 560,-333 551.68,-334.35 550.32,-337.65 542,-339 398.1,-362.35 357.74,-360.31 214,-336 205.14,-334.5 196.04,-332.46 187.01,-330.11"/>
<polygon fill="#0000ff" stroke="#0000ff" stroke-width="2" points="187.82,-326.7 177.25,-327.43 185.97,-333.45 187.82,-326.7"/>
<text text-anchor="middle" x="454" y="-367.8" font-family="Arial" font-size="9.00">分支跳转</text>
<text text-anchor="middle" x="454" y="-357.8" font-family="Arial" font-size="9.00">目标地址</text>
</g>
<!-- EXMEM -->
<g id="node6" class="node">
<title>EXMEM</title>
<polygon fill="#ffd700" stroke="#ff8c00" stroke-width="2" points="1187.5,-327 1094.5,-327 1094.5,-269 1187.5,-269 1187.5,-327"/>
<text text-anchor="middle" x="1141" y="-301.4" font-family="Arial" font-size="12.00">EX/MEM</text>
<text text-anchor="middle" x="1141" y="-288.4" font-family="Arial" font-size="12.00">流水线寄存器</text>
</g>
<!-- EX&#45;&gt;EXMEM -->
<g id="edge5" class="edge">
<title>EX&#45;&gt;EXMEM</title>
<path fill="none" stroke="#4169e1" stroke-width="2" d="M1022.29,-298C1043.25,-298 1065,-298 1084.01,-298"/>
<polygon fill="#4169e1" stroke="#4169e1" stroke-width="2" points="1084.28,-301.5 1094.28,-298 1084.28,-294.5 1084.28,-301.5"/>
</g>
<!-- FWD -->
<g id="node11" class="node">
<title>FWD</title>
<path fill="#ffe4e1" stroke="#ff6347" stroke-width="2" d="M732,-188C732,-188 663,-188 663,-188 657,-188 651,-182 651,-176 651,-176 651,-164 651,-164 651,-158 657,-152 663,-152 663,-152 732,-152 732,-152 738,-152 744,-158 744,-164 744,-164 744,-176 744,-176 744,-182 738,-188 732,-188"/>
<text text-anchor="middle" x="697.5" y="-173" font-family="Arial" font-size="10.00">数据前递单元</text>
<text text-anchor="middle" x="697.5" y="-162" font-family="Arial" font-size="10.00">Forwarding Unit</text>
</g>
<!-- EX&#45;&gt;FWD -->
<g id="edge12" class="edge">
<title>EX&#45;&gt;FWD</title>
<path fill="none" stroke="#a0a0a0" stroke-dasharray="5,2" d="M886.15,-266.47C854.24,-244.98 809.77,-216.91 768,-197 763.37,-194.79 758.51,-192.62 753.6,-190.53"/>
<polygon fill="#a0a0a0" stroke="#a0a0a0" points="754.73,-187.21 744.15,-186.62 752.05,-193.68 754.73,-187.21"/>
</g>
<!-- EX&#45;&gt;HAZ -->
<g id="edge16" class="edge">
<title>EX&#45;&gt;HAZ</title>
<path fill="none" stroke="#a0a0a0" stroke-dasharray="5,2" d="M841.79,-288.41C819.94,-283.51 797.31,-276.12 778,-265 772.28,-261.7 773.38,-257.84 768,-254 763.45,-250.75 758.5,-247.76 753.41,-245.02"/>
<polygon fill="#a0a0a0" stroke="#a0a0a0" points="754.64,-241.72 744.13,-240.37 751.5,-247.98 754.64,-241.72"/>
</g>
<!-- MEM -->
<g id="node7" class="node">
<title>MEM</title>
<polygon fill="#f0e6ff" stroke="#9370db" stroke-width="2" points="1305,-266.5 1305,-329.5 1483,-329.5 1483,-266.5 1305,-266.5"/>
<text text-anchor="middle" x="1354" y="-294.9" font-family="Arial" font-size="12.00">MEM 访存阶段</text>
<polyline fill="none" stroke="#9370db" stroke-width="2" points="1403,-266.5 1403,-329.5 "/>
<text text-anchor="middle" x="1443" y="-315.9" font-family="Arial" font-size="12.00">数据存储器</text>
<polyline fill="none" stroke="#9370db" stroke-width="2" points="1403,-308.5 1483,-308.5 "/>
<text text-anchor="middle" x="1443" y="-294.9" font-family="Arial" font-size="12.00">Load/Store</text>
<polyline fill="none" stroke="#9370db" stroke-width="2" points="1403,-287.5 1483,-287.5 "/>
<text text-anchor="middle" x="1443" y="-273.9" font-family="Arial" font-size="12.00">数据对齐</text>
</g>
<!-- EXMEM&#45;&gt;MEM -->
<g id="edge6" class="edge">
<title>EXMEM&#45;&gt;MEM</title>
<path fill="none" stroke="#4169e1" stroke-width="2" d="M1187.75,-298C1217.6,-298 1257.74,-298 1294.6,-298"/>
<polygon fill="#4169e1" stroke="#4169e1" stroke-width="2" points="1294.9,-301.5 1304.9,-298 1294.9,-294.5 1294.9,-301.5"/>
</g>
<!-- MEMWB -->
<g id="node8" class="node">
<title>MEMWB</title>
<polygon fill="#ffd700" stroke="#ff8c00" stroke-width="2" points="1613,-339 1520,-339 1520,-281 1613,-281 1613,-339"/>
<text text-anchor="middle" x="1566.5" y="-313.4" font-family="Arial" font-size="12.00">MEM/WB</text>
<text text-anchor="middle" x="1566.5" y="-300.4" font-family="Arial" font-size="12.00">流水线寄存器</text>
</g>
<!-- MEM&#45;&gt;MEMWB -->
<g id="edge7" class="edge">
<title>MEM&#45;&gt;MEMWB</title>
<path fill="none" stroke="#4169e1" stroke-width="2" d="M1483.25,-304.21C1492.26,-304.85 1501.23,-305.48 1509.74,-306.08"/>
<polygon fill="#4169e1" stroke="#4169e1" stroke-width="2" points="1509.67,-309.58 1519.89,-306.79 1510.16,-302.6 1509.67,-309.58"/>
</g>
<!-- MEM&#45;&gt;FWD -->
<g id="edge13" class="edge">
<title>MEM&#45;&gt;FWD</title>
<path fill="none" stroke="#a0a0a0" stroke-dasharray="5,2" d="M1304.94,-276.28C1281.02,-270.67 1255.07,-264.85 1231,-260 1057.9,-225.11 851.29,-192.84 754.16,-178.23"/>
<polygon fill="#a0a0a0" stroke="#a0a0a0" points="754.67,-174.76 744.27,-176.74 753.64,-181.69 754.67,-174.76"/>
</g>
<!-- DMEM -->
<g id="node14" class="node">
<title>DMEM</title>
<path fill="#e0ffff" stroke="#20b2aa" stroke-width="2" d="M1182,-77.5C1182,-77.5 1100,-77.5 1100,-77.5 1094,-77.5 1088,-71.5 1088,-65.5 1088,-65.5 1088,-48.5 1088,-48.5 1088,-42.5 1094,-36.5 1100,-36.5 1100,-36.5 1182,-36.5 1182,-36.5 1188,-36.5 1194,-42.5 1194,-48.5 1194,-48.5 1194,-65.5 1194,-65.5 1194,-71.5 1188,-77.5 1182,-77.5"/>
<text text-anchor="middle" x="1141" y="-65.5" font-family="Arial" font-size="10.00">数据存储器接口</text>
<text text-anchor="middle" x="1141" y="-54.5" font-family="Arial" font-size="10.00">Data Memory</text>
<text text-anchor="middle" x="1141" y="-43.5" font-family="Arial" font-size="10.00">(AHB)</text>
</g>
<!-- MEM&#45;&gt;DMEM -->
<g id="edge21" class="edge">
<title>MEM&#45;&gt;DMEM</title>
<path fill="none" stroke="#9370db" stroke-width="1.5" d="M1384.37,-266.47C1370.85,-222.92 1340.5,-144.79 1287,-101 1263.61,-81.86 1232.01,-71.03 1204.28,-64.92"/>
<polygon fill="#9370db" stroke="#9370db" stroke-width="1.5" points="1204.76,-61.44 1194.26,-62.87 1203.36,-68.3 1204.76,-61.44"/>
<text text-anchor="middle" x="1264" y="-103.8" font-family="Arial" font-size="9.00">访存请求</text>
</g>
<!-- WB -->
<g id="node9" class="node">
<title>WB</title>
<polygon fill="#fff0e6" stroke="#ff8c00" stroke-width="2" points="1650,-329 1650,-371 1833,-371 1833,-329 1650,-329"/>
<text text-anchor="middle" x="1695" y="-346.9" font-family="Arial" font-size="12.00">WB 写回阶段</text>
<polyline fill="none" stroke="#ff8c00" stroke-width="2" points="1740,-329 1740,-371 "/>
<text text-anchor="middle" x="1786.5" y="-357.4" font-family="Arial" font-size="12.00">写回数据选择</text>
<polyline fill="none" stroke="#ff8c00" stroke-width="2" points="1740,-350 1833,-350 "/>
<text text-anchor="middle" x="1786.5" y="-336.4" font-family="Arial" font-size="12.00">寄存器堆写入</text>
</g>
<!-- MEMWB&#45;&gt;WB -->
<g id="edge8" class="edge">
<title>MEMWB&#45;&gt;WB</title>
<path fill="none" stroke="#4169e1" stroke-width="2" d="M1613.41,-320.61C1621.71,-322.53 1630.67,-324.6 1639.84,-326.73"/>
<polygon fill="#4169e1" stroke="#4169e1" stroke-width="2" points="1639.32,-330.2 1649.85,-329.04 1640.9,-323.38 1639.32,-330.2"/>
</g>
<!-- WB&#45;&gt;RF -->
<g id="edge11" class="edge">
<title>WB&#45;&gt;RF</title>
<path fill="none" stroke="#ff8c00" stroke-width="2" d="M1649.81,-370.27C1623.41,-374.65 1594.43,-378 1567.5,-378 931,-378 931,-378 931,-378 894.88,-378 802.74,-408.99 745.9,-429.44"/>
<polygon fill="#ff8c00" stroke="#ff8c00" stroke-width="2" points="744.62,-426.18 736.4,-432.87 747,-432.76 744.62,-426.18"/>
<text text-anchor="middle" x="1264" y="-380.8" font-family="Arial" font-size="9.00">写回 rd</text>
</g>
<!-- RF&#45;&gt;ID -->
<g id="edge10" class="edge">
<title>RF&#45;&gt;ID</title>
<path fill="none" stroke="#2e8b57" stroke-width="1.5" stroke-dasharray="5,2" d="M658.64,-440.04C647.07,-436.19 635.24,-430.22 627,-421 614.79,-407.33 628.4,-395.35 617,-381 599.93,-359.51 575.81,-343.05 551.37,-330.68"/>
<polygon fill="#2e8b57" stroke="#2e8b57" stroke-width="1.5" points="552.89,-327.53 542.37,-326.3 549.83,-333.82 552.89,-327.53"/>
<text text-anchor="middle" x="588.5" y="-383.8" font-family="Arial" font-size="9.00">寄存器数据</text>
</g>
<!-- FWD&#45;&gt;EX -->
<g id="edge14" class="edge">
<title>FWD&#45;&gt;EX</title>
<path fill="none" stroke="#ff6347" stroke-width="2" d="M744.02,-180.92C752.89,-184.79 761.46,-190 768,-197 778.17,-207.89 768.12,-217.85 778,-229 779.47,-230.66 814.11,-246.33 850.06,-262.32"/>
<polygon fill="#ff6347" stroke="#ff6347" stroke-width="2" points="848.65,-265.52 859.21,-266.38 851.49,-259.12 848.65,-265.52"/>
<text text-anchor="middle" x="801" y="-251.8" font-family="Arial" font-size="9.00">前递数据</text>
</g>
<!-- HAZ&#45;&gt;IF -->
<g id="edge17" class="edge">
<title>HAZ&#45;&gt;IF</title>
<path fill="none" stroke="#ff0000" stroke-width="2" stroke-dasharray="1,5" d="M650.72,-219.28C639.69,-218.33 627.94,-217.48 617,-217 591.69,-215.89 585.33,-216.93 560,-217 473.78,-217.22 451.41,-206.19 366,-218 296.57,-227.6 281.11,-239.79 214,-260 205.16,-262.66 195.96,-265.52 186.79,-268.42"/>
<polygon fill="#ff0000" stroke="#ff0000" stroke-width="2" points="185.72,-265.08 177.25,-271.45 187.84,-271.75 185.72,-265.08"/>
<text text-anchor="middle" x="336.5" y="-227.8" font-family="Arial" font-size="9.00">停顿</text>
</g>
<!-- HAZ&#45;&gt;IFID -->
<g id="edge18" class="edge">
<title>HAZ&#45;&gt;IFID</title>
<path fill="none" stroke="#ff0000" stroke-width="2" stroke-dasharray="1,5" d="M650.97,-221.73C586.39,-219.73 465.03,-220.47 366,-247 349.13,-251.52 331.73,-258.81 316.08,-266.48"/>
<polygon fill="#ff0000" stroke="#ff0000" stroke-width="2" points="314.43,-263.39 307.08,-271.02 317.59,-269.64 314.43,-263.39"/>
<text text-anchor="middle" x="454" y="-249.8" font-family="Arial" font-size="9.00">气泡</text>
</g>
<!-- IMEM&#45;&gt;IF -->
<g id="edge20" class="edge">
<title>IMEM&#45;&gt;IF</title>
<path fill="none" stroke="#4682b4" stroke-width="1.5" d="M1087.91,-101.08C1036.91,-86.99 962.7,-68 933,-68 259.5,-68 259.5,-68 259.5,-68 168.45,-68 124.1,-189.98 106.72,-256.27"/>
<polygon fill="#4682b4" stroke="#4682b4" stroke-width="1.5" points="103.31,-255.47 104.25,-266.02 110.1,-257.18 103.31,-255.47"/>
<text text-anchor="middle" x="588.5" y="-70.8" font-family="Arial" font-size="9.00">指令数据</text>
</g>
<!-- DMEM&#45;&gt;MEM -->
<g id="edge22" class="edge">
<title>DMEM&#45;&gt;MEM</title>
<path fill="none" stroke="#9370db" stroke-width="1.5" d="M1194.05,-66.46C1207.34,-70.91 1220.75,-77.44 1231,-87 1239.45,-94.88 1234.06,-101.76 1241,-111 1256.75,-131.98 1269.03,-128.88 1287,-148 1318.94,-181.99 1348.98,-226.1 1368.87,-257.67"/>
<polygon fill="#9370db" stroke="#9370db" stroke-width="1.5" points="1365.94,-259.59 1374.2,-266.22 1371.88,-255.89 1365.94,-259.59"/>
<text text-anchor="middle" x="1264" y="-150.8" font-family="Arial" font-size="9.00">读取数据</text>
</g>
</g>
</svg>
