<?xml version="1.0" encoding="UTF-8" standalone="no"?>
<!DOCTYPE svg PUBLIC "-//W3C//DTD SVG 1.1//EN"
 "http://www.w3.org/Graphics/SVG/1.1/DTD/svg11.dtd">
<!-- Generated by graphviz version 2.43.0 (0)
 -->
<!-- Title: architecture Pages: 1 -->
<svg width="1013pt" height="374pt"
 viewBox="0.00 0.00 1013.00 374.00" xmlns="http://www.w3.org/2000/svg" xmlns:xlink="http://www.w3.org/1999/xlink">
<g id="graph0" class="graph" transform="scale(1 1) rotate(0) translate(4 370)">
<title>architecture</title>
<polygon fill="white" stroke="transparent" points="-4,4 -4,-370 1009,-370 1009,4 -4,4"/>
<g id="clust1" class="cluster">
<title>cluster_pipeline</title>
<polygon fill="lightyellow" stroke="black" points="8,-154 8,-282 997,-282 997,-154 8,-154"/>
<text text-anchor="middle" x="502.5" y="-266.8" font-family="Times,serif" font-size="14.00">Five&#45;Stage Pipeline (myCPU)</text>
</g>
<!-- IF -->
<g id="node1" class="node">
<title>IF</title>
<polygon fill="lightgreen" stroke="black" points="72,-200 16,-200 16,-162 72,-162 72,-200"/>
<text text-anchor="middle" x="44" y="-184.8" font-family="Times,serif" font-size="14.00">IF</text>
<text text-anchor="middle" x="44" y="-169.8" font-family="Times,serif" font-size="14.00">Fetch</text>
</g>
<!-- ID -->
<g id="node2" class="node">
<title>ID</title>
<polygon fill="lightgreen" stroke="black" points="229,-200 160,-200 160,-162 229,-162 229,-200"/>
<text text-anchor="middle" x="194.5" y="-184.8" font-family="Times,serif" font-size="14.00">ID</text>
<text text-anchor="middle" x="194.5" y="-169.8" font-family="Times,serif" font-size="14.00">Decode</text>
</g>
<!-- IF&#45;&gt;ID -->
<g id="edge1" class="edge">
<title>IF&#45;&gt;ID</title>
<path fill="none" stroke="black" d="M72.24,-181C93.95,-181 124.77,-181 149.9,-181"/>
<polygon fill="black" stroke="black" points="149.93,-184.5 159.93,-181 149.93,-177.5 149.93,-184.5"/>
<text text-anchor="middle" x="108.5" y="-184.8" font-family="Times,serif" font-size="14.00">IF/ID</text>
</g>
<!-- AHB_I -->
<g id="node9" class="node">
<title>AHB_I</title>
<polygon fill="lightcyan" stroke="black" points="242,-140.5 147,-140.5 147,-87.5 242,-87.5 242,-140.5"/>
<text text-anchor="middle" x="194.5" y="-125.3" font-family="Times,serif" font-size="14.00">AHB</text>
<text text-anchor="middle" x="194.5" y="-110.3" font-family="Times,serif" font-size="14.00">Instruction</text>
<text text-anchor="middle" x="194.5" y="-95.3" font-family="Times,serif" font-size="14.00">Interface</text>
</g>
<!-- IF&#45;&gt;AHB_I -->
<g id="edge15" class="edge">
<title>IF&#45;&gt;AHB_I</title>
<path fill="none" stroke="black" d="M72.24,-168.71C90.48,-160.48 115.16,-149.35 137.49,-139.27"/>
<polygon fill="black" stroke="black" points="139.21,-142.33 146.89,-135.03 136.33,-135.95 139.21,-142.33"/>
<text text-anchor="middle" x="108.5" y="-162.8" font-family="Times,serif" font-size="14.00">fetch</text>
</g>
<!-- EX -->
<g id="node3" class="node">
<title>EX</title>
<polygon fill="lightgreen" stroke="black" points="445,-251 371,-251 371,-213 445,-213 445,-251"/>
<text text-anchor="middle" x="408" y="-235.8" font-family="Times,serif" font-size="14.00">EX</text>
<text text-anchor="middle" x="408" y="-220.8" font-family="Times,serif" font-size="14.00">Execute</text>
</g>
<!-- ID&#45;&gt;EX -->
<g id="edge2" class="edge">
<title>ID&#45;&gt;EX</title>
<path fill="none" stroke="black" d="M229.01,-189.08C264.66,-197.68 321.29,-211.33 361.08,-220.93"/>
<polygon fill="black" stroke="black" points="360.27,-224.33 370.81,-223.27 361.91,-217.53 360.27,-224.33"/>
<text text-anchor="middle" x="283" y="-209.8" font-family="Times,serif" font-size="14.00">ID/EX</text>
</g>
<!-- RF -->
<g id="node6" class="node">
<title>RF</title>
<path fill="orange" stroke="black" d="M462.5,-141.48C462.5,-144.11 438.07,-146.25 408,-146.25 377.93,-146.25 353.5,-144.11 353.5,-141.48 353.5,-141.48 353.5,-98.52 353.5,-98.52 353.5,-95.89 377.93,-93.75 408,-93.75 438.07,-93.75 462.5,-95.89 462.5,-98.52 462.5,-98.52 462.5,-141.48 462.5,-141.48"/>
<path fill="none" stroke="black" d="M462.5,-141.48C462.5,-138.84 438.07,-136.7 408,-136.7 377.93,-136.7 353.5,-138.84 353.5,-141.48"/>
<text text-anchor="middle" x="408" y="-123.8" font-family="Times,serif" font-size="14.00">Register File</text>
<text text-anchor="middle" x="408" y="-108.8" font-family="Times,serif" font-size="14.00">(32 x 32&#45;bit)</text>
</g>
<!-- ID&#45;&gt;RF -->
<g id="edge5" class="edge">
<title>ID&#45;&gt;RF</title>
<path fill="none" stroke="black" stroke-dasharray="5,2" d="M229.01,-171.33C259.7,-162.48 305.93,-149.15 343.59,-138.29"/>
<polygon fill="black" stroke="black" points="344.82,-141.58 353.46,-135.44 342.88,-134.85 344.82,-141.58"/>
<text text-anchor="middle" x="283" y="-164.8" font-family="Times,serif" font-size="14.00">read</text>
</g>
<!-- HAZ -->
<g id="node8" class="node">
<title>HAZ</title>
<polygon fill="pink" stroke="black" points="408,-76 322,-38 408,0 494,-38 408,-76"/>
<text text-anchor="middle" x="408" y="-41.8" font-family="Times,serif" font-size="14.00">Hazard</text>
<text text-anchor="middle" x="408" y="-26.8" font-family="Times,serif" font-size="14.00">Detection</text>
</g>
<!-- ID&#45;&gt;HAZ -->
<g id="edge11" class="edge">
<title>ID&#45;&gt;HAZ</title>
<path fill="none" stroke="black" stroke-dasharray="5,2" d="M229.11,-163.61C234.73,-159.46 240.02,-154.58 244,-149 262.66,-122.85 239.56,-101.98 262,-79 278.63,-61.97 301.76,-51.86 324.67,-45.91"/>
<polygon fill="black" stroke="black" points="325.52,-49.31 334.45,-43.61 323.91,-42.49 325.52,-49.31"/>
</g>
<!-- EX&#45;&gt;IF -->
<g id="edge19" class="edge">
<title>EX&#45;&gt;IF</title>
<path fill="none" stroke="blue" stroke-dasharray="1,5" d="M370.89,-231.14C341.51,-230.22 299.02,-228.42 262,-225 209.74,-220.17 196.9,-216.79 145,-209 120.51,-205.32 113.8,-206.87 90,-200 87.25,-199.21 84.44,-198.29 81.64,-197.3"/>
<polygon fill="blue" stroke="blue" points="82.82,-194.01 72.23,-193.71 80.33,-200.55 82.82,-194.01"/>
<text text-anchor="middle" x="194.5" y="-226.8" font-family="Times,serif" font-size="14.00">branch target</text>
</g>
<!-- MEM -->
<g id="node4" class="node">
<title>MEM</title>
<polygon fill="lightgreen" stroke="black" points="731,-251 655,-251 655,-213 731,-213 731,-251"/>
<text text-anchor="middle" x="693" y="-235.8" font-family="Times,serif" font-size="14.00">MEM</text>
<text text-anchor="middle" x="693" y="-220.8" font-family="Times,serif" font-size="14.00">Memory</text>
</g>
<!-- EX&#45;&gt;MEM -->
<g id="edge3" class="edge">
<title>EX&#45;&gt;MEM</title>
<path fill="none" stroke="black" d="M445.13,-232C495.91,-232 588.46,-232 644.68,-232"/>
<polygon fill="black" stroke="black" points="644.74,-235.5 654.74,-232 644.74,-228.5 644.74,-235.5"/>
<text text-anchor="middle" x="544" y="-235.8" font-family="Times,serif" font-size="14.00">EX/MEM</text>
</g>
<!-- FWD -->
<g id="node7" class="node">
<title>FWD</title>
<polygon fill="pink" stroke="black" points="693,-366 594,-328 693,-290 792,-328 693,-366"/>
<text text-anchor="middle" x="693" y="-331.8" font-family="Times,serif" font-size="14.00">Forwarding</text>
<text text-anchor="middle" x="693" y="-316.8" font-family="Times,serif" font-size="14.00">Unit</text>
</g>
<!-- EX&#45;&gt;FWD -->
<g id="edge8" class="edge">
<title>EX&#45;&gt;FWD</title>
<path fill="none" stroke="black" stroke-dasharray="5,2" d="M445.13,-244.26C491.75,-260.07 573.59,-287.83 630.19,-307.03"/>
<polygon fill="black" stroke="black" points="629.15,-310.38 639.75,-310.28 631.4,-303.75 629.15,-310.38"/>
</g>
<!-- EX&#45;&gt;HAZ -->
<g id="edge12" class="edge">
<title>EX&#45;&gt;HAZ</title>
<path fill="none" stroke="black" stroke-dasharray="5,2" d="M370.91,-217.96C341.14,-204.49 301.39,-180.97 283,-146 272.24,-125.54 270.44,-113.4 283,-94 295.73,-74.35 317.15,-61.54 338.69,-53.2"/>
<polygon fill="black" stroke="black" points="340,-56.45 348.24,-49.79 337.64,-49.86 340,-56.45"/>
</g>
<!-- WB -->
<g id="node5" class="node">
<title>WB</title>
<polygon fill="lightgreen" stroke="black" points="989,-206 900,-206 900,-168 989,-168 989,-206"/>
<text text-anchor="middle" x="944.5" y="-190.8" font-family="Times,serif" font-size="14.00">WB</text>
<text text-anchor="middle" x="944.5" y="-175.8" font-family="Times,serif" font-size="14.00">Writeback</text>
</g>
<!-- MEM&#45;&gt;WB -->
<g id="edge4" class="edge">
<title>MEM&#45;&gt;WB</title>
<path fill="none" stroke="black" d="M731.03,-224.34C753.78,-219.71 783.54,-213.8 810,-209 836.19,-204.25 865.35,-199.39 889.72,-195.46"/>
<polygon fill="black" stroke="black" points="890.53,-198.87 899.85,-193.83 889.42,-191.96 890.53,-198.87"/>
<text text-anchor="middle" x="846" y="-212.8" font-family="Times,serif" font-size="14.00">MEM/WB</text>
</g>
<!-- MEM&#45;&gt;FWD -->
<g id="edge9" class="edge">
<title>MEM&#45;&gt;FWD</title>
<path fill="none" stroke="black" stroke-dasharray="5,2" d="M693,-251.12C693,-260.61 693,-270.09 693,-279.57"/>
<polygon fill="black" stroke="black" points="689.5,-279.86 693,-289.86 696.5,-279.86 689.5,-279.86"/>
</g>
<!-- AHB_D -->
<g id="node10" class="node">
<title>AHB_D</title>
<polygon fill="lightcyan" stroke="black" points="985,-343.5 904,-343.5 904,-290.5 985,-290.5 985,-343.5"/>
<text text-anchor="middle" x="944.5" y="-328.3" font-family="Times,serif" font-size="14.00">AHB</text>
<text text-anchor="middle" x="944.5" y="-313.3" font-family="Times,serif" font-size="14.00">Data</text>
<text text-anchor="middle" x="944.5" y="-298.3" font-family="Times,serif" font-size="14.00">Interface</text>
</g>
<!-- MEM&#45;&gt;AHB_D -->
<g id="edge16" class="edge">
<title>MEM&#45;&gt;AHB_D</title>
<path fill="none" stroke="black" d="M731.01,-235.95C769.92,-241.07 832.27,-252.09 882,-274 883.19,-274.52 889.58,-278.87 897.82,-284.62"/>
<polygon fill="black" stroke="black" points="895.99,-287.61 906.18,-290.49 900,-281.88 895.99,-287.61"/>
<text text-anchor="middle" x="846" y="-277.8" font-family="Times,serif" font-size="14.00">load/store</text>
</g>
<!-- WB&#45;&gt;RF -->
<g id="edge6" class="edge">
<title>WB&#45;&gt;RF</title>
<path fill="none" stroke="black" stroke-dasharray="5,2" d="M899.75,-181.52C805.43,-169.69 582.63,-141.76 472.66,-127.98"/>
<polygon fill="black" stroke="black" points="473.05,-124.5 462.7,-126.73 472.18,-131.45 473.05,-124.5"/>
<text text-anchor="middle" x="693" y="-170.8" font-family="Times,serif" font-size="14.00">write</text>
</g>
<!-- RF&#45;&gt;ID -->
<g id="edge7" class="edge">
<title>RF&#45;&gt;ID</title>
<path fill="none" stroke="black" stroke-dasharray="5,2" d="M353.37,-126.22C325.61,-130.38 291.45,-136.97 262,-147 253.8,-149.8 245.34,-153.45 237.33,-157.32"/>
<polygon fill="black" stroke="black" points="235.53,-154.31 228.16,-161.93 238.67,-160.56 235.53,-154.31"/>
</g>
<!-- FWD&#45;&gt;EX -->
<g id="edge10" class="edge">
<title>FWD&#45;&gt;EX</title>
<path fill="none" stroke="red" stroke-dasharray="5,2" d="M617.77,-318.8C584.69,-313.28 545.67,-304.77 512,-292 488.34,-283.03 463.78,-268.94 444.59,-256.67"/>
<polygon fill="red" stroke="red" points="446.45,-253.71 436.16,-251.18 442.63,-259.57 446.45,-253.71"/>
<text text-anchor="middle" x="544" y="-313.8" font-family="Times,serif" font-size="14.00">forward</text>
</g>
<!-- HAZ&#45;&gt;IF -->
<g id="edge13" class="edge">
<title>HAZ&#45;&gt;IF</title>
<path fill="none" stroke="red" stroke-dasharray="5,2" d="M337.02,-31.3C281.96,-29.08 204.8,-32.92 145,-63 106.21,-82.52 76.52,-124.46 59.91,-152.72"/>
<polygon fill="red" stroke="red" points="56.69,-151.3 54.79,-161.72 62.78,-154.76 56.69,-151.3"/>
<text text-anchor="middle" x="194.5" y="-66.8" font-family="Times,serif" font-size="14.00">stall</text>
</g>
<!-- HAZ&#45;&gt;ID -->
<g id="edge14" class="edge">
<title>HAZ&#45;&gt;ID</title>
<path fill="none" stroke="red" stroke-dasharray="5,2" d="M361.39,-55.49C330.57,-69.02 290.46,-90.15 262,-118 250.61,-129.14 254.94,-137.42 244,-149 241.78,-151.35 239.36,-153.61 236.83,-155.77"/>
<polygon fill="red" stroke="red" points="234.67,-153.01 228.94,-161.92 238.98,-158.53 234.67,-153.01"/>
<text text-anchor="middle" x="283" y="-121.8" font-family="Times,serif" font-size="14.00">stall</text>
</g>
<!-- AHB_I&#45;&gt;IF -->
<g id="edge17" class="edge">
<title>AHB_I&#45;&gt;IF</title>
<path fill="none" stroke="black" d="M147,-121.9C128.55,-126.21 107.58,-132.64 90,-142 83.35,-145.54 76.84,-150.22 70.93,-155.12"/>
<polygon fill="black" stroke="black" points="68.49,-152.6 63.28,-161.83 73.11,-157.86 68.49,-152.6"/>
</g>
<!-- AHB_D&#45;&gt;MEM -->
<g id="edge18" class="edge">
<title>AHB_D&#45;&gt;MEM</title>
<path fill="none" stroke="black" d="M903.96,-311.37C877.01,-306.9 840.79,-299.6 810,-289 802.68,-286.48 769.52,-270.1 740.51,-255.54"/>
<polygon fill="black" stroke="black" points="741.79,-252.26 731.28,-250.9 738.64,-258.52 741.79,-252.26"/>
</g>
</g>
</svg>
