<?xml version="1.0" encoding="UTF-8" standalone="no"?>
<!DOCTYPE svg PUBLIC "-//W3C//DTD SVG 1.1//EN"
 "http://www.w3.org/Graphics/SVG/1.1/DTD/svg11.dtd">
<!-- Generated by graphviz version 2.43.0 (0)
 -->
<!-- Title: pipeline_state_machine Pages: 1 -->
<svg width="604pt" height="532pt"
 viewBox="0.00 0.00 603.50 532.00" xmlns="http://www.w3.org/2000/svg" xmlns:xlink="http://www.w3.org/1999/xlink">
<g id="graph0" class="graph" transform="scale(1 1) rotate(0) translate(4 528)">
<title>pipeline_state_machine</title>
<polygon fill="white" stroke="transparent" points="-4,4 -4,-528 599.5,-528 599.5,4 -4,4"/>
<text text-anchor="middle" x="297.75" y="-508.8" font-family="Arial" font-size="14.00">Pipeline CPU State Machine Model</text>
<g id="clust1" class="cluster">
<title>cluster_legend</title>
<path fill="#f8f9fa" stroke="black" d="M445.5,-252C445.5,-252 575.5,-252 575.5,-252 581.5,-252 587.5,-258 587.5,-264 587.5,-264 587.5,-481 587.5,-481 587.5,-487 581.5,-493 575.5,-493 575.5,-493 445.5,-493 445.5,-493 439.5,-493 433.5,-487 433.5,-481 433.5,-481 433.5,-264 433.5,-264 433.5,-258 439.5,-252 445.5,-252"/>
<text text-anchor="middle" x="510.5" y="-477.8" font-family="Arial" font-size="14.00">Legend</text>
</g>
<!-- RESET -->
<g id="node1" class="node">
<title>RESET</title>
<path fill="#ff6b6b" stroke="black" stroke-width="2" d="M241.5,-462C241.5,-462 207.5,-462 207.5,-462 201.5,-462 195.5,-456 195.5,-450 195.5,-450 195.5,-438 195.5,-438 195.5,-432 201.5,-426 207.5,-426 207.5,-426 241.5,-426 241.5,-426 247.5,-426 253.5,-432 253.5,-438 253.5,-438 253.5,-450 253.5,-450 253.5,-456 247.5,-462 241.5,-462"/>
<text text-anchor="middle" x="224.5" y="-440.9" font-family="Arial" font-size="12.00" fill="white">RESET</text>
</g>
<!-- IF -->
<g id="node2" class="node">
<title>IF</title>
<path fill="#4ecdc4" stroke="black" stroke-width="2" d="M268.5,-379C268.5,-379 180.5,-379 180.5,-379 174.5,-379 168.5,-373 168.5,-367 168.5,-367 168.5,-355 168.5,-355 168.5,-349 174.5,-343 180.5,-343 180.5,-343 268.5,-343 268.5,-343 274.5,-343 280.5,-349 280.5,-355 280.5,-355 280.5,-367 280.5,-367 280.5,-373 274.5,-379 268.5,-379"/>
<text text-anchor="middle" x="224.5" y="-364.4" font-family="Arial" font-size="12.00">IF</text>
<text text-anchor="middle" x="224.5" y="-351.4" font-family="Arial" font-size="12.00">(Instruction Fetch)</text>
</g>
<!-- RESET&#45;&gt;IF -->
<g id="edge1" class="edge">
<title>RESET&#45;&gt;IF</title>
<path fill="none" stroke="#2d3436" stroke-width="2" d="M224.5,-425.82C224.5,-415.19 224.5,-401.31 224.5,-389.2"/>
<polygon fill="#2d3436" stroke="#2d3436" stroke-width="2" points="228,-389.15 224.5,-379.15 221,-389.15 228,-389.15"/>
<text text-anchor="middle" x="251" y="-400" font-family="Arial" font-size="10.00">Reset Done</text>
</g>
<!-- IF&#45;&gt;IF -->
<g id="edge11" class="edge">
<title>IF&#45;&gt;IF</title>
<path fill="none" stroke="#636e72" stroke-dasharray="1,5" d="M280.65,-368.12C291.12,-367.24 298.5,-364.87 298.5,-361 298.5,-358.52 295.47,-356.66 290.54,-355.41"/>
<polygon fill="#636e72" stroke="#636e72" points="291.06,-351.95 280.65,-353.88 290,-358.87 291.06,-351.95"/>
<text text-anchor="middle" x="340" y="-364" font-family="Arial" font-size="10.00">PC Stall</text>
<text text-anchor="middle" x="340" y="-353" font-family="Arial" font-size="10.00">(Load&#45;Use Hazard)</text>
</g>
<!-- ID -->
<g id="node3" class="node">
<title>ID</title>
<path fill="#45b7d1" stroke="black" stroke-width="2" d="M274.5,-296C274.5,-296 174.5,-296 174.5,-296 168.5,-296 162.5,-290 162.5,-284 162.5,-284 162.5,-272 162.5,-272 162.5,-266 168.5,-260 174.5,-260 174.5,-260 274.5,-260 274.5,-260 280.5,-260 286.5,-266 286.5,-272 286.5,-272 286.5,-284 286.5,-284 286.5,-290 280.5,-296 274.5,-296"/>
<text text-anchor="middle" x="224.5" y="-281.4" font-family="Arial" font-size="12.00">ID</text>
<text text-anchor="middle" x="224.5" y="-268.4" font-family="Arial" font-size="12.00">(Instruction Decode)</text>
</g>
<!-- IF&#45;&gt;ID -->
<g id="edge2" class="edge">
<title>IF&#45;&gt;ID</title>
<path fill="none" stroke="#0984e3" d="M224.5,-342.82C224.5,-332.19 224.5,-318.31 224.5,-306.2"/>
<polygon fill="#0984e3" stroke="#0984e3" points="228,-306.15 224.5,-296.15 221,-306.15 228,-306.15"/>
<text text-anchor="middle" x="267" y="-317" font-family="Arial" font-size="10.00">Instruction Fetched</text>
</g>
<!-- EX -->
<g id="node4" class="node">
<title>EX</title>
<path fill="#96ceb4" stroke="black" stroke-width="2" d="M144.5,-202C144.5,-202 100.5,-202 100.5,-202 94.5,-202 88.5,-196 88.5,-190 88.5,-190 88.5,-178 88.5,-178 88.5,-172 94.5,-166 100.5,-166 100.5,-166 144.5,-166 144.5,-166 150.5,-166 156.5,-172 156.5,-178 156.5,-178 156.5,-190 156.5,-190 156.5,-196 150.5,-202 144.5,-202"/>
<text text-anchor="middle" x="122.5" y="-187.4" font-family="Arial" font-size="12.00">EX</text>
<text text-anchor="middle" x="122.5" y="-174.4" font-family="Arial" font-size="12.00">(Execute)</text>
</g>
<!-- ID&#45;&gt;EX -->
<g id="edge3" class="edge">
<title>ID&#45;&gt;EX</title>
<path fill="none" stroke="#0984e3" d="M162.11,-262.16C151.68,-257.24 141.88,-250.69 134.5,-242 127.56,-233.82 124.31,-222.62 122.88,-212.32"/>
<polygon fill="#0984e3" stroke="#0984e3" points="126.34,-211.72 121.98,-202.07 119.37,-212.34 126.34,-211.72"/>
<text text-anchor="middle" x="174" y="-228.5" font-family="Arial" font-size="10.00">Decode Complete</text>
</g>
<!-- STALL -->
<g id="node7" class="node">
<title>STALL</title>
<path fill="#fdcb6e" stroke="black" stroke-width="2" stroke-dasharray="5,2" d="M309,-202C309,-202 238,-202 238,-202 232,-202 226,-196 226,-190 226,-190 226,-178 226,-178 226,-172 232,-166 238,-166 238,-166 309,-166 309,-166 315,-166 321,-172 321,-178 321,-178 321,-190 321,-190 321,-196 315,-202 309,-202"/>
<text text-anchor="middle" x="273.5" y="-187.4" font-family="Arial" font-size="12.00">STALL</text>
<text text-anchor="middle" x="273.5" y="-174.4" font-family="Arial" font-size="12.00">(Pipeline Stall)</text>
</g>
<!-- ID&#45;&gt;STALL -->
<g id="edge7" class="edge">
<title>ID&#45;&gt;STALL</title>
<path fill="none" stroke="#d63031" stroke-dasharray="5,2" d="M282.41,-259.89C289.97,-255.27 296.73,-249.41 301.5,-242 307.94,-232.01 303.98,-220.32 297.25,-210.14"/>
<polygon fill="#d63031" stroke="#d63031" points="299.93,-207.88 291.11,-202.01 294.35,-212.1 299.93,-207.88"/>
<text text-anchor="middle" x="344" y="-228.5" font-family="Arial" font-size="10.00">Load&#45;Use Hazard</text>
</g>
<!-- MEM -->
<g id="node5" class="node">
<title>MEM</title>
<path fill="#ffeaa7" stroke="black" stroke-width="2" d="M328,-119C328,-119 243,-119 243,-119 237,-119 231,-113 231,-107 231,-107 231,-95 231,-95 231,-89 237,-83 243,-83 243,-83 328,-83 328,-83 334,-83 340,-89 340,-95 340,-95 340,-107 340,-107 340,-113 334,-119 328,-119"/>
<text text-anchor="middle" x="285.5" y="-104.4" font-family="Arial" font-size="12.00">MEM</text>
<text text-anchor="middle" x="285.5" y="-91.4" font-family="Arial" font-size="12.00">(Memory Access)</text>
</g>
<!-- EX&#45;&gt;MEM -->
<g id="edge4" class="edge">
<title>EX&#45;&gt;MEM</title>
<path fill="none" stroke="#0984e3" d="M156.67,-166.02C181.47,-153.69 215.22,-136.92 241.96,-123.64"/>
<polygon fill="#0984e3" stroke="#0984e3" points="243.7,-126.68 251.09,-119.1 240.58,-120.41 243.7,-126.68"/>
<text text-anchor="middle" x="259" y="-140" font-family="Arial" font-size="10.00">Execution Complete</text>
</g>
<!-- FLUSH -->
<g id="node8" class="node">
<title>FLUSH</title>
<path fill="#e17055" stroke="black" stroke-width="2" stroke-dasharray="5,2" d="M89,-119C89,-119 12,-119 12,-119 6,-119 0,-113 0,-107 0,-107 0,-95 0,-95 0,-89 6,-83 12,-83 12,-83 89,-83 89,-83 95,-83 101,-89 101,-95 101,-95 101,-107 101,-107 101,-113 95,-119 89,-119"/>
<text text-anchor="middle" x="50.5" y="-104.4" font-family="Arial" font-size="12.00">FLUSH</text>
<text text-anchor="middle" x="50.5" y="-91.4" font-family="Arial" font-size="12.00">(Pipeline Flush)</text>
</g>
<!-- EX&#45;&gt;FLUSH -->
<g id="edge9" class="edge">
<title>EX&#45;&gt;FLUSH</title>
<path fill="none" stroke="#d63031" stroke-dasharray="5,2" d="M107.23,-165.82C97.11,-154.44 83.68,-139.33 72.42,-126.66"/>
<polygon fill="#d63031" stroke="#d63031" points="75.01,-124.3 65.75,-119.15 69.78,-128.95 75.01,-124.3"/>
<text text-anchor="middle" x="137.5" y="-140" font-family="Arial" font-size="10.00">Branch Misprediction</text>
</g>
<!-- WB -->
<g id="node6" class="node">
<title>WB</title>
<path fill="#dfe6e9" stroke="black" stroke-width="2" d="M374.5,-36C374.5,-36 316.5,-36 316.5,-36 310.5,-36 304.5,-30 304.5,-24 304.5,-24 304.5,-12 304.5,-12 304.5,-6 310.5,0 316.5,0 316.5,0 374.5,0 374.5,0 380.5,0 386.5,-6 386.5,-12 386.5,-12 386.5,-24 386.5,-24 386.5,-30 380.5,-36 374.5,-36"/>
<text text-anchor="middle" x="345.5" y="-21.4" font-family="Arial" font-size="12.00">WB</text>
<text text-anchor="middle" x="345.5" y="-8.4" font-family="Arial" font-size="12.00">(Write Back)</text>
</g>
<!-- MEM&#45;&gt;WB -->
<g id="edge5" class="edge">
<title>MEM&#45;&gt;WB</title>
<path fill="none" stroke="#0984e3" d="M298.22,-82.82C306.5,-71.65 317.43,-56.9 326.7,-44.38"/>
<polygon fill="#0984e3" stroke="#0984e3" points="329.65,-46.27 332.79,-36.15 324.03,-42.11 329.65,-46.27"/>
<text text-anchor="middle" x="360" y="-57" font-family="Arial" font-size="10.00">Memory Complete</text>
</g>
<!-- WB&#45;&gt;IF -->
<g id="edge6" class="edge">
<title>WB&#45;&gt;IF</title>
<path fill="none" stroke="#0984e3" d="M381.47,-36.13C388.92,-41.03 396.13,-46.99 401.5,-54 414.5,-70.96 415.5,-78.63 415.5,-100 415.5,-279 415.5,-279 415.5,-279 415.5,-334.69 345.82,-352.66 290.63,-358.15"/>
<polygon fill="#0984e3" stroke="#0984e3" points="290.17,-354.68 280.52,-359.04 290.78,-361.65 290.17,-354.68"/>
<text text-anchor="middle" x="454.5" y="-187" font-family="Arial" font-size="10.00">Write Back Done,</text>
<text text-anchor="middle" x="454.5" y="-176" font-family="Arial" font-size="10.00">Fetch Next</text>
</g>
<!-- STALL&#45;&gt;ID -->
<g id="edge8" class="edge">
<title>STALL&#45;&gt;ID</title>
<path fill="none" stroke="#00b894" stroke-dasharray="5,2" d="M237.76,-202.14C231.23,-206.97 225.28,-212.89 221.5,-220 216.75,-228.93 216.26,-239.8 217.4,-249.64"/>
<polygon fill="#00b894" stroke="#00b894" points="213.99,-250.52 219.14,-259.78 220.89,-249.34 213.99,-250.52"/>
<text text-anchor="middle" x="259.5" y="-228.5" font-family="Arial" font-size="10.00">Hazard Resolved</text>
</g>
<!-- FLUSH&#45;&gt;IF -->
<g id="edge10" class="edge">
<title>FLUSH&#45;&gt;IF</title>
<path fill="none" stroke="#00b894" stroke-dasharray="5,2" d="M45.24,-119.18C37.8,-146.88 27.33,-202.32 48.5,-242 73.4,-288.67 125.86,-320.14 167.06,-338.76"/>
<polygon fill="#00b894" stroke="#00b894" points="165.9,-342.08 176.46,-342.88 168.71,-335.67 165.9,-342.08"/>
<text text-anchor="middle" x="85" y="-234" font-family="Arial" font-size="10.00">Flush Complete,</text>
<text text-anchor="middle" x="85" y="-223" font-family="Arial" font-size="10.00">Jump to Target</text>
</g>
<!-- legend_normal -->
<g id="node9" class="node">
<title>legend_normal</title>
<path fill="#4ecdc4" stroke="black" d="M565.5,-462C565.5,-462 455.5,-462 455.5,-462 449.5,-462 443.5,-456 443.5,-450 443.5,-450 443.5,-438 443.5,-438 443.5,-432 449.5,-426 455.5,-426 455.5,-426 565.5,-426 565.5,-426 571.5,-426 577.5,-432 577.5,-438 577.5,-438 577.5,-450 577.5,-450 577.5,-456 571.5,-462 565.5,-462"/>
<text text-anchor="middle" x="510.5" y="-440.9" font-family="Arial" font-size="12.00">Normal Pipeline State</text>
</g>
<!-- legend_hazard -->
<g id="node10" class="node">
<title>legend_hazard</title>
<path fill="#fdcb6e" stroke="black" stroke-dasharray="5,2" d="M567.5,-379C567.5,-379 453.5,-379 453.5,-379 447.5,-379 441.5,-373 441.5,-367 441.5,-367 441.5,-355 441.5,-355 441.5,-349 447.5,-343 453.5,-343 453.5,-343 567.5,-343 567.5,-343 573.5,-343 579.5,-349 579.5,-355 579.5,-355 579.5,-367 579.5,-367 579.5,-373 573.5,-379 567.5,-379"/>
<text text-anchor="middle" x="510.5" y="-357.9" font-family="Arial" font-size="12.00">Hazard Handling State</text>
</g>
<!-- legend_normal&#45;&gt;legend_hazard -->
<!-- legend_reset -->
<g id="node11" class="node">
<title>legend_reset</title>
<path fill="#ff6b6b" stroke="black" d="M538,-296C538,-296 483,-296 483,-296 477,-296 471,-290 471,-284 471,-284 471,-272 471,-272 471,-266 477,-260 483,-260 483,-260 538,-260 538,-260 544,-260 550,-266 550,-272 550,-272 550,-284 550,-284 550,-290 544,-296 538,-296"/>
<text text-anchor="middle" x="510.5" y="-274.9" font-family="Arial" font-size="12.00" fill="white">Reset State</text>
</g>
<!-- legend_hazard&#45;&gt;legend_reset -->
</g>
</svg>
