<?xml version="1.0" encoding="UTF-8" standalone="no"?>
<!DOCTYPE svg PUBLIC "-//W3C//DTD SVG 1.1//EN"
 "http://www.w3.org/Graphics/SVG/1.1/DTD/svg11.dtd">
<!-- Generated by graphviz version 2.43.0 (0)
 -->
<!-- Title: soc_architecture Pages: 1 -->
<svg width="1756pt" height="543pt"
 viewBox="0.00 0.00 1756.00 543.38" xmlns="http://www.w3.org/2000/svg" xmlns:xlink="http://www.w3.org/1999/xlink">
<g id="graph0" class="graph" transform="scale(1 1) rotate(0) translate(4 539.38)">
<title>soc_architecture</title>
<polygon fill="white" stroke="transparent" points="-4,4 -4,-539.38 1752,-539.38 1752,4 -4,4"/>
<g id="clust1" class="cluster">
<title>cluster_external</title>
<polygon fill="#f5f5f5" stroke="#696969" stroke-dasharray="5,2" points="8,-212.88 8,-334.88 816,-334.88 816,-212.88 8,-212.88"/>
<text text-anchor="middle" x="412" y="-321.27" font-family="Arial" font-size="12.00">外部接口 (External Interfaces)</text>
</g>
<g id="clust2" class="cluster">
<title>cluster_soc</title>
<path fill="#ffffff" stroke="#000000" stroke-width="3" d="M836,-8C836,-8 1552,-8 1552,-8 1558,-8 1564,-14 1564,-20 1564,-20 1564,-515.38 1564,-515.38 1564,-521.38 1558,-527.38 1552,-527.38 1552,-527.38 836,-527.38 836,-527.38 830,-527.38 824,-521.38 824,-515.38 824,-515.38 824,-20 824,-20 824,-14 830,-8 836,-8"/>
<text text-anchor="middle" x="1194" y="-15.6" font-family="Arial Bold" font-size="13.00">SoC 芯片内部 (SoC Internal)</text>
</g>
<g id="clust3" class="cluster">
<title>cluster_cpu</title>
<path fill="#e6f3ff" stroke="#4169e1" stroke-width="2" d="M844,-210.38C844,-210.38 1011,-210.38 1011,-210.38 1017,-210.38 1023,-216.38 1023,-222.38 1023,-222.38 1023,-325.38 1023,-325.38 1023,-331.38 1017,-337.38 1011,-337.38 1011,-337.38 844,-337.38 844,-337.38 838,-337.38 832,-331.38 832,-325.38 832,-325.38 832,-222.38 832,-222.38 832,-216.38 838,-210.38 844,-210.38"/>
<text text-anchor="middle" x="927.5" y="-323.77" font-family="Arial" font-size="12.00">RISC&#45;V 处理器核心 (CPU Core)</text>
</g>
<g id="clust4" class="cluster">
<title>cluster_ahb</title>
<path fill="#fff8dc" stroke="#ff8c00" stroke-width="2" d="M1043,-224.38C1043,-224.38 1245,-224.38 1245,-224.38 1251,-224.38 1257,-230.38 1257,-236.38 1257,-236.38 1257,-311.38 1257,-311.38 1257,-317.38 1251,-323.38 1245,-323.38 1245,-323.38 1043,-323.38 1043,-323.38 1037,-323.38 1031,-317.38 1031,-311.38 1031,-311.38 1031,-236.38 1031,-236.38 1031,-230.38 1037,-224.38 1043,-224.38"/>
<text text-anchor="middle" x="1144" y="-309.77" font-family="Arial" font-size="12.00">AHB 总线互连系统 (AHB Interconnect)</text>
</g>
<g id="clust5" class="cluster">
<title>cluster_memory</title>
<path fill="#e0ffff" stroke="#20b2aa" stroke-width="2" d="M1277,-60C1277,-60 1544,-60 1544,-60 1550,-60 1556,-66 1556,-72 1556,-72 1556,-340.38 1556,-340.38 1556,-346.38 1550,-352.38 1544,-352.38 1544,-352.38 1277,-352.38 1277,-352.38 1271,-352.38 1265,-346.38 1265,-340.38 1265,-340.38 1265,-72 1265,-72 1265,-66 1271,-60 1277,-60"/>
<text text-anchor="middle" x="1410.5" y="-338.77" font-family="Arial" font-size="12.00">存储子系统 (Memory Subsystem)</text>
</g>
<g id="clust6" class="cluster">
<title>cluster_ctrl</title>
<path fill="#e0ffff" stroke="#20b2aa" stroke-width="2" d="M1304,-224.38C1304,-224.38 1534,-224.38 1534,-224.38 1540,-224.38 1546,-230.38 1546,-236.38 1546,-236.38 1546,-311.38 1546,-311.38 1546,-317.38 1540,-323.38 1534,-323.38 1534,-323.38 1304,-323.38 1304,-323.38 1298,-323.38 1292,-317.38 1292,-311.38 1292,-311.38 1292,-236.38 1292,-236.38 1292,-230.38 1298,-224.38 1304,-224.38"/>
<text text-anchor="middle" x="1419" y="-309.77" font-family="Arial" font-size="12.00">存储子系统 (Memory Subsystem)</text>
</g>
<g id="clust7" class="cluster">
<title>cluster_mem</title>
<path fill="#e0ffff" stroke="#20b2aa" stroke-width="2" d="M1304,-68C1304,-68 1483,-68 1483,-68 1489,-68 1495,-74 1495,-80 1495,-80 1495,-170.38 1495,-170.38 1495,-176.38 1489,-182.38 1483,-182.38 1483,-182.38 1304,-182.38 1304,-182.38 1298,-182.38 1292,-176.38 1292,-170.38 1292,-170.38 1292,-80 1292,-80 1292,-74 1298,-68 1304,-68"/>
<text text-anchor="middle" x="1393.5" y="-168.78" font-family="Arial" font-size="12.00">存储子系统 (Memory Subsystem)</text>
</g>
<g id="clust8" class="cluster">
<title>cluster_clk</title>
<path fill="#fffaf0" stroke="#ff6347" stroke-width="2" d="M1001,-427.38C1001,-427.38 1162,-427.38 1162,-427.38 1168,-427.38 1174,-433.38 1174,-439.38 1174,-439.38 1174,-507.38 1174,-507.38 1174,-513.38 1168,-519.38 1162,-519.38 1162,-519.38 1001,-519.38 1001,-519.38 995,-519.38 989,-513.38 989,-507.38 989,-507.38 989,-439.38 989,-439.38 989,-433.38 995,-427.38 1001,-427.38"/>
<text text-anchor="middle" x="1081.5" y="-506.57" font-family="Arial" font-size="11.00">时钟与复位系统 (Clock &amp; Reset)</text>
</g>
<g id="clust9" class="cluster">
<title>cluster_periph</title>
<path fill="#f0fff0" stroke="#228b22" stroke-width="2" d="M844,-78.19C844,-78.19 1227,-78.19 1227,-78.19 1233,-78.19 1239,-84.19 1239,-90.19 1239,-90.19 1239,-158.19 1239,-158.19 1239,-164.19 1233,-170.19 1227,-170.19 1227,-170.19 844,-170.19 844,-170.19 838,-170.19 832,-164.19 832,-158.19 832,-158.19 832,-90.19 832,-90.19 832,-84.19 838,-78.19 844,-78.19"/>
<text text-anchor="middle" x="1035.5" y="-157.39" font-family="Arial" font-size="11.00">外设子系统 (Peripheral Subsystem)</text>
</g>
<g id="clust10" class="cluster">
<title>cluster_legend</title>
<polygon fill="white" stroke="#808080" stroke-dasharray="5,2" points="1572,-378.38 1572,-490.38 1740,-490.38 1740,-378.38 1572,-378.38"/>
<text text-anchor="middle" x="1656" y="-385.38" font-family="Arial" font-size="10.00">图例 (Legend)</text>
</g>
<!-- title -->
<g id="node1" class="node">
<title>title</title>
<text text-anchor="middle" x="681" y="-458.57" font-family="Arial Bold" font-size="16.00">LibreCore SoC 系统架构</text>
<text text-anchor="middle" x="681" y="-440.57" font-family="Arial Bold" font-size="16.00">SoC System Architecture</text>
</g>
<!-- CLK_IN -->
<g id="node2" class="node">
<title>CLK_IN</title>
<path fill="#fffacd" stroke="#daa520" stroke-width="2" d="M710,-270.88C710,-270.88 652,-270.88 652,-270.88 646,-270.88 640,-264.88 640,-258.88 640,-258.88 640,-246.88 640,-246.88 640,-240.88 646,-234.88 652,-234.88 652,-234.88 710,-234.88 710,-234.88 716,-234.88 722,-240.88 722,-246.88 722,-246.88 722,-258.88 722,-258.88 722,-264.88 716,-270.88 710,-270.88"/>
<text text-anchor="middle" x="681" y="-256.07" font-family="Arial" font-size="11.00">时钟输入</text>
<text text-anchor="middle" x="681" y="-244.07" font-family="Arial" font-size="11.00">CLK 100MHz</text>
</g>
<!-- title&#45;&gt;CLK_IN -->
<!-- PLL -->
<g id="node15" class="node">
<title>PLL</title>
<path fill="#ffe4b5" stroke="#ff8c00" stroke-width="2" d="M1120.5,-471.38C1120.5,-471.38 1041.5,-471.38 1041.5,-471.38 1035.5,-471.38 1029.5,-465.38 1029.5,-459.38 1029.5,-459.38 1029.5,-447.38 1029.5,-447.38 1029.5,-441.38 1035.5,-435.38 1041.5,-435.38 1041.5,-435.38 1120.5,-435.38 1120.5,-435.38 1126.5,-435.38 1132.5,-441.38 1132.5,-447.38 1132.5,-447.38 1132.5,-459.38 1132.5,-459.38 1132.5,-465.38 1126.5,-471.38 1120.5,-471.38"/>
<text text-anchor="middle" x="1081" y="-456.38" font-family="Arial" font-size="10.00">PLL 时钟管理</text>
<text text-anchor="middle" x="1081" y="-445.38" font-family="Arial" font-size="10.00">Phase&#45;Locked Loop</text>
</g>
<!-- CLK_IN&#45;&gt;PLL -->
<g id="edge2" class="edge">
<title>CLK_IN&#45;&gt;PLL</title>
<path fill="none" stroke="#ff8c00" stroke-width="2" d="M685.18,-271.18C691.41,-293.27 705.26,-331.14 731,-352.38 753.46,-370.9 924.96,-414.57 1019.28,-437.59"/>
<polygon fill="#ff8c00" stroke="#ff8c00" stroke-width="2" points="1018.72,-441.06 1029.27,-440.02 1020.38,-434.26 1018.72,-441.06"/>
<text text-anchor="middle" x="789.5" y="-363.18" font-family="Arial" font-size="9.00">100MHz</text>
</g>
<!-- RESET_IN -->
<g id="node3" class="node">
<title>RESET_IN</title>
<path fill="#fffacd" stroke="#daa520" stroke-width="2" d="M796,-270.88C796,-270.88 752,-270.88 752,-270.88 746,-270.88 740,-264.88 740,-258.88 740,-258.88 740,-246.88 740,-246.88 740,-240.88 746,-234.88 752,-234.88 752,-234.88 796,-234.88 796,-234.88 802,-234.88 808,-240.88 808,-246.88 808,-246.88 808,-258.88 808,-258.88 808,-264.88 802,-270.88 796,-270.88"/>
<text text-anchor="middle" x="774" y="-256.07" font-family="Arial" font-size="11.00">复位信号</text>
<text text-anchor="middle" x="774" y="-244.07" font-family="Arial" font-size="11.00">RESET</text>
</g>
<!-- RESET_IN&#45;&gt;PLL -->
<g id="edge3" class="edge">
<title>RESET_IN&#45;&gt;PLL</title>
<path fill="none" stroke="#ff0000" stroke-width="2" d="M779.37,-271.18C786.93,-292.92 802.7,-330.06 828,-352.38 882.85,-400.76 963.92,-427.2 1019.42,-440.54"/>
<polygon fill="#ff0000" stroke="#ff0000" stroke-width="2" points="1018.94,-444.02 1029.47,-442.88 1020.53,-437.2 1018.94,-444.02"/>
<text text-anchor="middle" x="856.5" y="-363.18" font-family="Arial" font-size="9.00">复位</text>
</g>
<!-- UART_IO -->
<g id="node4" class="node">
<title>UART_IO</title>
<path fill="#e6e6fa" stroke="#9370db" stroke-width="2" d="M107.68,-284.88C107.68,-284.88 49.47,-284.88 49.47,-284.88 43.47,-284.88 35.59,-279.18 33.71,-273.48 33.71,-273.48 20.09,-232.27 20.09,-232.27 18.21,-226.57 22.32,-220.88 28.32,-220.88 28.32,-220.88 86.53,-220.88 86.53,-220.88 92.53,-220.88 100.41,-226.57 102.29,-232.27 102.29,-232.27 115.91,-273.48 115.91,-273.48 117.79,-279.18 113.68,-284.88 107.68,-284.88"/>
<text text-anchor="middle" x="68" y="-256.07" font-family="Arial" font-size="11.00">UART</text>
<text text-anchor="middle" x="68" y="-244.07" font-family="Arial" font-size="11.00">RX/TX</text>
</g>
<!-- BUTTONS -->
<g id="node5" class="node">
<title>BUTTONS</title>
<path fill="#e6e6fa" stroke="#9370db" stroke-width="2" d="M281.51,-284.88C281.51,-284.88 182.21,-284.88 182.21,-284.88 176.21,-284.88 167.54,-279.5 164.88,-274.12 164.88,-274.12 143.82,-231.63 143.82,-231.63 141.15,-226.25 144.49,-220.88 150.49,-220.88 150.49,-220.88 249.79,-220.88 249.79,-220.88 255.79,-220.88 264.46,-226.25 267.12,-231.63 267.12,-231.63 288.18,-274.12 288.18,-274.12 290.85,-279.5 287.51,-284.88 281.51,-284.88"/>
<text text-anchor="middle" x="216" y="-256.07" font-family="Arial" font-size="11.00">按键输入</text>
<text text-anchor="middle" x="216" y="-244.07" font-family="Arial" font-size="11.00">Buttons (5x)</text>
</g>
<!-- KEY -->
<g id="node19" class="node">
<title>KEY</title>
<path fill="#90ee90" stroke="#228b22" stroke-width="2" d="M1012.5,-122.19C1012.5,-122.19 955.5,-122.19 955.5,-122.19 949.5,-122.19 943.5,-116.19 943.5,-110.19 943.5,-110.19 943.5,-98.19 943.5,-98.19 943.5,-92.19 949.5,-86.19 955.5,-86.19 955.5,-86.19 1012.5,-86.19 1012.5,-86.19 1018.5,-86.19 1024.5,-92.19 1024.5,-98.19 1024.5,-98.19 1024.5,-110.19 1024.5,-110.19 1024.5,-116.19 1018.5,-122.19 1012.5,-122.19"/>
<text text-anchor="middle" x="984" y="-107.19" font-family="Arial" font-size="10.00">按键消抖</text>
<text text-anchor="middle" x="984" y="-96.19" font-family="Arial" font-size="10.00">Key Debounce</text>
</g>
<!-- BUTTONS&#45;&gt;KEY -->
<g id="edge21" class="edge">
<title>BUTTONS&#45;&gt;KEY</title>
<path fill="none" stroke="#228b22" stroke-width="1.5" d="M263.99,-225.22C276.08,-219.49 289.26,-214.05 302,-210.38 378.06,-188.42 400,-195.52 479,-190.38 491.64,-189.55 923.95,-188.57 935,-182.38 954.39,-171.5 967.23,-149.42 974.88,-131.65"/>
<polygon fill="#228b22" stroke="#228b22" stroke-width="1.5" points="978.15,-132.9 978.61,-122.32 971.65,-130.31 978.15,-132.9"/>
<text text-anchor="middle" x="490.5" y="-193.18" font-family="Arial" font-size="9.00">输入</text>
</g>
<!-- LEDS -->
<g id="node6" class="node">
<title>LEDS</title>
<path fill="#e6e6fa" stroke="#9370db" stroke-width="2" d="M609.72,-284.88C609.72,-284.88 516.45,-284.88 516.45,-284.88 510.45,-284.88 501.89,-279.45 499.33,-274.02 499.33,-274.02 479.4,-231.73 479.4,-231.73 476.84,-226.3 480.28,-220.88 486.28,-220.88 486.28,-220.88 579.55,-220.88 579.55,-220.88 585.55,-220.88 594.11,-226.3 596.67,-231.73 596.67,-231.73 616.6,-274.02 616.6,-274.02 619.16,-279.45 615.72,-284.88 609.72,-284.88"/>
<text text-anchor="middle" x="548" y="-256.07" font-family="Arial" font-size="11.00">LED 输出</text>
<text text-anchor="middle" x="548" y="-244.07" font-family="Arial" font-size="11.00">LEDs (16x)</text>
</g>
<!-- DISPLAY -->
<g id="node7" class="node">
<title>DISPLAY</title>
<path fill="#e6e6fa" stroke="#9370db" stroke-width="2" d="M444.65,-284.88C444.65,-284.88 353.08,-284.88 353.08,-284.88 347.08,-284.88 338.56,-279.43 336.03,-273.99 336.03,-273.99 316.41,-231.76 316.41,-231.76 313.88,-226.32 317.35,-220.88 323.35,-220.88 323.35,-220.88 414.92,-220.88 414.92,-220.88 420.92,-220.88 429.44,-226.32 431.97,-231.76 431.97,-231.76 451.59,-273.99 451.59,-273.99 454.12,-279.43 450.65,-284.88 444.65,-284.88"/>
<text text-anchor="middle" x="384" y="-256.07" font-family="Arial" font-size="11.00">数码管</text>
<text text-anchor="middle" x="384" y="-244.07" font-family="Arial" font-size="11.00">7&#45;Segment</text>
</g>
<!-- CPU -->
<g id="node8" class="node">
<title>CPU</title>
<path fill="#b0d4ff" stroke="#4169e1" stroke-width="2" d="M965.5,-287.38C965.5,-287.38 870.5,-287.38 870.5,-287.38 864.5,-287.38 858.5,-281.38 858.5,-275.38 858.5,-275.38 858.5,-230.38 858.5,-230.38 858.5,-224.38 864.5,-218.38 870.5,-218.38 870.5,-218.38 965.5,-218.38 965.5,-218.38 971.5,-218.38 977.5,-224.38 977.5,-230.38 977.5,-230.38 977.5,-275.38 977.5,-275.38 977.5,-281.38 971.5,-287.38 965.5,-287.38"/>
<text text-anchor="middle" x="918" y="-274.57" font-family="Arial" font-size="11.00">myCPU</text>
<text text-anchor="middle" x="918" y="-262.57" font-family="Arial" font-size="11.00">五级流水线处理器</text>
<text text-anchor="middle" x="918" y="-250.57" font-family="Arial" font-size="11.00">RV32I 指令集</text>
<text text-anchor="middle" x="918" y="-225.57" font-family="Arial" font-size="11.00">AHB&#45;I / AHB&#45;D</text>
</g>
<!-- DECODER -->
<g id="node9" class="node">
<title>DECODER</title>
<path fill="#ffd700" stroke="#ff8c00" stroke-width="2" d="M1109,-273.38C1109,-273.38 1053,-273.38 1053,-273.38 1047,-273.38 1041,-267.38 1041,-261.38 1041,-261.38 1041,-244.38 1041,-244.38 1041,-238.38 1047,-232.38 1053,-232.38 1053,-232.38 1109,-232.38 1109,-232.38 1115,-232.38 1121,-238.38 1121,-244.38 1121,-244.38 1121,-261.38 1121,-261.38 1121,-267.38 1115,-273.38 1109,-273.38"/>
<text text-anchor="middle" x="1081" y="-261.38" font-family="Arial" font-size="10.00">地址译码器</text>
<text text-anchor="middle" x="1081" y="-250.38" font-family="Arial" font-size="10.00">AHB Decoder</text>
<text text-anchor="middle" x="1081" y="-239.38" font-family="Arial" font-size="10.00">(地址路由)</text>
</g>
<!-- CPU&#45;&gt;DECODER -->
<g id="edge9" class="edge">
<title>CPU&#45;&gt;DECODER</title>
<path fill="none" stroke="#4169e1" stroke-width="2" d="M977.77,-252.88C995.08,-252.88 1013.79,-252.88 1030.47,-252.88"/>
<polygon fill="#4169e1" stroke="#4169e1" stroke-width="2" points="1030.57,-256.38 1040.57,-252.88 1030.57,-249.38 1030.57,-256.38"/>
<text text-anchor="middle" x="1009.25" y="-268.68" font-family="Arial" font-size="9.00">指令地址</text>
<text text-anchor="middle" x="1009.25" y="-258.68" font-family="Arial" font-size="9.00">HADDR_I</text>
</g>
<!-- CPU&#45;&gt;DECODER -->
<g id="edge10" class="edge">
<title>CPU&#45;&gt;DECODER</title>
<path fill="none" stroke="#9370db" stroke-width="2" d="M977.7,-231.32C993.03,-228.02 1009.64,-226.37 1031.16,-230.26"/>
<polygon fill="#9370db" stroke="#9370db" stroke-width="2" points="1030.55,-233.71 1041.06,-232.37 1032,-226.86 1030.55,-233.71"/>
<text text-anchor="middle" x="1009.25" y="-242.68" font-family="Arial" font-size="9.00">数据地址</text>
<text text-anchor="middle" x="1009.25" y="-232.68" font-family="Arial" font-size="9.00">HADDR_D</text>
</g>
<!-- UART -->
<g id="node16" class="node">
<title>UART</title>
<path fill="#90ee90" stroke="#228b22" stroke-width="2" d="M913.5,-122.19C913.5,-122.19 852.5,-122.19 852.5,-122.19 846.5,-122.19 840.5,-116.19 840.5,-110.19 840.5,-110.19 840.5,-98.19 840.5,-98.19 840.5,-92.19 846.5,-86.19 852.5,-86.19 852.5,-86.19 913.5,-86.19 913.5,-86.19 919.5,-86.19 925.5,-92.19 925.5,-98.19 925.5,-98.19 925.5,-110.19 925.5,-110.19 925.5,-116.19 919.5,-122.19 913.5,-122.19"/>
<text text-anchor="middle" x="883" y="-107.19" font-family="Arial" font-size="10.00">UART 控制器</text>
<text text-anchor="middle" x="883" y="-96.19" font-family="Arial" font-size="10.00">Serial Interface</text>
</g>
<!-- CPU&#45;&gt;UART -->
<g id="edge25" class="edge">
<title>CPU&#45;&gt;UART</title>
<path fill="none" stroke="#228b22" stroke-dasharray="1,5" d="M909.97,-218.22C903.75,-192.14 895.24,-156.47 889.45,-132.23"/>
<polygon fill="#228b22" stroke="#228b22" points="892.8,-131.2 887.08,-122.28 886,-132.82 892.8,-131.2"/>
<text text-anchor="middle" x="928" y="-193.18" font-family="Arial" font-size="9.00">串口数据</text>
</g>
<!-- SEG7 -->
<g id="node17" class="node">
<title>SEG7</title>
<path fill="#90ee90" stroke="#228b22" stroke-width="2" d="M1123.5,-122.19C1123.5,-122.19 1054.5,-122.19 1054.5,-122.19 1048.5,-122.19 1042.5,-116.19 1042.5,-110.19 1042.5,-110.19 1042.5,-98.19 1042.5,-98.19 1042.5,-92.19 1048.5,-86.19 1054.5,-86.19 1054.5,-86.19 1123.5,-86.19 1123.5,-86.19 1129.5,-86.19 1135.5,-92.19 1135.5,-98.19 1135.5,-98.19 1135.5,-110.19 1135.5,-110.19 1135.5,-116.19 1129.5,-122.19 1123.5,-122.19"/>
<text text-anchor="middle" x="1089" y="-107.19" font-family="Arial" font-size="10.00">数码管控制器</text>
<text text-anchor="middle" x="1089" y="-96.19" font-family="Arial" font-size="10.00">7&#45;Segment Driver</text>
</g>
<!-- CPU&#45;&gt;SEG7 -->
<g id="edge23" class="edge">
<title>CPU&#45;&gt;SEG7</title>
<path fill="none" stroke="#228b22" stroke-dasharray="1,5" d="M977.6,-222.46C996.78,-211.41 1017.36,-197.75 1034,-182.38 1050.07,-167.54 1064.27,-147.3 1074.22,-131.27"/>
<polygon fill="#228b22" stroke="#228b22" points="1077.41,-132.76 1079.57,-122.39 1071.42,-129.15 1077.41,-132.76"/>
<text text-anchor="middle" x="1045" y="-193.18" font-family="Arial" font-size="9.00">显示数据</text>
</g>
<!-- LED -->
<g id="node18" class="node">
<title>LED</title>
<path fill="#90ee90" stroke="#228b22" stroke-width="2" d="M1218.5,-122.19C1218.5,-122.19 1165.5,-122.19 1165.5,-122.19 1159.5,-122.19 1153.5,-116.19 1153.5,-110.19 1153.5,-110.19 1153.5,-98.19 1153.5,-98.19 1153.5,-92.19 1159.5,-86.19 1165.5,-86.19 1165.5,-86.19 1218.5,-86.19 1218.5,-86.19 1224.5,-86.19 1230.5,-92.19 1230.5,-98.19 1230.5,-98.19 1230.5,-110.19 1230.5,-110.19 1230.5,-116.19 1224.5,-122.19 1218.5,-122.19"/>
<text text-anchor="middle" x="1192" y="-107.19" font-family="Arial" font-size="10.00">LED 控制器</text>
<text text-anchor="middle" x="1192" y="-96.19" font-family="Arial" font-size="10.00">LED Driver</text>
</g>
<!-- CPU&#45;&gt;LED -->
<g id="edge24" class="edge">
<title>CPU&#45;&gt;LED</title>
<path fill="none" stroke="#228b22" stroke-dasharray="1,5" d="M977.72,-227.35C993.58,-221.33 1010.8,-215.23 1027,-210.38 1078.63,-194.9 1101.54,-214.25 1145,-182.38 1162.24,-169.73 1174.44,-148.68 1182.09,-131.75"/>
<polygon fill="#228b22" stroke="#228b22" points="1185.39,-132.93 1186.06,-122.36 1178.94,-130.2 1185.39,-132.93"/>
<text text-anchor="middle" x="1153.5" y="-193.18" font-family="Arial" font-size="9.00">LED 状态</text>
</g>
<!-- IROM_CTRL -->
<g id="node11" class="node">
<title>IROM_CTRL</title>
<path fill="#afeeee" stroke="#20b2aa" stroke-width="2" d="M1398,-273.38C1398,-273.38 1312,-273.38 1312,-273.38 1306,-273.38 1300,-267.38 1300,-261.38 1300,-261.38 1300,-244.38 1300,-244.38 1300,-238.38 1306,-232.38 1312,-232.38 1312,-232.38 1398,-232.38 1398,-232.38 1404,-232.38 1410,-238.38 1410,-244.38 1410,-244.38 1410,-261.38 1410,-261.38 1410,-267.38 1404,-273.38 1398,-273.38"/>
<text text-anchor="middle" x="1355" y="-261.38" font-family="Arial" font-size="10.00">指令 ROM 控制器</text>
<text text-anchor="middle" x="1355" y="-250.38" font-family="Arial" font-size="10.00">IROM Controller</text>
<text text-anchor="middle" x="1355" y="-239.38" font-family="Arial" font-size="10.00">(AHB → ROM)</text>
</g>
<!-- DECODER&#45;&gt;IROM_CTRL -->
<g id="edge11" class="edge">
<title>DECODER&#45;&gt;IROM_CTRL</title>
<path fill="none" stroke="#20b2aa" stroke-width="2" d="M1085.75,-273.51C1091.93,-295 1105.01,-327.56 1130,-342.38 1180.09,-372.06 1206.94,-363.99 1261,-342.38 1291.48,-330.19 1317.7,-302.89 1334.65,-281.63"/>
<polygon fill="#20b2aa" stroke="#20b2aa" stroke-width="2" points="1337.56,-283.58 1340.9,-273.53 1332.02,-279.31 1337.56,-283.58"/>
<text text-anchor="middle" x="1194" y="-363.18" font-family="Arial" font-size="9.00">HSEL_IROM</text>
</g>
<!-- BRAM_CTRL -->
<g id="node12" class="node">
<title>BRAM_CTRL</title>
<path fill="#afeeee" stroke="#20b2aa" stroke-width="2" d="M1525.5,-273.38C1525.5,-273.38 1440.5,-273.38 1440.5,-273.38 1434.5,-273.38 1428.5,-267.38 1428.5,-261.38 1428.5,-261.38 1428.5,-244.38 1428.5,-244.38 1428.5,-238.38 1434.5,-232.38 1440.5,-232.38 1440.5,-232.38 1525.5,-232.38 1525.5,-232.38 1531.5,-232.38 1537.5,-238.38 1537.5,-244.38 1537.5,-244.38 1537.5,-261.38 1537.5,-261.38 1537.5,-267.38 1531.5,-273.38 1525.5,-273.38"/>
<text text-anchor="middle" x="1483" y="-261.38" font-family="Arial" font-size="10.00">数据 RAM 控制器</text>
<text text-anchor="middle" x="1483" y="-250.38" font-family="Arial" font-size="10.00">BRAM Controller</text>
<text text-anchor="middle" x="1483" y="-239.38" font-family="Arial" font-size="10.00">(AHB → RAM)</text>
</g>
<!-- DECODER&#45;&gt;BRAM_CTRL -->
<g id="edge12" class="edge">
<title>DECODER&#45;&gt;BRAM_CTRL</title>
<path fill="none" stroke="#20b2aa" stroke-width="2" d="M1085.75,-273.51C1091.93,-295 1105.01,-327.56 1130,-342.38 1185.25,-375.11 1361.89,-371.75 1419,-342.38 1443.16,-329.95 1460.23,-303.71 1470.63,-282.84"/>
<polygon fill="#20b2aa" stroke="#20b2aa" stroke-width="2" points="1473.84,-284.23 1474.94,-273.69 1467.51,-281.25 1473.84,-284.23"/>
<text text-anchor="middle" x="1256" y="-363.18" font-family="Arial" font-size="9.00">HSEL_BRAM</text>
</g>
<!-- MUX -->
<g id="node10" class="node">
<title>MUX</title>
<path fill="#ffd700" stroke="#ff8c00" stroke-width="2" d="M1233,-273.38C1233,-273.38 1151,-273.38 1151,-273.38 1145,-273.38 1139,-267.38 1139,-261.38 1139,-261.38 1139,-244.38 1139,-244.38 1139,-238.38 1145,-232.38 1151,-232.38 1151,-232.38 1233,-232.38 1233,-232.38 1239,-232.38 1245,-238.38 1245,-244.38 1245,-244.38 1245,-261.38 1245,-261.38 1245,-267.38 1239,-273.38 1233,-273.38"/>
<text text-anchor="middle" x="1192" y="-261.38" font-family="Arial" font-size="10.00">数据多路复用器</text>
<text text-anchor="middle" x="1192" y="-250.38" font-family="Arial" font-size="10.00">AHB Multiplexer</text>
<text text-anchor="middle" x="1192" y="-239.38" font-family="Arial" font-size="10.00">(数据选择)</text>
</g>
<!-- MUX&#45;&gt;CPU -->
<g id="edge19" class="edge">
<title>MUX&#45;&gt;CPU</title>
<path fill="none" stroke="#4169e1" stroke-width="2" stroke-dasharray="5,2" d="M1184.37,-273.67C1175.18,-295.31 1157.46,-327.99 1130,-342.38 1089.45,-363.61 1070.1,-357.8 1027,-342.38 999.93,-332.69 974.76,-313.06 955.45,-294.65"/>
<polygon fill="#4169e1" stroke="#4169e1" stroke-width="2" points="957.66,-291.91 948.07,-287.4 952.76,-296.91 957.66,-291.91"/>
<text text-anchor="middle" x="1010" y="-363.18" font-family="Arial" font-size="9.00">指令</text>
</g>
<!-- MUX&#45;&gt;CPU -->
<g id="edge20" class="edge">
<title>MUX&#45;&gt;CPU</title>
<path fill="none" stroke="#9370db" stroke-width="2" stroke-dasharray="5,2" d="M1184.37,-273.67C1175.18,-295.31 1157.46,-327.99 1130,-342.38 1089.45,-363.61 1070.1,-357.8 1027,-342.38 999.93,-332.69 974.76,-313.06 955.45,-294.65"/>
<polygon fill="#9370db" stroke="#9370db" stroke-width="2" points="957.66,-291.91 948.07,-287.4 952.76,-296.91 957.66,-291.91"/>
<text text-anchor="middle" x="1010" y="-363.18" font-family="Arial" font-size="9.00">数据</text>
</g>
<!-- IROM_CTRL&#45;&gt;MUX -->
<g id="edge17" class="edge">
<title>IROM_CTRL&#45;&gt;MUX</title>
<path fill="none" stroke="#20b2aa" stroke-width="1.5" stroke-dasharray="5,2" d="M1299.83,-252.88C1285.54,-252.88 1270.04,-252.88 1255.37,-252.88"/>
<polygon fill="#20b2aa" stroke="#20b2aa" stroke-width="1.5" points="1255.37,-249.38 1245.37,-252.88 1255.37,-256.38 1255.37,-249.38"/>
<text text-anchor="middle" x="1272.5" y="-258.68" font-family="Arial" font-size="9.00">HRDATA</text>
</g>
<!-- IROM -->
<g id="node13" class="node">
<title>IROM</title>
<path fill="#f0ffff" stroke="#48d1cc" stroke-width="2" d="M1388.5,-127.4C1388.5,-130.25 1368.55,-132.56 1344,-132.56 1319.45,-132.56 1299.5,-130.25 1299.5,-127.4 1299.5,-127.4 1299.5,-80.97 1299.5,-80.97 1299.5,-78.12 1319.45,-75.81 1344,-75.81 1368.55,-75.81 1388.5,-78.12 1388.5,-80.97 1388.5,-80.97 1388.5,-127.4 1388.5,-127.4"/>
<path fill="none" stroke="#48d1cc" stroke-width="2" d="M1388.5,-127.4C1388.5,-124.56 1368.55,-122.25 1344,-122.25 1319.45,-122.25 1299.5,-124.56 1299.5,-127.4"/>
<text text-anchor="middle" x="1344" y="-112.69" font-family="Arial" font-size="10.00">指令存储器</text>
<text text-anchor="middle" x="1344" y="-101.69" font-family="Arial" font-size="10.00">Instruction ROM</text>
<text text-anchor="middle" x="1344" y="-90.69" font-family="Arial" font-size="10.00">64 KB</text>
</g>
<!-- IROM_CTRL&#45;&gt;IROM -->
<g id="edge13" class="edge">
<title>IROM_CTRL&#45;&gt;IROM</title>
<path fill="none" stroke="#48d1cc" stroke-width="1.5" d="M1353.52,-232.09C1351.8,-209.25 1348.95,-171.16 1346.81,-142.66"/>
<polygon fill="#48d1cc" stroke="#48d1cc" stroke-width="1.5" points="1350.3,-142.35 1346.06,-132.64 1343.32,-142.87 1350.3,-142.35"/>
<text text-anchor="middle" x="1375" y="-193.18" font-family="Arial" font-size="9.00">地址/控制</text>
</g>
<!-- BRAM_CTRL&#45;&gt;MUX -->
<g id="edge18" class="edge">
<title>BRAM_CTRL&#45;&gt;MUX</title>
<path fill="none" stroke="#20b2aa" stroke-width="1.5" stroke-dasharray="5,2" d="M1474.94,-273.69C1465.29,-295.35 1446.86,-328.05 1419,-342.38 1367.22,-369 1342.17,-363.71 1288,-342.38 1257.12,-330.21 1230.3,-302.91 1212.92,-281.64"/>
<polygon fill="#20b2aa" stroke="#20b2aa" stroke-width="1.5" points="1215.46,-279.21 1206.51,-273.54 1209.97,-283.55 1215.46,-279.21"/>
<text text-anchor="middle" x="1311" y="-363.18" font-family="Arial" font-size="9.00">HRDATA</text>
</g>
<!-- BRAM -->
<g id="node14" class="node">
<title>BRAM</title>
<path fill="#f0ffff" stroke="#48d1cc" stroke-width="2" d="M1487,-127.4C1487,-130.25 1469.07,-132.56 1447,-132.56 1424.93,-132.56 1407,-130.25 1407,-127.4 1407,-127.4 1407,-80.97 1407,-80.97 1407,-78.12 1424.93,-75.81 1447,-75.81 1469.07,-75.81 1487,-78.12 1487,-80.97 1487,-80.97 1487,-127.4 1487,-127.4"/>
<path fill="none" stroke="#48d1cc" stroke-width="2" d="M1487,-127.4C1487,-124.56 1469.07,-122.25 1447,-122.25 1424.93,-122.25 1407,-124.56 1407,-127.4"/>
<text text-anchor="middle" x="1447" y="-112.69" font-family="Arial" font-size="10.00">数据存储器</text>
<text text-anchor="middle" x="1447" y="-101.69" font-family="Arial" font-size="10.00">Data RAM</text>
<text text-anchor="middle" x="1447" y="-90.69" font-family="Arial" font-size="10.00">64 KB</text>
</g>
<!-- BRAM_CTRL&#45;&gt;BRAM -->
<g id="edge14" class="edge">
<title>BRAM_CTRL&#45;&gt;BRAM</title>
<path fill="none" stroke="#48d1cc" stroke-width="1.5" d="M1456.22,-232.26C1446.69,-223.66 1437.07,-212.71 1432,-200.38 1424.48,-182.1 1427.1,-160.42 1432.09,-142.37"/>
<polygon fill="#48d1cc" stroke="#48d1cc" stroke-width="1.5" points="1435.45,-143.35 1435.06,-132.77 1428.76,-141.29 1435.45,-143.35"/>
<text text-anchor="middle" x="1456" y="-193.18" font-family="Arial" font-size="9.00">地址/控制</text>
</g>
<!-- IROM&#45;&gt;IROM_CTRL -->
<g id="edge15" class="edge">
<title>IROM&#45;&gt;IROM_CTRL</title>
<path fill="none" stroke="#48d1cc" stroke-width="1.5" stroke-dasharray="5,2" d="M1318.2,-132.52C1303.57,-151.47 1290.01,-177.32 1300,-200.38 1304.06,-209.74 1310.75,-218.17 1318.09,-225.38"/>
<polygon fill="#48d1cc" stroke="#48d1cc" stroke-width="1.5" points="1315.82,-228.05 1325.58,-232.17 1320.52,-222.86 1315.82,-228.05"/>
<text text-anchor="middle" x="1323" y="-193.18" font-family="Arial" font-size="9.00">指令数据</text>
</g>
<!-- BRAM&#45;&gt;BRAM_CTRL -->
<g id="edge16" class="edge">
<title>BRAM&#45;&gt;BRAM_CTRL</title>
<path fill="none" stroke="#48d1cc" stroke-width="1.5" stroke-dasharray="5,2" d="M1464.15,-141.79C1470.27,-156.56 1476.52,-173.96 1480,-190.38 1482.17,-200.62 1483.12,-212.03 1483.47,-222.21"/>
<polygon fill="#48d1cc" stroke="#48d1cc" stroke-width="1.5" points="1467.32,-140.32 1460.17,-132.51 1460.89,-143.08 1467.32,-140.32"/>
<polygon fill="#48d1cc" stroke="#48d1cc" stroke-width="1.5" points="1479.97,-222.34 1483.63,-232.28 1486.97,-222.23 1479.97,-222.34"/>
<text text-anchor="middle" x="1504" y="-193.18" font-family="Arial" font-size="9.00">读写数据</text>
</g>
<!-- PLL&#45;&gt;CPU -->
<g id="edge4" class="edge">
<title>PLL&#45;&gt;CPU</title>
<path fill="none" stroke="#ffa500" stroke-width="1.5" stroke-dasharray="5,2" d="M1052.73,-435.36C1029.79,-420.47 997.8,-397.07 976,-370.38 958.1,-348.46 943.83,-320.1 933.93,-296.85"/>
<polygon fill="#ffa500" stroke="#ffa500" stroke-width="1.5" points="937.14,-295.47 930.08,-287.56 930.67,-298.14 937.14,-295.47"/>
<text text-anchor="middle" x="985.5" y="-363.18" font-family="Arial" font-size="9.00">CLK</text>
</g>
<!-- PLL&#45;&gt;DECODER -->
<g id="edge5" class="edge">
<title>PLL&#45;&gt;DECODER</title>
<path fill="none" stroke="#ffa500" stroke-width="1.5" stroke-dasharray="5,2" d="M1081,-435.11C1081,-401.27 1081,-325.86 1081,-283.76"/>
<polygon fill="#ffa500" stroke="#ffa500" stroke-width="1.5" points="1084.5,-283.58 1081,-273.58 1077.5,-283.58 1084.5,-283.58"/>
<text text-anchor="middle" x="1090.5" y="-363.18" font-family="Arial" font-size="9.00">CLK</text>
</g>
<!-- PLL&#45;&gt;MUX -->
<g id="edge6" class="edge">
<title>PLL&#45;&gt;MUX</title>
<path fill="none" stroke="#ffa500" stroke-width="1.5" stroke-dasharray="5,2" d="M1090.66,-435.11C1109.78,-400.91 1152.64,-324.26 1176.03,-282.43"/>
<polygon fill="#ffa500" stroke="#ffa500" stroke-width="1.5" points="1179.16,-284.01 1180.98,-273.58 1173.05,-280.59 1179.16,-284.01"/>
<text text-anchor="middle" x="1138.5" y="-363.18" font-family="Arial" font-size="9.00">CLK</text>
</g>
<!-- PLL&#45;&gt;IROM_CTRL -->
<g id="edge7" class="edge">
<title>PLL&#45;&gt;IROM_CTRL</title>
<path fill="none" stroke="#ffa500" stroke-width="1.5" stroke-dasharray="5,2" d="M1132.51,-450.31C1189.89,-445.11 1281.23,-427.68 1332,-370.38 1352.91,-346.78 1357.04,-309.8 1356.98,-283.85"/>
<polygon fill="#ffa500" stroke="#ffa500" stroke-width="1.5" points="1360.48,-283.73 1356.75,-273.81 1353.48,-283.89 1360.48,-283.73"/>
<text text-anchor="middle" x="1346.5" y="-363.18" font-family="Arial" font-size="9.00">CLK</text>
</g>
<!-- PLL&#45;&gt;BRAM_CTRL -->
<g id="edge8" class="edge">
<title>PLL&#45;&gt;BRAM_CTRL</title>
<path fill="none" stroke="#ffa500" stroke-width="1.5" stroke-dasharray="5,2" d="M1132.68,-448.33C1203.65,-440.45 1332.35,-417.62 1419,-352.38 1442.84,-334.42 1460.34,-304.81 1470.96,-282.73"/>
<polygon fill="#ffa500" stroke="#ffa500" stroke-width="1.5" points="1474.21,-284.03 1475.21,-273.49 1467.85,-281.1 1474.21,-284.03"/>
<text text-anchor="middle" x="1412.5" y="-363.18" font-family="Arial" font-size="9.00">CLK</text>
</g>
<!-- UART&#45;&gt;UART_IO -->
<g id="edge28" class="edge">
<title>UART&#45;&gt;UART_IO</title>
<path fill="none" stroke="#228b22" stroke-width="1.5" d="M830.34,-104.43C704.56,-104.33 378.49,-114.18 129,-210.38 122.18,-213 115.37,-216.52 108.9,-220.41"/>
<polygon fill="#228b22" stroke="#228b22" stroke-width="1.5" points="830.46,-107.93 840.47,-104.46 830.48,-100.93 830.46,-107.93"/>
<polygon fill="#228b22" stroke="#228b22" stroke-width="1.5" points="106.88,-217.54 100.33,-225.87 110.64,-223.45 106.88,-217.54"/>
<text text-anchor="middle" x="181.5" y="-193.18" font-family="Arial" font-size="9.00">TX/RX</text>
</g>
<!-- SEG7&#45;&gt;DISPLAY -->
<g id="edge26" class="edge">
<title>SEG7&#45;&gt;DISPLAY</title>
<path fill="none" stroke="#228b22" stroke-width="1.5" d="M1082.34,-122.37C1074.11,-140.95 1058.15,-169.61 1034,-182.38 1015.09,-192.37 670.35,-189 649,-190.38 566.91,-195.68 543.8,-186.78 465,-210.38 456.11,-213.04 447.03,-216.66 438.32,-220.67"/>
<polygon fill="#228b22" stroke="#228b22" stroke-width="1.5" points="436.53,-217.65 429.04,-225.14 439.57,-223.95 436.53,-217.65"/>
<text text-anchor="middle" x="660.5" y="-193.18" font-family="Arial" font-size="9.00">驱动</text>
</g>
<!-- LED&#45;&gt;LEDS -->
<g id="edge27" class="edge">
<title>LED&#45;&gt;LEDS</title>
<path fill="none" stroke="#228b22" stroke-width="1.5" d="M1187.01,-122.24C1180.59,-140.71 1167.51,-169.28 1145,-182.38 1132.08,-189.89 890.93,-189.54 876,-190.38 766.92,-196.45 736.22,-180.97 631,-210.38 621.67,-212.98 612.15,-216.65 603.03,-220.75"/>
<polygon fill="#228b22" stroke="#228b22" stroke-width="1.5" points="601.27,-217.71 593.71,-225.13 604.25,-224.04 601.27,-217.71"/>
<text text-anchor="middle" x="887.5" y="-193.18" font-family="Arial" font-size="9.00">驱动</text>
</g>
<!-- KEY&#45;&gt;CPU -->
<g id="edge22" class="edge">
<title>KEY&#45;&gt;CPU</title>
<path fill="none" stroke="#228b22" stroke-dasharray="1,5" d="M980.28,-122.29C975.66,-141.82 966.79,-174.42 954,-200.38 952.48,-203.45 950.8,-206.55 949,-209.62"/>
<polygon fill="#228b22" stroke="#228b22" points="946.01,-207.8 943.72,-218.14 951.97,-211.49 946.01,-207.8"/>
<text text-anchor="middle" x="975" y="-193.18" font-family="Arial" font-size="9.00">按键值</text>
</g>
<!-- legend -->
<g id="node20" class="node">
<title>legend</title>
<text text-anchor="start" x="1592" y="-467.18" font-family="Arial" font-size="9.00">━━━━ 实线：数据/地址通路</text>
<text text-anchor="start" x="1592" y="-451.18" font-family="Arial" font-size="9.00">┈┈┈┈ 虚线：读取数据返回</text>
<text text-anchor="start" x="1592" y="-435.18" font-family="Arial" font-size="9.00">······ 点线：控制/状态信号</text>
</g>
</g>
</svg>
