<?xml version="1.0" encoding="UTF-8" standalone="no"?>
<!DOCTYPE svg PUBLIC "-//W3C//DTD SVG 1.1//EN"
 "http://www.w3.org/Graphics/SVG/1.1/DTD/svg11.dtd">
<!-- Generated by graphviz version 2.43.0 (0)
 -->
<!-- Title: soc_architecture Pages: 1 -->
<svg width="1154pt" height="949pt"
 viewBox="0.00 0.00 1154.00 949.38" xmlns="http://www.w3.org/2000/svg" xmlns:xlink="http://www.w3.org/1999/xlink">
<g id="graph0" class="graph" transform="scale(1 1) rotate(0) translate(4 945.38)">
<title>soc_architecture</title>
<polygon fill="white" stroke="transparent" points="-4,4 -4,-945.38 1150,-945.38 1150,4 -4,4"/>
<g id="clust1" class="cluster">
<title>cluster_external</title>
<polygon fill="#f5f5f5" stroke="#696969" stroke-dasharray="5,2" points="8,-8 8,-804.38 185,-804.38 185,-8 8,-8"/>
<text text-anchor="middle" x="96.5" y="-790.77" font-family="Arial" font-size="12.00">外部接口 (External Interfaces)</text>
</g>
<g id="clust2" class="cluster">
<title>cluster_soc</title>
<path fill="#ffffff" stroke="#000000" stroke-width="3" d="M205,-116C205,-116 1126,-116 1126,-116 1132,-116 1138,-122 1138,-128 1138,-128 1138,-670.38 1138,-670.38 1138,-676.38 1132,-682.38 1126,-682.38 1126,-682.38 205,-682.38 205,-682.38 199,-682.38 193,-676.38 193,-670.38 193,-670.38 193,-128 193,-128 193,-122 199,-116 205,-116"/>
<text text-anchor="middle" x="665.5" y="-123.6" font-family="Arial Bold" font-size="13.00">SoC 芯片内部 (SoC Internal)</text>
</g>
<g id="clust3" class="cluster">
<title>cluster_cpu</title>
<path fill="#e6f3ff" stroke="#4169e1" stroke-width="2" d="M418,-412.38C418,-412.38 585,-412.38 585,-412.38 591,-412.38 597,-418.38 597,-424.38 597,-424.38 597,-527.38 597,-527.38 597,-533.38 591,-539.38 585,-539.38 585,-539.38 418,-539.38 418,-539.38 412,-539.38 406,-533.38 406,-527.38 406,-527.38 406,-424.38 406,-424.38 406,-418.38 412,-412.38 418,-412.38"/>
<text text-anchor="middle" x="501.5" y="-525.77" font-family="Arial" font-size="12.00">RISC&#45;V 处理器核心 (CPU Core)</text>
</g>
<g id="clust4" class="cluster">
<title>cluster_ahb</title>
<path fill="#fff8dc" stroke="#ff8c00" stroke-width="2" d="M617,-426.38C617,-426.38 819,-426.38 819,-426.38 825,-426.38 831,-432.38 831,-438.38 831,-438.38 831,-513.38 831,-513.38 831,-519.38 825,-525.38 819,-525.38 819,-525.38 617,-525.38 617,-525.38 611,-525.38 605,-519.38 605,-513.38 605,-513.38 605,-438.38 605,-438.38 605,-432.38 611,-426.38 617,-426.38"/>
<text text-anchor="middle" x="718" y="-511.77" font-family="Arial" font-size="12.00">AHB 总线互连系统 (AHB Interconnect)</text>
</g>
<g id="clust5" class="cluster">
<title>cluster_memory</title>
<path fill="#e0ffff" stroke="#20b2aa" stroke-width="2" d="M851,-262C851,-262 1118,-262 1118,-262 1124,-262 1130,-268 1130,-274 1130,-274 1130,-542.38 1130,-542.38 1130,-548.38 1124,-554.38 1118,-554.38 1118,-554.38 851,-554.38 851,-554.38 845,-554.38 839,-548.38 839,-542.38 839,-542.38 839,-274 839,-274 839,-268 845,-262 851,-262"/>
<text text-anchor="middle" x="984.5" y="-540.77" font-family="Arial" font-size="12.00">存储子系统 (Memory Subsystem)</text>
</g>
<g id="clust6" class="cluster">
<title>cluster_ctrl</title>
<path fill="#e0ffff" stroke="#20b2aa" stroke-width="2" d="M875,-426.38C875,-426.38 1105,-426.38 1105,-426.38 1111,-426.38 1117,-432.38 1117,-438.38 1117,-438.38 1117,-513.38 1117,-513.38 1117,-519.38 1111,-525.38 1105,-525.38 1105,-525.38 875,-525.38 875,-525.38 869,-525.38 863,-519.38 863,-513.38 863,-513.38 863,-438.38 863,-438.38 863,-432.38 869,-426.38 875,-426.38"/>
<text text-anchor="middle" x="990" y="-511.77" font-family="Arial" font-size="12.00">存储子系统 (Memory Subsystem)</text>
</g>
<g id="clust7" class="cluster">
<title>cluster_mem</title>
<path fill="#e0ffff" stroke="#20b2aa" stroke-width="2" d="M882,-270C882,-270 1061,-270 1061,-270 1067,-270 1073,-276 1073,-282 1073,-282 1073,-372.38 1073,-372.38 1073,-378.38 1067,-384.38 1061,-384.38 1061,-384.38 882,-384.38 882,-384.38 876,-384.38 870,-378.38 870,-372.38 870,-372.38 870,-282 870,-282 870,-276 876,-270 882,-270"/>
<text text-anchor="middle" x="971.5" y="-370.77" font-family="Arial" font-size="12.00">存储子系统 (Memory Subsystem)</text>
</g>
<g id="clust8" class="cluster">
<title>cluster_clk</title>
<path fill="#fffaf0" stroke="#ff6347" stroke-width="2" d="M513,-582.38C513,-582.38 674,-582.38 674,-582.38 680,-582.38 686,-588.38 686,-594.38 686,-594.38 686,-662.38 686,-662.38 686,-668.38 680,-674.38 674,-674.38 674,-674.38 513,-674.38 513,-674.38 507,-674.38 501,-668.38 501,-662.38 501,-662.38 501,-594.38 501,-594.38 501,-588.38 507,-582.38 513,-582.38"/>
<text text-anchor="middle" x="593.5" y="-661.58" font-family="Arial" font-size="11.00">时钟与复位系统 (Clock &amp; Reset)</text>
</g>
<g id="clust9" class="cluster">
<title>cluster_periph</title>
<path fill="#f0fff0" stroke="#228b22" stroke-width="2" d="M213,-168C213,-168 386,-168 386,-168 392,-168 398,-174 398,-180 398,-180 398,-662.38 398,-662.38 398,-668.38 392,-674.38 386,-674.38 386,-674.38 213,-674.38 213,-674.38 207,-674.38 201,-668.38 201,-662.38 201,-662.38 201,-180 201,-180 201,-174 207,-168 213,-168"/>
<text text-anchor="middle" x="299.5" y="-661.58" font-family="Arial" font-size="11.00">外设子系统 (Peripheral Subsystem)</text>
</g>
<g id="clust10" class="cluster">
<title>cluster_legend</title>
<polygon fill="white" stroke="#808080" stroke-dasharray="5,2" points="610,-821.38 610,-933.38 778,-933.38 778,-821.38 610,-821.38"/>
<text text-anchor="middle" x="694" y="-828.38" font-family="Arial" font-size="10.00">图例 (Legend)</text>
</g>
<!-- title -->
<g id="node1" class="node">
<title>title</title>
<text text-anchor="middle" x="136" y="-901.58" font-family="Arial Bold" font-size="16.00">LibreCore SoC 系统架构</text>
<text text-anchor="middle" x="136" y="-883.58" font-family="Arial Bold" font-size="16.00">SoC System Architecture</text>
</g>
<!-- CLK_IN -->
<g id="node2" class="node">
<title>CLK_IN</title>
<path fill="#fffacd" stroke="#daa520" stroke-width="2" d="M165,-754.38C165,-754.38 107,-754.38 107,-754.38 101,-754.38 95,-748.38 95,-742.38 95,-742.38 95,-730.38 95,-730.38 95,-724.38 101,-718.38 107,-718.38 107,-718.38 165,-718.38 165,-718.38 171,-718.38 177,-724.38 177,-730.38 177,-730.38 177,-742.38 177,-742.38 177,-748.38 171,-754.38 165,-754.38"/>
<text text-anchor="middle" x="136" y="-739.58" font-family="Arial" font-size="11.00">时钟输入</text>
<text text-anchor="middle" x="136" y="-727.58" font-family="Arial" font-size="11.00">CLK 100MHz</text>
</g>
<!-- title&#45;&gt;CLK_IN -->
<!-- RESET_IN -->
<g id="node3" class="node">
<title>RESET_IN</title>
<path fill="#fffacd" stroke="#daa520" stroke-width="2" d="M163,-626.38C163,-626.38 119,-626.38 119,-626.38 113,-626.38 107,-620.38 107,-614.38 107,-614.38 107,-602.38 107,-602.38 107,-596.38 113,-590.38 119,-590.38 119,-590.38 163,-590.38 163,-590.38 169,-590.38 175,-596.38 175,-602.38 175,-602.38 175,-614.38 175,-614.38 175,-620.38 169,-626.38 163,-626.38"/>
<text text-anchor="middle" x="141" y="-611.58" font-family="Arial" font-size="11.00">复位信号</text>
<text text-anchor="middle" x="141" y="-599.58" font-family="Arial" font-size="11.00">RESET</text>
</g>
<!-- CLK_IN&#45;&gt;RESET_IN -->
<!-- PLL -->
<g id="node15" class="node">
<title>PLL</title>
<path fill="#ffe4b5" stroke="#ff8c00" stroke-width="2" d="M632.5,-626.38C632.5,-626.38 553.5,-626.38 553.5,-626.38 547.5,-626.38 541.5,-620.38 541.5,-614.38 541.5,-614.38 541.5,-602.38 541.5,-602.38 541.5,-596.38 547.5,-590.38 553.5,-590.38 553.5,-590.38 632.5,-590.38 632.5,-590.38 638.5,-590.38 644.5,-596.38 644.5,-602.38 644.5,-602.38 644.5,-614.38 644.5,-614.38 644.5,-620.38 638.5,-626.38 632.5,-626.38"/>
<text text-anchor="middle" x="593" y="-611.38" font-family="Arial" font-size="10.00">PLL 时钟管理</text>
<text text-anchor="middle" x="593" y="-600.38" font-family="Arial" font-size="10.00">Phase&#45;Locked Loop</text>
</g>
<!-- CLK_IN&#45;&gt;PLL -->
<g id="edge10" class="edge">
<title>CLK_IN&#45;&gt;PLL</title>
<path fill="none" stroke="#ff8c00" stroke-width="2" d="M177.31,-728.12C215.27,-721.34 273.03,-710.74 323,-700.38 358.26,-693.06 367.54,-692.83 402,-682.38 451.17,-667.46 505.79,-646.08 543.98,-630.3"/>
<polygon fill="#ff8c00" stroke="#ff8c00" stroke-width="2" points="545.44,-633.49 553.33,-626.42 542.75,-627.03 545.44,-633.49"/>
<text text-anchor="middle" x="389.5" y="-693.17" font-family="Arial" font-size="9.00">100MHz</text>
</g>
<!-- UART_IO -->
<g id="node4" class="node">
<title>UART_IO</title>
<path fill="#e6e6fa" stroke="#9370db" stroke-width="2" d="M164.68,-486.88C164.68,-486.88 106.47,-486.88 106.47,-486.88 100.47,-486.88 92.59,-481.18 90.71,-475.48 90.71,-475.48 77.09,-434.27 77.09,-434.27 75.21,-428.57 79.32,-422.88 85.32,-422.88 85.32,-422.88 143.53,-422.88 143.53,-422.88 149.53,-422.88 157.41,-428.57 159.29,-434.27 159.29,-434.27 172.91,-475.48 172.91,-475.48 174.79,-481.18 170.68,-486.88 164.68,-486.88"/>
<text text-anchor="middle" x="125" y="-458.07" font-family="Arial" font-size="11.00">UART</text>
<text text-anchor="middle" x="125" y="-446.07" font-family="Arial" font-size="11.00">RX/TX</text>
</g>
<!-- RESET_IN&#45;&gt;UART_IO -->
<!-- RESET_IN&#45;&gt;PLL -->
<g id="edge11" class="edge">
<title>RESET_IN&#45;&gt;PLL</title>
<path fill="none" stroke="#ff0000" stroke-width="2" d="M149.59,-626.61C158.7,-643.56 174.84,-667.72 197,-678.38 279.12,-717.84 312.29,-694.3 402,-678.38 453.13,-669.3 508.54,-647.56 546.44,-630.69"/>
<polygon fill="#ff0000" stroke="#ff0000" stroke-width="2" points="548.01,-633.82 555.68,-626.52 545.13,-627.44 548.01,-633.82"/>
<text text-anchor="middle" x="307" y="-693.17" font-family="Arial" font-size="9.00">复位</text>
</g>
<!-- BUTTONS -->
<g id="node5" class="node">
<title>BUTTONS</title>
<path fill="#e6e6fa" stroke="#9370db" stroke-width="2" d="M164.51,-338.19C164.51,-338.19 65.21,-338.19 65.21,-338.19 59.21,-338.19 50.54,-332.81 47.88,-327.44 47.88,-327.44 26.82,-284.94 26.82,-284.94 24.15,-279.56 27.49,-274.19 33.49,-274.19 33.49,-274.19 132.79,-274.19 132.79,-274.19 138.79,-274.19 147.46,-279.56 150.12,-284.94 150.12,-284.94 171.18,-327.44 171.18,-327.44 173.85,-332.81 170.51,-338.19 164.51,-338.19"/>
<text text-anchor="middle" x="99" y="-309.39" font-family="Arial" font-size="11.00">按键输入</text>
<text text-anchor="middle" x="99" y="-297.39" font-family="Arial" font-size="11.00">Buttons (5x)</text>
</g>
<!-- UART_IO&#45;&gt;BUTTONS -->
<!-- LEDS -->
<g id="node6" class="node">
<title>LEDS</title>
<path fill="#e6e6fa" stroke="#9370db" stroke-width="2" d="M164.72,-226C164.72,-226 71.45,-226 71.45,-226 65.45,-226 56.89,-220.57 54.33,-215.15 54.33,-215.15 34.4,-172.85 34.4,-172.85 31.84,-167.43 35.28,-162 41.28,-162 41.28,-162 134.55,-162 134.55,-162 140.55,-162 149.11,-167.43 151.67,-172.85 151.67,-172.85 171.6,-215.15 171.6,-215.15 174.16,-220.57 170.72,-226 164.72,-226"/>
<text text-anchor="middle" x="103" y="-197.2" font-family="Arial" font-size="11.00">LED 输出</text>
<text text-anchor="middle" x="103" y="-185.2" font-family="Arial" font-size="11.00">LEDs (16x)</text>
</g>
<!-- BUTTONS&#45;&gt;LEDS -->
<!-- KEY -->
<g id="node16" class="node">
<title>KEY</title>
<path fill="#90ee90" stroke="#228b22" stroke-width="2" d="M344.5,-626.38C344.5,-626.38 287.5,-626.38 287.5,-626.38 281.5,-626.38 275.5,-620.38 275.5,-614.38 275.5,-614.38 275.5,-602.38 275.5,-602.38 275.5,-596.38 281.5,-590.38 287.5,-590.38 287.5,-590.38 344.5,-590.38 344.5,-590.38 350.5,-590.38 356.5,-596.38 356.5,-602.38 356.5,-602.38 356.5,-614.38 356.5,-614.38 356.5,-620.38 350.5,-626.38 344.5,-626.38"/>
<text text-anchor="middle" x="316" y="-611.38" font-family="Arial" font-size="10.00">按键消抖</text>
<text text-anchor="middle" x="316" y="-600.38" font-family="Arial" font-size="10.00">Key Debounce</text>
</g>
<!-- BUTTONS&#45;&gt;KEY -->
<g id="edge29" class="edge">
<title>BUTTONS&#45;&gt;KEY</title>
<path fill="none" stroke="#228b22" stroke-width="1.5" d="M131.32,-338.6C149.8,-358.22 172.02,-384.92 186,-412.38 219.31,-477.79 178.4,-517.35 227,-572.38 237.09,-583.8 251.39,-591.53 265.58,-596.75"/>
<polygon fill="#228b22" stroke="#228b22" stroke-width="1.5" points="264.75,-600.16 275.34,-599.98 266.94,-593.51 264.75,-600.16"/>
<text text-anchor="middle" x="223.5" y="-452.68" font-family="Arial" font-size="9.00">输入</text>
</g>
<!-- DISPLAY -->
<g id="node7" class="node">
<title>DISPLAY</title>
<path fill="#e6e6fa" stroke="#9370db" stroke-width="2" d="M164.65,-80C164.65,-80 73.08,-80 73.08,-80 67.08,-80 58.56,-74.56 56.03,-69.12 56.03,-69.12 36.41,-26.88 36.41,-26.88 33.88,-21.44 37.35,-16 43.35,-16 43.35,-16 134.92,-16 134.92,-16 140.92,-16 149.44,-21.44 151.97,-26.88 151.97,-26.88 171.59,-69.12 171.59,-69.12 174.12,-74.56 170.65,-80 164.65,-80"/>
<text text-anchor="middle" x="104" y="-51.2" font-family="Arial" font-size="11.00">数码管</text>
<text text-anchor="middle" x="104" y="-39.2" font-family="Arial" font-size="11.00">7&#45;Segment</text>
</g>
<!-- LEDS&#45;&gt;DISPLAY -->
<!-- CPU -->
<g id="node8" class="node">
<title>CPU</title>
<path fill="#b0d4ff" stroke="#4169e1" stroke-width="2" d="M537.5,-489.38C537.5,-489.38 442.5,-489.38 442.5,-489.38 436.5,-489.38 430.5,-483.38 430.5,-477.38 430.5,-477.38 430.5,-432.38 430.5,-432.38 430.5,-426.38 436.5,-420.38 442.5,-420.38 442.5,-420.38 537.5,-420.38 537.5,-420.38 543.5,-420.38 549.5,-426.38 549.5,-432.38 549.5,-432.38 549.5,-477.38 549.5,-477.38 549.5,-483.38 543.5,-489.38 537.5,-489.38"/>
<text text-anchor="middle" x="490" y="-476.57" font-family="Arial" font-size="11.00">myCPU</text>
<text text-anchor="middle" x="490" y="-464.57" font-family="Arial" font-size="11.00">五级流水线处理器</text>
<text text-anchor="middle" x="490" y="-452.57" font-family="Arial" font-size="11.00">RV32I 指令集</text>
<text text-anchor="middle" x="490" y="-427.57" font-family="Arial" font-size="11.00">AHB&#45;I / AHB&#45;D</text>
</g>
<!-- DECODER -->
<g id="node9" class="node">
<title>DECODER</title>
<path fill="#ffd700" stroke="#ff8c00" stroke-width="2" d="M681,-475.38C681,-475.38 625,-475.38 625,-475.38 619,-475.38 613,-469.38 613,-463.38 613,-463.38 613,-446.38 613,-446.38 613,-440.38 619,-434.38 625,-434.38 625,-434.38 681,-434.38 681,-434.38 687,-434.38 693,-440.38 693,-446.38 693,-446.38 693,-463.38 693,-463.38 693,-469.38 687,-475.38 681,-475.38"/>
<text text-anchor="middle" x="653" y="-463.38" font-family="Arial" font-size="10.00">地址译码器</text>
<text text-anchor="middle" x="653" y="-452.38" font-family="Arial" font-size="10.00">AHB Decoder</text>
<text text-anchor="middle" x="653" y="-441.38" font-family="Arial" font-size="10.00">(地址路由)</text>
</g>
<!-- CPU&#45;&gt;DECODER -->
<g id="edge17" class="edge">
<title>CPU&#45;&gt;DECODER</title>
<path fill="none" stroke="#4169e1" stroke-width="2" d="M549.77,-454.88C567.08,-454.88 585.79,-454.88 602.47,-454.88"/>
<polygon fill="#4169e1" stroke="#4169e1" stroke-width="2" points="602.57,-458.38 612.57,-454.88 602.57,-451.38 602.57,-458.38"/>
<text text-anchor="middle" x="581.25" y="-470.68" font-family="Arial" font-size="9.00">指令地址</text>
<text text-anchor="middle" x="581.25" y="-460.68" font-family="Arial" font-size="9.00">HADDR_I</text>
</g>
<!-- CPU&#45;&gt;DECODER -->
<g id="edge18" class="edge">
<title>CPU&#45;&gt;DECODER</title>
<path fill="none" stroke="#9370db" stroke-width="2" d="M549.7,-433.32C565.03,-430.02 581.64,-428.37 603.16,-432.26"/>
<polygon fill="#9370db" stroke="#9370db" stroke-width="2" points="602.55,-435.71 613.06,-434.37 604,-428.86 602.55,-435.71"/>
<text text-anchor="middle" x="581.25" y="-444.68" font-family="Arial" font-size="9.00">数据地址</text>
<text text-anchor="middle" x="581.25" y="-434.68" font-family="Arial" font-size="9.00">HADDR_D</text>
</g>
<!-- UART -->
<g id="node17" class="node">
<title>UART</title>
<path fill="#90ee90" stroke="#228b22" stroke-width="2" d="M346.5,-472.88C346.5,-472.88 285.5,-472.88 285.5,-472.88 279.5,-472.88 273.5,-466.88 273.5,-460.88 273.5,-460.88 273.5,-448.88 273.5,-448.88 273.5,-442.88 279.5,-436.88 285.5,-436.88 285.5,-436.88 346.5,-436.88 346.5,-436.88 352.5,-436.88 358.5,-442.88 358.5,-448.88 358.5,-448.88 358.5,-460.88 358.5,-460.88 358.5,-466.88 352.5,-472.88 346.5,-472.88"/>
<text text-anchor="middle" x="316" y="-457.88" font-family="Arial" font-size="10.00">UART 控制器</text>
<text text-anchor="middle" x="316" y="-446.88" font-family="Arial" font-size="10.00">Serial Interface</text>
</g>
<!-- CPU&#45;&gt;UART -->
<g id="edge33" class="edge">
<title>CPU&#45;&gt;UART</title>
<path fill="none" stroke="#228b22" stroke-dasharray="1,5" d="M430.47,-454.88C410.44,-454.88 388.24,-454.88 368.77,-454.88"/>
<polygon fill="#228b22" stroke="#228b22" points="368.57,-451.38 358.57,-454.88 368.57,-458.38 368.57,-451.38"/>
<text text-anchor="middle" x="394.5" y="-460.68" font-family="Arial" font-size="9.00">串口数据</text>
</g>
<!-- LED -->
<g id="node18" class="node">
<title>LED</title>
<path fill="#90ee90" stroke="#228b22" stroke-width="2" d="M342.5,-324.19C342.5,-324.19 289.5,-324.19 289.5,-324.19 283.5,-324.19 277.5,-318.19 277.5,-312.19 277.5,-312.19 277.5,-300.19 277.5,-300.19 277.5,-294.19 283.5,-288.19 289.5,-288.19 289.5,-288.19 342.5,-288.19 342.5,-288.19 348.5,-288.19 354.5,-294.19 354.5,-300.19 354.5,-300.19 354.5,-312.19 354.5,-312.19 354.5,-318.19 348.5,-324.19 342.5,-324.19"/>
<text text-anchor="middle" x="316" y="-309.19" font-family="Arial" font-size="10.00">LED 控制器</text>
<text text-anchor="middle" x="316" y="-298.19" font-family="Arial" font-size="10.00">LED Driver</text>
</g>
<!-- CPU&#45;&gt;LED -->
<g id="edge32" class="edge">
<title>CPU&#45;&gt;LED</title>
<path fill="none" stroke="#228b22" stroke-dasharray="1,5" d="M430.26,-427.51C417,-420.32 403.48,-411.86 392,-402.38 367.86,-382.43 346.21,-353.71 332.26,-333.04"/>
<polygon fill="#228b22" stroke="#228b22" points="335.02,-330.86 326.58,-324.45 329.17,-334.72 335.02,-330.86"/>
<text text-anchor="middle" x="413.5" y="-395.18" font-family="Arial" font-size="9.00">LED 状态</text>
</g>
<!-- SEG7 -->
<g id="node19" class="node">
<title>SEG7</title>
<path fill="#90ee90" stroke="#228b22" stroke-width="2" d="M350.5,-212C350.5,-212 281.5,-212 281.5,-212 275.5,-212 269.5,-206 269.5,-200 269.5,-200 269.5,-188 269.5,-188 269.5,-182 275.5,-176 281.5,-176 281.5,-176 350.5,-176 350.5,-176 356.5,-176 362.5,-182 362.5,-188 362.5,-188 362.5,-200 362.5,-200 362.5,-206 356.5,-212 350.5,-212"/>
<text text-anchor="middle" x="316" y="-197" font-family="Arial" font-size="10.00">数码管控制器</text>
<text text-anchor="middle" x="316" y="-186" font-family="Arial" font-size="10.00">7&#45;Segment Driver</text>
</g>
<!-- CPU&#45;&gt;SEG7 -->
<g id="edge31" class="edge">
<title>CPU&#45;&gt;SEG7</title>
<path fill="none" stroke="#228b22" stroke-dasharray="1,5" d="M468.55,-420.33C443.8,-381.81 401.65,-316.88 364,-262 354.46,-248.1 343.54,-232.8 334.52,-220.34"/>
<polygon fill="#228b22" stroke="#228b22" points="337.33,-218.25 328.63,-212.22 331.67,-222.37 337.33,-218.25"/>
<text text-anchor="middle" x="466" y="-303.99" font-family="Arial" font-size="9.00">显示数据</text>
</g>
<!-- IROM_CTRL -->
<g id="node11" class="node">
<title>IROM_CTRL</title>
<path fill="#afeeee" stroke="#20b2aa" stroke-width="2" d="M1097,-475.38C1097,-475.38 1011,-475.38 1011,-475.38 1005,-475.38 999,-469.38 999,-463.38 999,-463.38 999,-446.38 999,-446.38 999,-440.38 1005,-434.38 1011,-434.38 1011,-434.38 1097,-434.38 1097,-434.38 1103,-434.38 1109,-440.38 1109,-446.38 1109,-446.38 1109,-463.38 1109,-463.38 1109,-469.38 1103,-475.38 1097,-475.38"/>
<text text-anchor="middle" x="1054" y="-463.38" font-family="Arial" font-size="10.00">指令 ROM 控制器</text>
<text text-anchor="middle" x="1054" y="-452.38" font-family="Arial" font-size="10.00">IROM Controller</text>
<text text-anchor="middle" x="1054" y="-441.38" font-family="Arial" font-size="10.00">(AHB → ROM)</text>
</g>
<!-- DECODER&#45;&gt;IROM_CTRL -->
<g id="edge19" class="edge">
<title>DECODER&#45;&gt;IROM_CTRL</title>
<path fill="none" stroke="#20b2aa" stroke-width="2" d="M657.75,-475.51C663.93,-497 677.01,-529.56 702,-544.38 757.06,-577 933.09,-573.65 990,-544.38 1014.16,-531.95 1031.23,-505.71 1041.63,-484.84"/>
<polygon fill="#20b2aa" stroke="#20b2aa" stroke-width="2" points="1044.84,-486.23 1045.94,-475.69 1038.51,-483.25 1044.84,-486.23"/>
<text text-anchor="middle" x="802" y="-565.17" font-family="Arial" font-size="9.00">HSEL_IROM</text>
</g>
<!-- BRAM_CTRL -->
<g id="node12" class="node">
<title>BRAM_CTRL</title>
<path fill="#afeeee" stroke="#20b2aa" stroke-width="2" d="M968.5,-475.38C968.5,-475.38 883.5,-475.38 883.5,-475.38 877.5,-475.38 871.5,-469.38 871.5,-463.38 871.5,-463.38 871.5,-446.38 871.5,-446.38 871.5,-440.38 877.5,-434.38 883.5,-434.38 883.5,-434.38 968.5,-434.38 968.5,-434.38 974.5,-434.38 980.5,-440.38 980.5,-446.38 980.5,-446.38 980.5,-463.38 980.5,-463.38 980.5,-469.38 974.5,-475.38 968.5,-475.38"/>
<text text-anchor="middle" x="926" y="-463.38" font-family="Arial" font-size="10.00">数据 RAM 控制器</text>
<text text-anchor="middle" x="926" y="-452.38" font-family="Arial" font-size="10.00">BRAM Controller</text>
<text text-anchor="middle" x="926" y="-441.38" font-family="Arial" font-size="10.00">(AHB → RAM)</text>
</g>
<!-- DECODER&#45;&gt;BRAM_CTRL -->
<g id="edge20" class="edge">
<title>DECODER&#45;&gt;BRAM_CTRL</title>
<path fill="none" stroke="#20b2aa" stroke-width="2" d="M657.75,-475.51C663.93,-497 677.01,-529.56 702,-544.38 752.85,-574.51 780.29,-566.77 835,-544.38 864.87,-532.15 890.21,-504.86 906.51,-483.61"/>
<polygon fill="#20b2aa" stroke="#20b2aa" stroke-width="2" points="909.36,-485.63 912.51,-475.51 903.74,-481.46 909.36,-485.63"/>
<text text-anchor="middle" x="741" y="-565.17" font-family="Arial" font-size="9.00">HSEL_BRAM</text>
</g>
<!-- MUX -->
<g id="node10" class="node">
<title>MUX</title>
<path fill="#ffd700" stroke="#ff8c00" stroke-width="2" d="M805,-475.38C805,-475.38 723,-475.38 723,-475.38 717,-475.38 711,-469.38 711,-463.38 711,-463.38 711,-446.38 711,-446.38 711,-440.38 717,-434.38 723,-434.38 723,-434.38 805,-434.38 805,-434.38 811,-434.38 817,-440.38 817,-446.38 817,-446.38 817,-463.38 817,-463.38 817,-469.38 811,-475.38 805,-475.38"/>
<text text-anchor="middle" x="764" y="-463.38" font-family="Arial" font-size="10.00">数据多路复用器</text>
<text text-anchor="middle" x="764" y="-452.38" font-family="Arial" font-size="10.00">AHB Multiplexer</text>
<text text-anchor="middle" x="764" y="-441.38" font-family="Arial" font-size="10.00">(数据选择)</text>
</g>
<!-- MUX&#45;&gt;CPU -->
<g id="edge27" class="edge">
<title>MUX&#45;&gt;CPU</title>
<path fill="none" stroke="#4169e1" stroke-width="2" stroke-dasharray="5,2" d="M756.37,-475.67C747.18,-497.31 729.46,-529.99 702,-544.38 662.24,-565.2 643.33,-559.31 601,-544.38 573.47,-534.66 547.75,-514.9 528.01,-496.41"/>
<polygon fill="#4169e1" stroke="#4169e1" stroke-width="2" points="530.38,-493.83 520.75,-489.42 525.52,-498.87 530.38,-493.83"/>
<text text-anchor="middle" x="580" y="-565.17" font-family="Arial" font-size="9.00">指令</text>
</g>
<!-- MUX&#45;&gt;CPU -->
<g id="edge28" class="edge">
<title>MUX&#45;&gt;CPU</title>
<path fill="none" stroke="#9370db" stroke-width="2" stroke-dasharray="5,2" d="M756.37,-475.67C747.18,-497.31 729.46,-529.99 702,-544.38 662.24,-565.2 643.33,-559.31 601,-544.38 573.47,-534.66 547.75,-514.9 528.01,-496.41"/>
<polygon fill="#9370db" stroke="#9370db" stroke-width="2" points="530.38,-493.83 520.75,-489.42 525.52,-498.87 530.38,-493.83"/>
<text text-anchor="middle" x="580" y="-565.17" font-family="Arial" font-size="9.00">数据</text>
</g>
<!-- IROM_CTRL&#45;&gt;MUX -->
<g id="edge25" class="edge">
<title>IROM_CTRL&#45;&gt;MUX</title>
<path fill="none" stroke="#20b2aa" stroke-width="1.5" stroke-dasharray="5,2" d="M1045.94,-475.69C1036.29,-497.35 1017.86,-530.05 990,-544.38 938.22,-571 913.12,-565.85 859,-544.38 828.32,-532.2 801.8,-504.9 784.63,-483.64"/>
<polygon fill="#20b2aa" stroke="#20b2aa" stroke-width="1.5" points="787.22,-481.26 778.3,-475.53 781.7,-485.57 787.22,-481.26"/>
<text text-anchor="middle" x="868" y="-565.17" font-family="Arial" font-size="9.00">HRDATA</text>
</g>
<!-- IROM -->
<g id="node13" class="node">
<title>IROM</title>
<path fill="#f0ffff" stroke="#48d1cc" stroke-width="2" d="M1065.5,-329.4C1065.5,-332.25 1045.55,-334.56 1021,-334.56 996.45,-334.56 976.5,-332.25 976.5,-329.4 976.5,-329.4 976.5,-282.97 976.5,-282.97 976.5,-280.12 996.45,-277.81 1021,-277.81 1045.55,-277.81 1065.5,-280.12 1065.5,-282.97 1065.5,-282.97 1065.5,-329.4 1065.5,-329.4"/>
<path fill="none" stroke="#48d1cc" stroke-width="2" d="M1065.5,-329.4C1065.5,-326.56 1045.55,-324.25 1021,-324.25 996.45,-324.25 976.5,-326.56 976.5,-329.4"/>
<text text-anchor="middle" x="1021" y="-314.69" font-family="Arial" font-size="10.00">指令存储器</text>
<text text-anchor="middle" x="1021" y="-303.69" font-family="Arial" font-size="10.00">Instruction ROM</text>
<text text-anchor="middle" x="1021" y="-292.69" font-family="Arial" font-size="10.00">64 KB</text>
</g>
<!-- IROM_CTRL&#45;&gt;IROM -->
<g id="edge21" class="edge">
<title>IROM_CTRL&#45;&gt;IROM</title>
<path fill="none" stroke="#48d1cc" stroke-width="1.5" d="M1054.93,-434.31C1055.12,-422.14 1054.67,-406.22 1052,-392.38 1048.84,-376.02 1043,-358.63 1037.23,-343.86"/>
<polygon fill="#48d1cc" stroke="#48d1cc" stroke-width="1.5" points="1040.47,-342.53 1033.48,-334.56 1033.97,-345.15 1040.47,-342.53"/>
<text text-anchor="middle" x="1077" y="-395.18" font-family="Arial" font-size="9.00">地址/控制</text>
</g>
<!-- BRAM_CTRL&#45;&gt;MUX -->
<g id="edge26" class="edge">
<title>BRAM_CTRL&#45;&gt;MUX</title>
<path fill="none" stroke="#20b2aa" stroke-width="1.5" stroke-dasharray="5,2" d="M871.45,-454.88C857.32,-454.88 842,-454.88 827.46,-454.88"/>
<polygon fill="#20b2aa" stroke="#20b2aa" stroke-width="1.5" points="827.04,-451.38 817.04,-454.88 827.04,-458.38 827.04,-451.38"/>
<text text-anchor="middle" x="844.25" y="-460.68" font-family="Arial" font-size="9.00">HRDATA</text>
</g>
<!-- BRAM -->
<g id="node14" class="node">
<title>BRAM</title>
<path fill="#f0ffff" stroke="#48d1cc" stroke-width="2" d="M958,-329.4C958,-332.25 940.07,-334.56 918,-334.56 895.93,-334.56 878,-332.25 878,-329.4 878,-329.4 878,-282.97 878,-282.97 878,-280.12 895.93,-277.81 918,-277.81 940.07,-277.81 958,-280.12 958,-282.97 958,-282.97 958,-329.4 958,-329.4"/>
<path fill="none" stroke="#48d1cc" stroke-width="2" d="M958,-329.4C958,-326.56 940.07,-324.25 918,-324.25 895.93,-324.25 878,-326.56 878,-329.4"/>
<text text-anchor="middle" x="918" y="-314.69" font-family="Arial" font-size="10.00">数据存储器</text>
<text text-anchor="middle" x="918" y="-303.69" font-family="Arial" font-size="10.00">Data RAM</text>
<text text-anchor="middle" x="918" y="-292.69" font-family="Arial" font-size="10.00">64 KB</text>
</g>
<!-- BRAM_CTRL&#45;&gt;BRAM -->
<g id="edge22" class="edge">
<title>BRAM_CTRL&#45;&gt;BRAM</title>
<path fill="none" stroke="#48d1cc" stroke-width="1.5" d="M924.92,-434.09C923.68,-411.25 921.6,-373.16 920.04,-344.66"/>
<polygon fill="#48d1cc" stroke="#48d1cc" stroke-width="1.5" points="923.54,-344.43 919.5,-334.64 916.55,-344.81 923.54,-344.43"/>
<text text-anchor="middle" x="947" y="-395.18" font-family="Arial" font-size="9.00">地址/控制</text>
</g>
<!-- IROM&#45;&gt;IROM_CTRL -->
<g id="edge23" class="edge">
<title>IROM&#45;&gt;IROM_CTRL</title>
<path fill="none" stroke="#48d1cc" stroke-width="1.5" stroke-dasharray="5,2" d="M1007.24,-334.7C999.45,-354.17 992.92,-380.6 1002,-402.38 1005.81,-411.5 1012.11,-419.84 1019.03,-427.03"/>
<polygon fill="#48d1cc" stroke="#48d1cc" stroke-width="1.5" points="1017.05,-429.98 1026.7,-434.35 1021.89,-424.92 1017.05,-429.98"/>
<text text-anchor="middle" x="1025" y="-395.18" font-family="Arial" font-size="9.00">指令数据</text>
</g>
<!-- BRAM&#45;&gt;BRAM_CTRL -->
<g id="edge24" class="edge">
<title>BRAM&#45;&gt;BRAM_CTRL</title>
<path fill="none" stroke="#48d1cc" stroke-width="1.5" stroke-dasharray="5,2" d="M885.06,-342.72C872.67,-360.47 863.43,-382.37 872,-402.38 876.02,-411.75 882.67,-420.24 889.96,-427.48"/>
<polygon fill="#48d1cc" stroke="#48d1cc" stroke-width="1.5" points="888.13,-344.47 891.34,-334.37 882.53,-340.27 888.13,-344.47"/>
<polygon fill="#48d1cc" stroke="#48d1cc" stroke-width="1.5" points="887.66,-430.12 897.39,-434.31 892.39,-424.97 887.66,-430.12"/>
<text text-anchor="middle" x="895" y="-395.18" font-family="Arial" font-size="9.00">读写数据</text>
</g>
<!-- PLL&#45;&gt;CPU -->
<g id="edge12" class="edge">
<title>PLL&#45;&gt;CPU</title>
<path fill="none" stroke="#ffa500" stroke-width="1.5" stroke-dasharray="5,2" d="M565.22,-590.14C558.36,-585 551.44,-578.97 546,-572.38 528.06,-550.61 514.24,-522.14 504.81,-498.79"/>
<polygon fill="#ffa500" stroke="#ffa500" stroke-width="1.5" points="508.07,-497.5 501.17,-489.46 501.55,-500.05 508.07,-497.5"/>
<text text-anchor="middle" x="555.5" y="-565.17" font-family="Arial" font-size="9.00">CLK</text>
</g>
<!-- PLL&#45;&gt;DECODER -->
<g id="edge13" class="edge">
<title>PLL&#45;&gt;DECODER</title>
<path fill="none" stroke="#ffa500" stroke-width="1.5" stroke-dasharray="5,2" d="M609.66,-590.27C614.2,-584.89 618.75,-578.69 622,-572.38 636.2,-544.83 644.35,-510.17 648.69,-485.84"/>
<polygon fill="#ffa500" stroke="#ffa500" stroke-width="1.5" points="652.17,-486.22 650.37,-475.78 645.27,-485.06 652.17,-486.22"/>
<text text-anchor="middle" x="635.5" y="-565.17" font-family="Arial" font-size="9.00">CLK</text>
</g>
<!-- PLL&#45;&gt;MUX -->
<g id="edge14" class="edge">
<title>PLL&#45;&gt;MUX</title>
<path fill="none" stroke="#ffa500" stroke-width="1.5" stroke-dasharray="5,2" d="M630.57,-590.35C659.71,-576.93 696.12,-559.64 702,-554.38 723.66,-534.96 740.56,-506.23 751.21,-484.81"/>
<polygon fill="#ffa500" stroke="#ffa500" stroke-width="1.5" points="754.49,-486.07 755.66,-475.54 748.18,-483.04 754.49,-486.07"/>
<text text-anchor="middle" x="695.5" y="-565.17" font-family="Arial" font-size="9.00">CLK</text>
</g>
<!-- PLL&#45;&gt;IROM_CTRL -->
<g id="edge15" class="edge">
<title>PLL&#45;&gt;IROM_CTRL</title>
<path fill="none" stroke="#ffa500" stroke-width="1.5" stroke-dasharray="5,2" d="M644.54,-606.46C739.18,-603.84 935.93,-593.67 990,-554.38 1014.14,-536.83 1031.6,-507.15 1042.12,-484.95"/>
<polygon fill="#ffa500" stroke="#ffa500" stroke-width="1.5" points="1045.4,-486.2 1046.34,-475.65 1039.02,-483.31 1045.4,-486.2"/>
<text text-anchor="middle" x="983.5" y="-565.17" font-family="Arial" font-size="9.00">CLK</text>
</g>
<!-- PLL&#45;&gt;BRAM_CTRL -->
<g id="edge16" class="edge">
<title>PLL&#45;&gt;BRAM_CTRL</title>
<path fill="none" stroke="#ffa500" stroke-width="1.5" stroke-dasharray="5,2" d="M644.51,-607.93C719.76,-607.66 854.73,-602.8 891,-572.38 916.28,-551.17 923.74,-512.45 925.72,-485.49"/>
<polygon fill="#ffa500" stroke="#ffa500" stroke-width="1.5" points="929.21,-485.62 926.24,-475.45 922.22,-485.25 929.21,-485.62"/>
<text text-anchor="middle" x="909.5" y="-565.17" font-family="Arial" font-size="9.00">CLK</text>
</g>
<!-- KEY&#45;&gt;CPU -->
<g id="edge30" class="edge">
<title>KEY&#45;&gt;CPU</title>
<path fill="none" stroke="#228b22" stroke-dasharray="1,5" d="M348.54,-590.3C365.29,-580.79 385.59,-568.11 402,-554.38 422.16,-537.5 441.9,-515.99 457.57,-497.38"/>
<polygon fill="#228b22" stroke="#228b22" points="460.33,-499.53 464.02,-489.6 454.94,-495.06 460.33,-499.53"/>
<text text-anchor="middle" x="408" y="-565.17" font-family="Arial" font-size="9.00">按键值</text>
</g>
<!-- KEY&#45;&gt;UART -->
<!-- UART&#45;&gt;UART_IO -->
<g id="edge36" class="edge">
<title>UART&#45;&gt;UART_IO</title>
<path fill="none" stroke="#228b22" stroke-width="1.5" d="M301.88,-481.76C288.97,-503.16 267.68,-531.57 240,-544.38 222.66,-552.4 214.24,-552.63 197,-544.38 175.73,-534.19 158.74,-514.31 146.63,-495.87"/>
<polygon fill="#228b22" stroke="#228b22" stroke-width="1.5" points="304.92,-483.49 306.89,-473.08 298.86,-479.99 304.92,-483.49"/>
<polygon fill="#228b22" stroke="#228b22" stroke-width="1.5" points="149.51,-493.88 141.24,-487.26 143.58,-497.6 149.51,-493.88"/>
<text text-anchor="middle" x="242" y="-565.17" font-family="Arial" font-size="9.00">TX/RX</text>
</g>
<!-- UART&#45;&gt;LED -->
<!-- LED&#45;&gt;LEDS -->
<g id="edge35" class="edge">
<title>LED&#45;&gt;LEDS</title>
<path fill="none" stroke="#228b22" stroke-width="1.5" d="M282.72,-287.97C253.27,-272.74 209.35,-250.02 172.3,-230.85"/>
<polygon fill="#228b22" stroke="#228b22" stroke-width="1.5" points="173.53,-227.55 163.04,-226.06 170.31,-233.76 173.53,-227.55"/>
<text text-anchor="middle" x="226.5" y="-246.8" font-family="Arial" font-size="9.00">驱动</text>
</g>
<!-- LED&#45;&gt;SEG7 -->
<!-- SEG7&#45;&gt;DISPLAY -->
<g id="edge34" class="edge">
<title>SEG7&#45;&gt;DISPLAY</title>
<path fill="none" stroke="#228b22" stroke-width="1.5" d="M290.85,-175.92C258.36,-153.85 200.91,-114.82 158.26,-85.86"/>
<polygon fill="#228b22" stroke="#228b22" stroke-width="1.5" points="160.18,-82.93 149.94,-80.21 156.25,-88.72 160.18,-82.93"/>
<text text-anchor="middle" x="195.5" y="-100.8" font-family="Arial" font-size="9.00">驱动</text>
</g>
<!-- legend -->
<g id="node20" class="node">
<title>legend</title>
<text text-anchor="start" x="630" y="-910.17" font-family="Arial" font-size="9.00">━━━━ 实线：数据/地址通路</text>
<text text-anchor="start" x="630" y="-894.17" font-family="Arial" font-size="9.00">┈┈┈┈ 虚线：读取数据返回</text>
<text text-anchor="start" x="630" y="-878.17" font-family="Arial" font-size="9.00">······ 点线：控制/状态信号</text>
</g>
</g>
</svg>
