<?xml version="1.0" encoding="UTF-8" standalone="no"?>
<!DOCTYPE svg PUBLIC "-//W3C//DTD SVG 1.1//EN"
 "http://www.w3.org/Graphics/SVG/1.1/DTD/svg11.dtd">
<!-- Generated by graphviz version 2.43.0 (0)
 -->
<!-- Title: soc_architecture Pages: 1 -->
<svg width="1403pt" height="687pt"
 viewBox="0.00 0.00 1403.14 686.62" xmlns="http://www.w3.org/2000/svg" xmlns:xlink="http://www.w3.org/1999/xlink">
<g id="graph0" class="graph" transform="scale(1 1) rotate(0) translate(4 682.62)">
<title>soc_architecture</title>
<polygon fill="white" stroke="transparent" points="-4,4 -4,-682.62 1399.14,-682.62 1399.14,4 -4,4"/>
<g id="clust1" class="cluster">
<title>cluster_soc</title>
<polygon fill="lightgray" stroke="black" points="159.68,-116 159.68,-615.62 1049.68,-615.62 1049.68,-116 159.68,-116"/>
<text text-anchor="middle" x="604.68" y="-600.42" font-family="Times,serif" font-size="14.00">SoC Top Level (TOP_AI)</text>
</g>
<g id="clust2" class="cluster">
<title>cluster_cpu</title>
<polygon fill="lightblue" stroke="black" points="167.68,-369.62 167.68,-484.62 436.68,-484.62 436.68,-369.62 167.68,-369.62"/>
<text text-anchor="middle" x="302.18" y="-469.43" font-family="Times,serif" font-size="14.00">myCPU (RV32I Processor)</text>
</g>
<g id="clust3" class="cluster">
<title>cluster_ahb</title>
<polygon fill="lightyellow" stroke="black" points="612.68,-377.12 612.68,-477.12 822.68,-477.12 822.68,-377.12 612.68,-377.12"/>
<text text-anchor="middle" x="717.68" y="-461.93" font-family="Times,serif" font-size="14.00">AHB Interconnect</text>
</g>
<g id="clust4" class="cluster">
<title>cluster_mem</title>
<polygon fill="lightcyan" stroke="black" points="830.68,-377.12 830.68,-477.12 1041.68,-477.12 1041.68,-377.12 830.68,-377.12"/>
<text text-anchor="middle" x="936.18" y="-461.93" font-family="Times,serif" font-size="14.00">Memory Subsystem</text>
</g>
<g id="clust5" class="cluster">
<title>cluster_periph</title>
<polygon fill="lavender" stroke="black" points="306.68,-124 306.68,-325.12 597.68,-325.12 597.68,-124 306.68,-124"/>
<text text-anchor="middle" x="452.18" y="-309.93" font-family="Times,serif" font-size="14.00">Peripherals</text>
</g>
<!-- CPU -->
<g id="node1" class="node">
<title>CPU</title>
<polygon fill="lightgreen" stroke="black" points="268.18,-430.62 175.18,-430.62 175.18,-426.62 171.18,-426.62 171.18,-422.62 175.18,-422.62 175.18,-385.62 171.18,-385.62 171.18,-381.62 175.18,-381.62 175.18,-377.62 268.18,-377.62 268.18,-430.62"/>
<polyline fill="none" stroke="black" points="175.18,-426.62 179.18,-426.62 179.18,-422.62 175.18,-422.62 "/>
<polyline fill="none" stroke="black" points="175.18,-385.62 179.18,-385.62 179.18,-381.62 175.18,-381.62 "/>
<text text-anchor="middle" x="221.68" y="-415.43" font-family="Times,serif" font-size="14.00">Five&#45;Stage</text>
<text text-anchor="middle" x="221.68" y="-400.43" font-family="Times,serif" font-size="14.00">Pipeline</text>
<text text-anchor="middle" x="221.68" y="-385.43" font-family="Times,serif" font-size="14.00">Processor</text>
</g>
<!-- SEG7 -->
<g id="node11" class="node">
<title>SEG7</title>
<polygon fill="lightgreen" stroke="black" points="589.68,-271.12 495.68,-271.12 495.68,-233.12 589.68,-233.12 589.68,-271.12"/>
<text text-anchor="middle" x="542.68" y="-255.93" font-family="Times,serif" font-size="14.00">7&#45;Segment</text>
<text text-anchor="middle" x="542.68" y="-240.93" font-family="Times,serif" font-size="14.00">Display</text>
</g>
<!-- CPU&#45;&gt;SEG7 -->
<g id="edge23" class="edge">
<title>CPU&#45;&gt;SEG7</title>
<path fill="none" stroke="black" stroke-dasharray="5,2" d="M258.08,-377.54C264.48,-373.49 271.18,-369.52 277.68,-366.12 312.87,-347.75 321.95,-341.82 360.68,-333.12 388.06,-326.98 461.88,-338.24 486.68,-325.12 505.29,-315.28 519.67,-296.25 529.2,-280.23"/>
<polygon fill="black" stroke="black" points="532.4,-281.67 534.24,-271.23 526.3,-278.24 532.4,-281.67"/>
<text text-anchor="middle" x="388.18" y="-336.93" font-family="Times,serif" font-size="14.00">x31 reg</text>
</g>
<!-- CPU_I -->
<g id="node2" class="node">
<title>CPU_I</title>
<polygon fill="lightgrey" stroke="transparent" points="428.18,-422.12 369.18,-422.12 369.18,-386.12 428.18,-386.12 428.18,-422.12"/>
<text text-anchor="middle" x="398.68" y="-400.43" font-family="Times,serif" font-size="14.00">AHB&#45;I</text>
</g>
<!-- DECODER -->
<g id="node4" class="node">
<title>DECODER</title>
<polygon fill="orange" stroke="black" points="696.68,-423.12 620.68,-423.12 620.68,-385.12 696.68,-385.12 696.68,-423.12"/>
<text text-anchor="middle" x="658.68" y="-407.93" font-family="Times,serif" font-size="14.00">AHB</text>
<text text-anchor="middle" x="658.68" y="-392.93" font-family="Times,serif" font-size="14.00">Decoder</text>
</g>
<!-- CPU_I&#45;&gt;DECODER -->
<g id="edge8" class="edge">
<title>CPU_I&#45;&gt;DECODER</title>
<path fill="none" stroke="black" d="M428.26,-404.12C472.55,-404.12 556.62,-404.12 610.04,-404.12"/>
<polygon fill="black" stroke="black" points="610.3,-407.63 620.3,-404.12 610.3,-400.63 610.3,-407.63"/>
<text text-anchor="middle" x="524.43" y="-410.93" font-family="Times,serif" font-size="14.00">HADDR_I</text>
</g>
<!-- CPU_D -->
<g id="node3" class="node">
<title>CPU_D</title>
<polygon fill="lightgrey" stroke="transparent" points="351.18,-422.12 286.18,-422.12 286.18,-386.12 351.18,-386.12 351.18,-422.12"/>
<text text-anchor="middle" x="318.68" y="-400.43" font-family="Times,serif" font-size="14.00">AHB&#45;D</text>
</g>
<!-- CPU_D&#45;&gt;DECODER -->
<g id="edge9" class="edge">
<title>CPU_D&#45;&gt;DECODER</title>
<path fill="none" stroke="black" d="M322.4,-422.3C327.42,-441.6 338.44,-471.14 360.68,-484.62 391.09,-503.06 405.68,-490.88 440.68,-484.62 501.73,-473.71 568.07,-446.88 611.33,-427.18"/>
<polygon fill="black" stroke="black" points="612.85,-430.33 620.47,-422.97 609.92,-423.98 612.85,-430.33"/>
<text text-anchor="middle" x="566.68" y="-496.43" font-family="Times,serif" font-size="14.00">HADDR_D</text>
</g>
<!-- IROM_CTRL -->
<g id="node6" class="node">
<title>IROM_CTRL</title>
<polygon fill="pink" stroke="black" points="927.18,-423.12 838.18,-423.12 838.18,-385.12 927.18,-385.12 927.18,-423.12"/>
<text text-anchor="middle" x="882.68" y="-407.93" font-family="Times,serif" font-size="14.00">IROM</text>
<text text-anchor="middle" x="882.68" y="-392.93" font-family="Times,serif" font-size="14.00">Controller</text>
</g>
<!-- DECODER&#45;&gt;IROM_CTRL -->
<g id="edge10" class="edge">
<title>DECODER&#45;&gt;IROM_CTRL</title>
<path fill="none" stroke="black" d="M663.84,-423.44C670.16,-442.8 682.95,-471.57 705.68,-484.62 752.32,-511.4 779.02,-509.53 826.68,-484.62 847.63,-473.68 862.32,-450.94 871.39,-432.41"/>
<polygon fill="black" stroke="black" points="874.63,-433.74 875.62,-423.19 868.27,-430.82 874.63,-433.74"/>
<text text-anchor="middle" x="735.68" y="-496.43" font-family="Times,serif" font-size="14.00">HSEL</text>
</g>
<!-- BRAM_CTRL -->
<g id="node7" class="node">
<title>BRAM_CTRL</title>
<polygon fill="pink" stroke="black" points="1034.18,-423.12 945.18,-423.12 945.18,-385.12 1034.18,-385.12 1034.18,-423.12"/>
<text text-anchor="middle" x="989.68" y="-407.93" font-family="Times,serif" font-size="14.00">BRAM</text>
<text text-anchor="middle" x="989.68" y="-392.93" font-family="Times,serif" font-size="14.00">Controller</text>
</g>
<!-- DECODER&#45;&gt;BRAM_CTRL -->
<g id="edge11" class="edge">
<title>DECODER&#45;&gt;BRAM_CTRL</title>
<path fill="none" stroke="black" d="M663.84,-423.44C670.16,-442.8 682.95,-471.57 705.68,-484.62 750.2,-510.18 891.49,-508.98 936.68,-484.62 957.13,-473.61 970.98,-450.87 979.39,-432.36"/>
<polygon fill="black" stroke="black" points="982.61,-433.73 983.29,-423.15 976.16,-431 982.61,-433.73"/>
<text text-anchor="middle" x="782.68" y="-496.43" font-family="Times,serif" font-size="14.00">HSEL</text>
</g>
<!-- MUX -->
<g id="node5" class="node">
<title>MUX</title>
<polygon fill="orange" stroke="black" points="814.68,-423.12 714.68,-423.12 714.68,-385.12 814.68,-385.12 814.68,-423.12"/>
<text text-anchor="middle" x="764.68" y="-407.93" font-family="Times,serif" font-size="14.00">AHB</text>
<text text-anchor="middle" x="764.68" y="-392.93" font-family="Times,serif" font-size="14.00">Multiplexer</text>
</g>
<!-- MUX&#45;&gt;CPU_I -->
<g id="edge16" class="edge">
<title>MUX&#45;&gt;CPU_I</title>
<path fill="none" stroke="black" d="M756.96,-423.22C747.91,-442.71 730.87,-471.85 705.68,-484.62 667.23,-504.12 651.07,-492.47 608.68,-484.62 546.35,-473.09 478.62,-443.81 437.4,-423.93"/>
<polygon fill="black" stroke="black" points="438.79,-420.71 428.27,-419.47 435.72,-427 438.79,-420.71"/>
<text text-anchor="middle" x="485.68" y="-496.43" font-family="Times,serif" font-size="14.00">instruction</text>
</g>
<!-- MUX&#45;&gt;CPU_D -->
<g id="edge17" class="edge">
<title>MUX&#45;&gt;CPU_D</title>
<path fill="none" stroke="black" d="M756.96,-423.22C747.91,-442.71 730.87,-471.85 705.68,-484.62 671.49,-501.96 393.46,-504.5 360.68,-484.62 341.92,-473.25 331.14,-450.44 325.21,-431.99"/>
<polygon fill="black" stroke="black" points="328.55,-430.93 322.4,-422.3 321.82,-432.88 328.55,-430.93"/>
<text text-anchor="middle" x="652.68" y="-496.43" font-family="Times,serif" font-size="14.00">data</text>
</g>
<!-- IROM -->
<g id="node8" class="node">
<title>IROM</title>
<path fill="wheat" stroke="black" d="M886.18,-273.6C886.18,-276.24 864.89,-278.38 838.68,-278.38 812.47,-278.38 791.18,-276.24 791.18,-273.6 791.18,-273.6 791.18,-230.65 791.18,-230.65 791.18,-228.01 812.47,-225.87 838.68,-225.87 864.89,-225.87 886.18,-228.01 886.18,-230.65 886.18,-230.65 886.18,-273.6 886.18,-273.6"/>
<path fill="none" stroke="black" d="M886.18,-273.6C886.18,-270.97 864.89,-268.83 838.68,-268.83 812.47,-268.83 791.18,-270.97 791.18,-273.6"/>
<text text-anchor="middle" x="838.68" y="-255.93" font-family="Times,serif" font-size="14.00">Instruction</text>
<text text-anchor="middle" x="838.68" y="-240.93" font-family="Times,serif" font-size="14.00">ROM</text>
</g>
<!-- IROM_CTRL&#45;&gt;IROM -->
<g id="edge12" class="edge">
<title>IROM_CTRL&#45;&gt;IROM</title>
<path fill="none" stroke="black" d="M884.38,-384.97C885.2,-370.65 885.18,-350.3 880.68,-333.12 876.55,-317.34 868.85,-301.18 861.15,-287.55"/>
<polygon fill="black" stroke="black" points="863.95,-285.41 855.87,-278.56 857.91,-288.95 863.95,-285.41"/>
</g>
<!-- BRAM -->
<g id="node9" class="node">
<title>BRAM</title>
<path fill="wheat" stroke="black" d="M965.68,-273.6C965.68,-276.24 953.58,-278.38 938.68,-278.38 923.78,-278.38 911.68,-276.24 911.68,-273.6 911.68,-273.6 911.68,-230.65 911.68,-230.65 911.68,-228.01 923.78,-225.87 938.68,-225.87 953.58,-225.87 965.68,-228.01 965.68,-230.65 965.68,-230.65 965.68,-273.6 965.68,-273.6"/>
<path fill="none" stroke="black" d="M965.68,-273.6C965.68,-270.97 953.58,-268.83 938.68,-268.83 923.78,-268.83 911.68,-270.97 911.68,-273.6"/>
<text text-anchor="middle" x="938.68" y="-255.93" font-family="Times,serif" font-size="14.00">Data</text>
<text text-anchor="middle" x="938.68" y="-240.93" font-family="Times,serif" font-size="14.00">RAM</text>
</g>
<!-- BRAM_CTRL&#45;&gt;BRAM -->
<g id="edge13" class="edge">
<title>BRAM_CTRL&#45;&gt;BRAM</title>
<path fill="none" stroke="black" d="M983.53,-385.03C975.39,-361.09 960.87,-318.38 950.56,-288.05"/>
<polygon fill="black" stroke="black" points="953.77,-286.62 947.24,-278.28 947.14,-288.87 953.77,-286.62"/>
</g>
<!-- IROM&#45;&gt;MUX -->
<g id="edge14" class="edge">
<title>IROM&#45;&gt;MUX</title>
<path fill="none" stroke="black" d="M792.21,-276.38C770.81,-289.78 747.58,-308.82 735.68,-333.12 728.82,-347.14 734.55,-363.2 742.67,-376.39"/>
<polygon fill="black" stroke="black" points="740.02,-378.72 748.54,-385.01 745.8,-374.78 740.02,-378.72"/>
<text text-anchor="middle" x="766.18" y="-336.93" font-family="Times,serif" font-size="14.00">HRDATA</text>
</g>
<!-- BRAM&#45;&gt;MUX -->
<g id="edge15" class="edge">
<title>BRAM&#45;&gt;MUX</title>
<path fill="none" stroke="black" d="M927.42,-278.57C919.96,-293.4 909.08,-311.76 895.68,-325.12 870.43,-350.32 857.33,-347.87 826.68,-366.12 819.25,-370.55 811.32,-375.28 803.7,-379.82"/>
<polygon fill="black" stroke="black" points="801.74,-376.92 794.95,-385.05 805.33,-382.93 801.74,-376.92"/>
<text text-anchor="middle" x="916.18" y="-336.93" font-family="Times,serif" font-size="14.00">HRDATA</text>
</g>
<!-- UART -->
<g id="node10" class="node">
<title>UART</title>
<polygon fill="lightgreen" stroke="black" points="477.18,-270.12 420.18,-270.12 420.18,-234.12 477.18,-234.12 477.18,-270.12"/>
<text text-anchor="middle" x="448.68" y="-248.43" font-family="Times,serif" font-size="14.00">UART</text>
</g>
<!-- UART_IO -->
<g id="node20" class="node">
<title>UART_IO</title>
<polygon fill="lightgray" stroke="black" points="1182.09,-189 1082.81,-189 1057.27,-113 1156.55,-113 1182.09,-189"/>
<text text-anchor="middle" x="1119.68" y="-154.8" font-family="Times,serif" font-size="14.00">UART</text>
<text text-anchor="middle" x="1119.68" y="-139.8" font-family="Times,serif" font-size="14.00">RX/TX</text>
</g>
<!-- UART&#45;&gt;UART_IO -->
<g id="edge22" class="edge">
<title>UART&#45;&gt;UART_IO</title>
<path fill="none" stroke="black" d="M480.19,-228.78C482.34,-227.73 484.51,-226.79 486.68,-226 591.64,-187.65 925.04,-163.75 1061.06,-155.37"/>
<polygon fill="black" stroke="black" points="478.09,-225.94 471.07,-233.87 481.5,-232.05 478.09,-225.94"/>
<polygon fill="black" stroke="black" points="1061.51,-158.85 1071.28,-154.75 1061.08,-151.86 1061.51,-158.85"/>
</g>
<!-- DISPLAY -->
<g id="node19" class="node">
<title>DISPLAY</title>
<polygon fill="lightgray" stroke="black" points="1395.09,-189 1240.14,-189 1200.27,-113 1355.23,-113 1395.09,-189"/>
<text text-anchor="middle" x="1297.68" y="-154.8" font-family="Times,serif" font-size="14.00">7&#45;Segment</text>
<text text-anchor="middle" x="1297.68" y="-139.8" font-family="Times,serif" font-size="14.00">Display</text>
</g>
<!-- SEG7&#45;&gt;DISPLAY -->
<g id="edge21" class="edge">
<title>SEG7&#45;&gt;DISPLAY</title>
<path fill="none" stroke="black" d="M574.58,-233.04C580.75,-230.23 587.29,-227.7 593.68,-226 850.6,-157.7 930,-241.14 1190.68,-189 1201.64,-186.81 1213.01,-183.77 1224.06,-180.36"/>
<polygon fill="black" stroke="black" points="1225.22,-183.66 1233.68,-177.28 1223.09,-177 1225.22,-183.66"/>
</g>
<!-- LED -->
<g id="node12" class="node">
<title>LED</title>
<polygon fill="lightgreen" stroke="black" points="403.18,-170 314.18,-170 314.18,-132 403.18,-132 403.18,-170"/>
<text text-anchor="middle" x="358.68" y="-154.8" font-family="Times,serif" font-size="14.00">LED</text>
<text text-anchor="middle" x="358.68" y="-139.8" font-family="Times,serif" font-size="14.00">Controller</text>
</g>
<!-- LEDS -->
<g id="node18" class="node">
<title>LEDS</title>
<polygon fill="lightgray" stroke="black" points="469.55,-76 293.19,-76 247.82,0 424.18,0 469.55,-76"/>
<text text-anchor="middle" x="358.68" y="-41.8" font-family="Times,serif" font-size="14.00">LEDs</text>
<text text-anchor="middle" x="358.68" y="-26.8" font-family="Times,serif" font-size="14.00">(16x + RGB)</text>
</g>
<!-- LED&#45;&gt;LEDS -->
<g id="edge20" class="edge">
<title>LED&#45;&gt;LEDS</title>
<path fill="none" stroke="black" d="M358.68,-131.67C358.68,-119.35 358.68,-102.49 358.68,-86.54"/>
<polygon fill="black" stroke="black" points="362.18,-86.24 358.68,-76.24 355.18,-86.24 362.18,-86.24"/>
</g>
<!-- KEY -->
<g id="node13" class="node">
<title>KEY</title>
<polygon fill="lightgreen" stroke="black" points="402.18,-271.12 315.18,-271.12 315.18,-233.12 402.18,-233.12 402.18,-271.12"/>
<text text-anchor="middle" x="358.68" y="-255.93" font-family="Times,serif" font-size="14.00">Key</text>
<text text-anchor="middle" x="358.68" y="-240.93" font-family="Times,serif" font-size="14.00">Debounce</text>
</g>
<!-- KEY&#45;&gt;LED -->
<g id="edge19" class="edge">
<title>KEY&#45;&gt;LED</title>
<path fill="none" stroke="black" stroke-dasharray="5,2" d="M358.68,-232.94C358.68,-218.27 358.68,-197.37 358.68,-180.48"/>
<polygon fill="black" stroke="black" points="362.18,-180.07 358.68,-170.07 355.18,-180.07 362.18,-180.07"/>
</g>
<!-- PLL -->
<g id="node14" class="node">
<title>PLL</title>
<ellipse fill="yellow" stroke="black" cx="826.68" cy="-543.62" rx="28.7" ry="18"/>
<text text-anchor="middle" x="826.68" y="-539.92" font-family="Times,serif" font-size="14.00">PLL</text>
</g>
<!-- PLL&#45;&gt;CPU -->
<g id="edge3" class="edge">
<title>PLL&#45;&gt;CPU</title>
<path fill="none" stroke="black" d="M798.06,-542.95C697.93,-543.59 364.72,-541.31 277.68,-484.62 261.01,-473.77 247.82,-456.05 238.44,-440.1"/>
<polygon fill="black" stroke="black" points="241.28,-438.01 233.36,-430.98 235.16,-441.42 241.28,-438.01"/>
<text text-anchor="middle" x="338.18" y="-496.43" font-family="Times,serif" font-size="14.00">clk</text>
</g>
<!-- PLL&#45;&gt;DECODER -->
<g id="edge4" class="edge">
<title>PLL&#45;&gt;DECODER</title>
<path fill="none" stroke="black" d="M798.08,-542.33C709.97,-541.14 447.06,-535.29 421.68,-507.62 417.18,-502.71 417.87,-498.09 421.68,-492.62 423.11,-490.58 542.04,-447.31 610.86,-422.4"/>
<polygon fill="black" stroke="black" points="612.42,-425.56 620.63,-418.86 610.04,-418.97 612.42,-425.56"/>
<text text-anchor="middle" x="432.18" y="-496.43" font-family="Times,serif" font-size="14.00">clk</text>
</g>
<!-- PLL&#45;&gt;MUX -->
<g id="edge5" class="edge">
<title>PLL&#45;&gt;MUX</title>
<path fill="none" stroke="black" d="M819.41,-525.93C815.15,-516.2 809.65,-503.7 804.68,-492.62 795.65,-472.5 785.29,-449.85 777.38,-432.63"/>
<polygon fill="black" stroke="black" points="780.39,-430.81 773.03,-423.19 774.03,-433.74 780.39,-430.81"/>
<text text-anchor="middle" x="821.18" y="-496.43" font-family="Times,serif" font-size="14.00">clk</text>
</g>
<!-- PLL&#45;&gt;IROM_CTRL -->
<g id="edge6" class="edge">
<title>PLL&#45;&gt;IROM_CTRL</title>
<path fill="none" stroke="black" d="M839.29,-527.29C843.67,-521.4 848.32,-514.46 851.68,-507.62 863.47,-483.65 871.79,-454.29 876.83,-433.14"/>
<polygon fill="black" stroke="black" points="880.28,-433.73 879.1,-423.2 873.46,-432.17 880.28,-433.73"/>
<text text-anchor="middle" x="867.18" y="-496.43" font-family="Times,serif" font-size="14.00">clk</text>
</g>
<!-- PLL&#45;&gt;BRAM_CTRL -->
<g id="edge7" class="edge">
<title>PLL&#45;&gt;BRAM_CTRL</title>
<path fill="none" stroke="black" d="M851.12,-533.86C874.93,-524.42 911.2,-507.62 936.68,-484.62 952.95,-469.95 966.54,-449.26 975.88,-432.66"/>
<polygon fill="black" stroke="black" points="979.19,-433.9 980.88,-423.44 973.04,-430.56 979.19,-433.9"/>
<text text-anchor="middle" x="936.18" y="-496.43" font-family="Times,serif" font-size="14.00">clk</text>
</g>
<!-- CLK_IN -->
<g id="node15" class="node">
<title>CLK_IN</title>
<ellipse fill="gold" stroke="black" cx="743.68" cy="-660.62" rx="71.49" ry="18"/>
<text text-anchor="middle" x="743.68" y="-656.92" font-family="Times,serif" font-size="14.00">CLK100MHZ</text>
</g>
<!-- CLK_IN&#45;&gt;PLL -->
<g id="edge1" class="edge">
<title>CLK_IN&#45;&gt;PLL</title>
<path fill="none" stroke="black" d="M755.93,-642.66C770.1,-623.02 793.53,-590.55 809.52,-568.41"/>
<polygon fill="black" stroke="black" points="812.44,-570.34 815.45,-560.19 806.76,-566.25 812.44,-570.34"/>
</g>
<!-- RESET -->
<g id="node16" class="node">
<title>RESET</title>
<ellipse fill="red" stroke="black" cx="909.68" cy="-660.62" rx="76.09" ry="18"/>
<text text-anchor="middle" x="909.68" y="-656.92" font-family="Times,serif" font-size="14.00">CPU_RESETN</text>
</g>
<!-- RESET&#45;&gt;PLL -->
<g id="edge2" class="edge">
<title>RESET&#45;&gt;PLL</title>
<path fill="none" stroke="black" d="M897.44,-642.66C883.26,-623.02 859.83,-590.55 843.85,-568.41"/>
<polygon fill="black" stroke="black" points="846.6,-566.25 837.91,-560.19 840.93,-570.34 846.6,-566.25"/>
</g>
<!-- BUTTONS -->
<g id="node17" class="node">
<title>BUTTONS</title>
<polygon fill="lightgray" stroke="black" points="151.55,-442.12 30.86,-442.12 -0.18,-366.13 120.5,-366.12 151.55,-442.12"/>
<text text-anchor="middle" x="75.68" y="-407.93" font-family="Times,serif" font-size="14.00">Buttons</text>
<text text-anchor="middle" x="75.68" y="-392.93" font-family="Times,serif" font-size="14.00">(5x)</text>
</g>
<!-- BUTTONS&#45;&gt;KEY -->
<g id="edge18" class="edge">
<title>BUTTONS&#45;&gt;KEY</title>
<path fill="none" stroke="black" d="M124.98,-377C178.91,-348.41 264.49,-303.05 315.76,-275.88"/>
<polygon fill="black" stroke="black" points="317.41,-278.96 324.61,-271.19 314.13,-272.78 317.41,-278.96"/>
</g>
</g>
</svg>
